<?xml version="1.0" encoding="UTF-8"?>
<svg version="1.1" xmlns="http://www.w3.org/2000/svg" width="1024" height="320">
<path d="M0 0 C337.92 0 675.84 0 1024 0 C1024 105.6 1024 211.2 1024 320 C686.08 320 348.16 320 0 320 C0 214.4 0 108.8 0 0 Z " fill="#000000" transform="translate(0,0)"/>
<path d="M0 0 C14.72077561 12.70807815 22.82626646 28.97793453 25.45703125 48.12109375 C25.71107524 52.27385855 25.71124126 56.40962164 25.68408203 60.5690918 C25.68437408 61.7606337 25.68466614 62.9521756 25.68496704 64.17982483 C25.68382192 67.41054671 25.67387169 70.64108967 25.65981913 73.87177634 C25.64721832 77.26166219 25.64613397 80.65155247 25.64376831 84.04145813 C25.63758077 90.44433187 25.62120733 96.84713638 25.60106933 103.24997979 C25.57862488 110.54633778 25.56769553 117.84269928 25.55767846 125.13908327 C25.53683831 140.13312517 25.50171604 155.1271025 25.45703125 170.12109375 C14.64797425 166.6503556 6.937773 160.76495221 0.64453125 151.43359375 C-1.84979473 146.5762221 -1.69390984 141.79239539 -1.70068359 136.42797852 C-1.70576431 135.55094772 -1.71084503 134.67391693 -1.71607971 133.77030945 C-1.72677407 131.86604877 -1.73539791 129.96177559 -1.74219894 128.05749702 C-1.75402041 125.03329628 -1.77348537 122.00923627 -1.7953186 118.98509216 C-1.8567989 110.38635014 -1.91080028 101.78762069 -1.94433594 93.1887207 C-1.9654124 87.92550983 -2.0008252 82.66255306 -2.04509354 77.39948845 C-2.0591589 75.40347241 -2.06795433 73.40741138 -2.07114792 71.41134834 C-2.1020407 53.93951983 -3.84122999 39.78372673 -13.73046875 24.80859375 C-24.6538063 14.37073787 -37.20567928 10.75613244 -51.9765625 10.91015625 C-62.09137644 11.50840373 -70.68049108 15.92168121 -78.29296875 22.49609375 C-89.95253198 36.09891752 -92.57393956 48.42356072 -93.54296875 66.12109375 C-94.455625 65.64929688 -94.455625 65.64929688 -95.38671875 65.16796875 C-103.5285599 61.19283454 -111.75504458 59.09479316 -120.54296875 57.12109375 C-121.81507389 38.46355165 -115.17808605 22.20629097 -103.79296875 7.74609375 C-76.52301954 -23.1764514 -31.78815799 -24.44876319 0 0 Z " fill="#384956" transform="translate(257.54296875,24.87890625)"/>
<path d="M0 0 C1.43307623 0.44113184 2.86318105 0.89192313 4.29199219 1.34667969 C5.48704376 1.72164581 5.48704376 1.72164581 6.70623779 2.10418701 C10.21483475 3.47444532 12.60291401 5.63020355 15.25 8.25 C15.76087158 8.73726562 16.27174316 9.22453125 16.7980957 9.7265625 C22.24384906 15.02257734 26.84908428 19.87514277 27.13803101 27.77268982 C27.14955257 29.38025164 27.15569752 30.98785714 27.15771484 32.59545898 C27.16533592 33.91319557 27.16533592 33.91319557 27.17311096 35.2575531 C27.18381775 37.16783588 27.19243672 39.07813123 27.19923019 40.98843193 C27.2110332 44.02067944 27.2304936 47.05278543 27.25234985 50.0849762 C27.31389128 58.70756244 27.36784338 67.33013664 27.40136719 75.95288086 C27.4224268 81.22790211 27.4578278 86.50266903 27.50212479 91.77754402 C27.51620476 93.77996875 27.52498896 95.78243852 27.52817917 97.7849102 C27.55973643 115.70954163 29.22879043 131.4659135 42.0234375 145.21875 C50.81192073 153.13880604 61.21034759 156.58039677 72.875 156.4375 C73.75341553 156.42920166 74.63183105 156.42090332 75.53686523 156.41235352 C82.33256268 156.23568676 87.95750184 155.26179439 94 152 C95.43085938 151.23623047 95.43085938 151.23623047 96.890625 150.45703125 C107.61504091 144.19156367 112.96683775 135.47863204 116.71875 123.75390625 C118.33136613 117.29158426 118.61074496 110.62757932 119 104 C119.53367187 104.18175781 120.06734375 104.36351562 120.6171875 104.55078125 C128.69225596 107.27506905 136.5281366 109.91848552 145 111 C146.62701195 112.62701195 146.24940591 114.37353705 146.3125 116.625 C146.10239323 132.86625303 138.72760791 149.01032057 128 161 C127.34515625 161.74765625 126.6903125 162.4953125 126.015625 163.265625 C112.86926436 177.37157401 94.67292796 184.64948032 75.62915039 185.3347168 C57.2649851 185.6540431 39.11150441 180.13420579 25.4375 167.5 C23.57851817 165.70419044 21.79016148 163.86692185 20 162 C19.31292969 161.29746094 18.62585938 160.59492188 17.91796875 159.87109375 C4.15297879 145.02649674 -0.35990211 126.47550229 -0.22705078 106.71386719 C-0.22734283 105.55143997 -0.22763489 104.38901276 -0.22793579 103.19136047 C-0.22655526 99.39311963 -0.21105459 95.59508108 -0.1953125 91.796875 C-0.19157782 89.14601307 -0.18863447 86.49516198 -0.18673706 83.84429932 C-0.18055458 77.60791296 -0.1641882 71.37159787 -0.14403808 65.1352427 C-0.12157761 58.02749184 -0.1106603 50.91973733 -0.10064721 43.81195974 C-0.07981858 29.20793663 -0.04470643 14.60396932 0 0 Z " fill="#394956" transform="translate(137,127)"/>
<path d="M0 0 C20.24333328 0 35.0893182 3.35691478 51 16 C52.26070312 16.96486328 52.26070312 16.96486328 53.546875 17.94921875 C66.60125645 28.86251534 75.26322636 46.90308236 76.87109375 63.734375 C78.04814479 84.42193872 73.97101448 101.67663585 61 118 C60.35675781 118.84046875 59.71351563 119.6809375 59.05078125 120.546875 C47.71804343 134.10298805 30.21955352 141.67348405 13 144 C-9.95742796 145.87702241 -30.43137913 138.48224153 -48 124 C-56.93738582 116.2006043 -63.17929614 106.79837664 -68 96 C-68 95.01 -68 94.02 -68 93 C-64.42211911 91.79561349 -60.83698135 90.61447826 -57.25 89.4375 C-56.23421875 89.09525391 -55.2184375 88.75300781 -54.171875 88.40039062 C-53.1921875 88.08134766 -52.2125 87.76230469 -51.203125 87.43359375 C-50.30239258 87.13509521 -49.40166016 86.83659668 -48.47363281 86.52905273 C-45.84746143 85.96737553 -44.47338846 85.99749704 -42 87 C-40.578125 89.00390625 -40.578125 89.00390625 -39.25 91.5625 C-32.9334707 102.6322176 -22.97441387 109.79845127 -11 114 C2.20539634 117.29616643 15.55510833 117.25908741 27.75 110.46875 C29.23614394 109.4714692 30.70168375 108.44192621 32.1328125 107.3671875 C34 106 34 106 36.1171875 105.0703125 C38.53783255 103.69426117 38.93184779 102.5502134 40 100 C40.474375 99.08605469 40.94875 98.17210937 41.4375 97.23046875 C42.2109375 95.72419922 42.2109375 95.72419922 43 94.1875 C43.515625 93.19105469 44.03125 92.19460937 44.5625 91.16796875 C49.81163121 79.59991057 49.46075181 66.79296254 45.25 54.96484375 C40.29315878 43.20783599 32.91275313 35.58956448 21.0078125 30.69140625 C16.44765174 29.12107852 12.04976911 28.71456911 7.25 28.4375 C4.8575 28.293125 2.465 28.14875 0 28 C0 18.76 0 9.52 0 0 Z " fill="#384956" transform="translate(289,88)"/>
<path d="M0 0 C3.67103306 3.00140543 6.97750934 6.2900345 10.26367188 9.70410156 C11.00101562 10.43371094 11.73835938 11.16332031 12.49804688 11.91503906 C17.91617904 17.56417686 26.26367188 27.54679391 26.26367188 35.70410156 C22.90950521 36.18326823 19.55533854 36.6624349 16.20117188 37.14160156 C15.25822266 37.27630859 14.31527344 37.41101563 13.34375 37.54980469 C8.31705729 38.26790365 3.29036458 38.9860026 -1.73632812 39.70410156 C-2.06503906 39.14722656 -2.39375 38.59035156 -2.73242188 38.01660156 C-9.30748524 27.46799041 -18.51497364 19.70124184 -30.63134766 16.1484375 C-43.12897899 13.51033856 -56.21258628 15.24558787 -67.11132812 21.70410156 C-67.97757813 22.36410156 -68.84382813 23.02410156 -69.73632812 23.70410156 C-70.54070312 24.29835937 -71.34507813 24.89261719 -72.17382812 25.50488281 C-80.73751066 32.85450669 -85.05956065 44.53851364 -85.97460938 55.57910156 C-86.26581971 67.84058917 -83.23827818 80.59581886 -74.76757812 89.85644531 C-63.96408358 100.07031251 -52.2331143 102.87571378 -37.73632812 103.70410156 C-36.53148091 109.33937121 -36.62336383 114.84946272 -36.67382812 120.57910156 C-36.67833984 121.55363281 -36.68285156 122.52816406 -36.6875 123.53222656 C-36.69921907 125.9229159 -36.71562593 128.31347596 -36.73632812 130.70410156 C-57.00717314 131.67451436 -73.91846901 126.98093914 -89.73632812 113.70410156 C-91.22132812 112.62128906 -91.22132812 112.62128906 -92.73632812 111.51660156 C-99.96478343 105.30934078 -104.88135258 97.13217185 -108.67382812 88.51660156 C-108.95605225 87.8761792 -109.23827637 87.23575684 -109.52905273 86.57592773 C-116.38339306 70.11081559 -116.18680691 49.23106791 -109.73632812 32.70410156 C-102.29718025 14.78076602 -89.33590374 -0.12040831 -71.23632812 -7.77636719 C-67.76087947 -9.05344477 -64.2755973 -10.20950406 -60.73632812 -11.29589844 C-59.99125 -11.54339844 -59.24617188 -11.79089844 -58.47851562 -12.04589844 C-39.32945674 -17.45269154 -15.74174082 -11.74875707 0 0 Z " fill="#394956" transform="translate(167.736328125,101.2958984375)"/>
<path d="M0 0 C1.9716656 1.55356687 3.38328281 3.05993937 5 5 C5.33 2.69 5.66 0.38 6 -2 C10.95 -2 15.9 -2 21 -2 C21.09077477 6.54574641 21.16398679 15.09111091 21.20724869 23.6372118 C21.22802399 27.60655097 21.25615443 31.57554 21.30175781 35.54467773 C21.34557889 39.38320489 21.3692125 43.22139766 21.37950897 47.06015587 C21.38683596 48.51643822 21.40114185 49.97270461 21.42292023 51.42884254 C21.57845734 62.270597 20.79952133 73.1433639 12.96875 81.43359375 C4.07736531 88.5078899 -5.87797393 90.82612023 -17 90 C-25.46105761 88.77496344 -33.31386296 86.54691694 -40 81 C-40.66 79.68 -41.32 78.36 -42 77 C-38.04 72.05 -38.04 72.05 -34 67 C-31.99529058 68.00235471 -29.99051816 69.00490759 -28 70.03515625 C-27.01 70.54369141 -27.01 70.54369141 -26 71.0625 C-25.01 71.57490234 -25.01 71.57490234 -24 72.09765625 C-17.65640038 74.95970998 -10.08276122 75.06495388 -3.5625 72.8125 C2.19663467 68.73896572 3.7062414 64.68441941 5 58 C5 57.01 5 56.02 5 55 C4.07767578 55.63228516 4.07767578 55.63228516 3.13671875 56.27734375 C2.32847656 56.82519531 1.52023437 57.37304688 0.6875 57.9375 C-0.51326172 58.75541016 -0.51326172 58.75541016 -1.73828125 59.58984375 C-7.93060744 63.45068961 -16.43430302 62.80397572 -23.41796875 61.57421875 C-30.52460247 59.26208043 -36.06548615 53.9994511 -39.875 47.6875 C-44.7085838 38.00400272 -44.98473532 27.64770294 -42.28125 17.23046875 C-39.34054084 8.97873744 -33.83511721 2.07426095 -26 -2 C-16.62547285 -4.9929683 -8.75390324 -4.6283306 0 0 Z " fill="#374854" transform="translate(872,144)"/>
<path d="M0 0 C4.35042637 2.39442071 7.6091916 5.20281933 10.1875 9.5 C11.66466002 15.54292736 11.95705931 21.15348937 8.8125 26.6875 C6.85810662 29.78031107 5.78647125 30.34650568 2.234375 31.7109375 C0.29704609 32.64061427 0.29704609 32.64061427 -1.125 34.3125 C-2.08957164 38.7157557 -1.91939467 43.07292365 -1.8125 47.5625 C-1.5990532 62.31404523 -1.5990532 62.31404523 -6.125 69.3125 C-11.20657191 74.08609785 -17.30023451 73.60252921 -23.87695312 73.83007812 C-29.32173192 73.98130441 -29.32173192 73.98130441 -34.125 76.3125 C-35.28509247 79.79277742 -35.32916521 82.64571643 -35.375 86.3125 C-35.40078125 87.55 -35.4265625 88.7875 -35.453125 90.0625 C-35.41023313 93.26232104 -35.41023313 93.26232104 -33.734375 95.1875 C-30.69319849 97.31337096 -28.4980048 97.55783407 -24.8125 97.6875 C-23.39517578 97.76097656 -23.39517578 97.76097656 -21.94921875 97.8359375 C-18.04076295 97.11154873 -16.72254171 95.25803773 -14.125 92.3125 C-13.32320312 91.52230469 -12.52140625 90.73210937 -11.6953125 89.91796875 C-9.99703997 88.23868649 -8.31169633 86.54626832 -6.63671875 84.84375 C-5.11241576 83.30759395 -3.55910983 81.79861055 -1.95703125 80.34375 C3.17317723 75.35105226 3.45306243 71.32840385 3.6640625 64.30859375 C3.95227095 60.21496639 4.97913319 58.20836681 7.875 55.3125 C11.7058118 52.54344313 15.21656409 50.93678952 20 51.3125 C24.87641866 52.26095864 28.41971132 54.65648185 31.6875 58.375 C34.11731423 62.33943374 34.18394303 65.75559033 33.875 70.3125 C31.88655883 75.64989473 28.96832352 78.76583824 23.875 81.3125 C23.10671875 81.25449219 22.3384375 81.19648438 21.546875 81.13671875 C15.98584819 80.87651028 12.3093121 81.62361912 8.109375 85.31640625 C5.03607013 88.29461534 2.10667393 91.39656532 -0.67871094 94.64575195 C-2.125 96.3125 -2.125 96.3125 -4.484375 98.58984375 C-7.06660644 102.87511831 -6.80241058 107.21201602 -6.875 112.125 C-6.91947266 113.59356445 -6.91947266 113.59356445 -6.96484375 115.09179688 C-7.03529202 117.49877953 -7.08811025 119.9048079 -7.125 122.3125 C-6.37605469 122.41949219 -5.62710938 122.52648437 -4.85546875 122.63671875 C-1.95494555 123.35458787 -0.64585201 124.16477743 1.5625 126.125 C2.14386719 126.62644531 2.72523438 127.12789062 3.32421875 127.64453125 C7.30287369 131.92384021 7.24822338 136.00138361 7.12109375 141.625 C6.65468776 146.71844954 4.69028172 149.77525323 0.9375 153.0625 C-4.09182758 156.75751618 -6.74088856 157.84450929 -13.125 157.3125 C-19.5993412 155.9349806 -23.50716921 152.82061608 -27.125 147.3125 C-28.98304418 141.73836747 -28.93131384 136.36974432 -26.4375 131 C-24.54532083 127.62639941 -22.43117459 125.40061027 -19.125 123.3125 C-18.465 123.3125 -17.805 123.3125 -17.125 123.3125 C-17.125 118.3625 -17.125 113.4125 -17.125 108.3125 C-18.35476562 108.35890625 -19.58453125 108.4053125 -20.8515625 108.453125 C-22.4843506 108.49066036 -24.11716511 108.52705862 -25.75 108.5625 C-26.55824219 108.59601563 -27.36648437 108.62953125 -28.19921875 108.6640625 C-33.70530551 108.75359237 -36.75662329 107.98060258 -41.125 104.3125 C-46.64515908 98.04637348 -46.3662131 93.67970194 -46.4375 85.5625 C-46.46650391 84.47710937 -46.49550781 83.39171875 -46.52539062 82.2734375 C-46.57405543 76.14915946 -46.54506403 71.97445808 -42.125 67.3125 C-37.10407291 62.87005491 -32.82714052 62.75488878 -26.4375 62.75 C-24.74597252 62.74106363 -23.05445199 62.71946304 -21.36328125 62.68359375 C-20.2501355 62.6825061 -20.2501355 62.6825061 -19.11450195 62.68139648 C-16.47904673 62.19272636 -15.64951533 61.51287987 -14.125 59.3125 C-13.42813117 55.19960749 -13.56950852 51.04039829 -13.5625 46.875 C-13.52576172 45.72966797 -13.48902344 44.58433594 -13.45117188 43.40429688 C-13.43459391 40.25632566 -13.49455264 37.3976618 -14.125 34.3125 C-16.83872085 31.55294811 -16.83872085 31.55294811 -20.125 30.3125 C-24.74754148 25.56155459 -26.125 20.95679336 -26.125 14.375 C-25.16243391 8.67705129 -21.83438108 4.26500944 -17.1953125 0.921875 C-11.32510462 -2.32158616 -6.18252383 -2.83655119 0 0 Z " fill="#3A6FA1" transform="translate(217.125,81.6875)"/>
<path d="M0 0 C7.56276399 5.38560466 12.88317595 13.31073809 14.4453125 22.52734375 C15.32720972 34.71355988 13.82660221 43.84110475 5.75390625 53.26171875 C-1.43619845 60.31799747 -9.63078589 63.50504157 -19.5546875 63.77734375 C-28.86239797 63.54963218 -37.36150403 60.7737296 -44.2421875 54.33984375 C-52.13540747 45.958942 -54.05139073 37.66863172 -53.83203125 26.42578125 C-53.20607138 17.62707766 -49.75060937 9.83390708 -43.5546875 3.52734375 C-30.82149758 -7.41524134 -14.35644869 -8.27581217 0 0 Z " fill="#364652" transform="translate(764.5546875,145.47265625)"/>
<path d="M0 0 C3.74600729 2.75459173 6.42638747 4.91211785 8.27734375 9.25 C7.03844779 10.73847937 5.78577655 12.21550105 4.52734375 13.6875 C3.48320312 14.92306641 3.48320312 14.92306641 2.41796875 16.18359375 C0.23001959 18.29568336 -0.69876755 19.18490651 -3.72265625 19.25 C-5.765625 18.140625 -5.765625 18.140625 -7.91015625 16.5 C-14.46390343 11.88014543 -21.55782702 8.95539645 -29.72265625 10.25 C-37.27400416 12.08592829 -43.12294422 14.84549633 -47.72265625 21.25 C-52.74793654 30.20944468 -54.35311366 40.1412057 -52.0390625 50.23046875 C-49.45098813 58.01616966 -45.9456402 63.80418167 -38.53515625 67.625 C-30.84534908 71.11347268 -22.33626236 71.9655858 -14.30859375 68.98046875 C-11.38679715 67.49056999 -8.56469117 65.88491129 -5.72265625 64.25 C-4.06818446 63.55361985 -2.40478964 62.8766175 -0.72265625 62.25 C0.64611491 63.48399063 1.99703541 64.73780623 3.33984375 66 C4.47099609 67.04414063 4.47099609 67.04414063 5.625 68.109375 C7.27734375 70.25 7.27734375 70.25 7.234375 72.30078125 C3.57909342 79.74562007 -5.33307743 83.5769386 -12.72265625 86.25 C-24.79352997 89.41810307 -37.57626344 87.6032861 -48.47265625 81.875 C-59.04748818 75.58575785 -65.69184763 66.69019566 -69.83984375 55.0703125 C-72.86810672 41.96570547 -71.86325243 27.25876757 -65.14453125 15.484375 C-63.4566402 12.94493531 -61.66699936 10.5973373 -59.72265625 8.25 C-59.2225 7.61449219 -58.72234375 6.97898438 -58.20703125 6.32421875 C-43.92239631 -9.94439327 -17.4444264 -11.21248641 0 0 Z " fill="#384955" transform="translate(454.72265625,121.75)"/>
<path d="M0 0 C8.04716042 5.66786817 11.61907864 12.18608544 13.69921875 21.7109375 C13.69921875 26.3309375 13.69921875 30.9509375 13.69921875 35.7109375 C-1.81078125 35.7109375 -17.32078125 35.7109375 -33.30078125 35.7109375 C-28.48549089 44.99788006 -28.48549089 44.99788006 -20.65234375 49.15234375 C-13.03358093 50.96211631 -8.27799782 49.69739952 -1.5625 45.70703125 C0.69921875 44.7109375 0.69921875 44.7109375 2.7578125 44.8671875 C5.04923689 45.86305806 6.59773716 47.09998299 8.44921875 48.7734375 C9.36960937 49.59521484 9.36960937 49.59521484 10.30859375 50.43359375 C10.99695313 51.06587891 10.99695313 51.06587891 11.69921875 51.7109375 C9.30575711 57.51288901 4.0112137 60.05494002 -1.40234375 62.76171875 C-10.15414745 66.21982845 -19.95552696 65.98881304 -28.67578125 62.6484375 C-38.79936885 57.83602635 -44.31653275 51.22409833 -48.41015625 40.91796875 C-50.79480058 32.33115737 -50.43779198 21.92676526 -46.55078125 13.8828125 C-41.38904429 4.91429454 -35.46775797 0.09117413 -25.73828125 -3.6640625 C-16.85972442 -5.27834556 -7.99835444 -4.48125121 0 0 Z " fill="#384855" transform="translate(952.30078125,144.2890625)"/>
<path d="M0 0 C6.52586731 5.08709341 9.96046337 10.75941547 11 19 C11.12958741 22.40444967 11.11653146 25.80444967 11.09765625 29.2109375 C11.0962413 30.17907379 11.09482635 31.14721008 11.09336853 32.14468384 C11.08779365 35.22148799 11.07524577 38.29821803 11.0625 41.375 C11.05748175 43.46744686 11.05291941 45.55989487 11.04882812 47.65234375 C11.03783245 52.7682575 11.02058515 57.88411621 11 63 C6.05 63 1.1 63 -4 63 C-4.495 60.03 -4.495 60.03 -5 57 C-5.804375 57.763125 -6.60875 58.52625 -7.4375 59.3125 C-13.30701359 64.1036611 -19.05937482 65.29355108 -26.5625 64.9375 C-33.41420225 64.19309777 -38.35001678 62.57836205 -43.3125 57.75 C-47.28986403 51.26836973 -48.69431734 46.50340537 -47 39 C-45.01716615 33.49212819 -41.80944735 30.15982222 -37 27 C-29.87950598 23.95765824 -23.01904643 23.61348945 -15.375 23.8125 C-14.37082031 23.82603516 -13.36664063 23.83957031 -12.33203125 23.85351562 C-9.88743136 23.88843848 -7.44402266 23.93747252 -5 24 C-5.42423244 22.53775201 -5.86490245 21.08026588 -6.3125 19.625 C-6.55613281 18.81289062 -6.79976563 18.00078125 -7.05078125 17.1640625 C-7.91368185 14.66815371 -7.91368185 14.66815371 -11 13 C-19.02450716 11.07520268 -25.68021851 12.34656409 -33 16 C-33.66 16.66 -34.32 17.32 -35 18 C-37.57584863 17.78011048 -38.77199179 17.2039523 -40.703125 15.4765625 C-41.21359375 14.86554688 -41.7240625 14.25453125 -42.25 13.625 C-42.77078125 13.01914063 -43.2915625 12.41328125 -43.828125 11.7890625 C-45 10 -45 10 -45 7 C-33.97225259 -3.12987236 -13.70123682 -8.17468751 0 0 Z " fill="#374753" transform="translate(516,144)"/>
<path d="M0 0 C5.75592718 4.67232146 9.03167376 10.5791844 11.75 17.375 C11.75 22.985 11.75 28.595 11.75 34.375 C-3.43 34.375 -18.61 34.375 -34.25 34.375 C-30.50457785 43.4665512 -30.50457785 43.4665512 -23.48046875 47.81640625 C-15.70177091 49.76448644 -10.25550516 48.44238661 -3.37890625 44.46875 C-1.25 43.375 -1.25 43.375 1.75 43.375 C3.79296875 44.90625 3.79296875 44.90625 5.9375 46.875 C6.65292969 47.5246875 7.36835937 48.174375 8.10546875 48.84375 C8.64816406 49.3490625 9.19085937 49.854375 9.75 50.375 C7.34737279 55.93708199 2.85346592 58.97427461 -2.578125 61.42578125 C-12.38772005 64.76420795 -22.73270909 64.49185446 -32.25 60.375 C-40.43813575 56.29439945 -45.82987077 50.04085437 -49.41796875 41.640625 C-51.75564797 32.46550845 -51.88883261 20.0942129 -47.64453125 11.515625 C-42.03863837 2.91050091 -35.56496663 -3.12675712 -25.34375 -5.30859375 C-16.27363909 -6.6792635 -7.65415056 -5.24856038 0 0 Z " fill="#364653" transform="translate(647.25,145.625)"/>
<path d="M0 0 C3.125 2.25 3.125 2.25 5 4 C3.5140084 8.59306496 1.14985318 11.43569245 -2 15 C-2.92941406 14.6390625 -3.85882812 14.278125 -4.81640625 13.90625 C-6.06487858 13.4368995 -7.31358949 12.96818327 -8.5625 12.5 C-10.38974609 11.80390625 -10.38974609 11.80390625 -12.25390625 11.09375 C-17.2839814 9.62511492 -21.19975313 9.080725 -25.9375 11.5 C-26.9584375 12.2425 -26.9584375 12.2425 -28 13 C-27.67 14.65 -27.34 16.3 -27 18 C-25.96101562 18.31453125 -24.92203125 18.6290625 -23.8515625 18.953125 C1.01622202 26.54688851 1.01622202 26.54688851 5.8125 35.3125 C7.68140679 41.11594741 7.88529016 45.58581967 5.4375 51.125 C2.61393981 56.2114134 -1.41810624 59.67756661 -6.5625 62.3125 C-17.33645522 65.35130788 -28.66114806 64.74816902 -38.73046875 59.60546875 C-44.52005924 55.96971638 -44.52005924 55.96971638 -45.953125 53.07421875 C-46.02247694 50.00539546 -44.63532595 48.93192205 -42.5625 46.75 C-41.57443359 45.69039062 -41.57443359 45.69039062 -40.56640625 44.609375 C-40.04949219 44.07828125 -39.53257812 43.5471875 -39 43 C-36.52969729 43.97063221 -34.08699612 44.95993792 -31.67578125 46.0703125 C-25.87428814 48.6594086 -20.36952886 50.24038194 -14 49 C-11.72759098 47.72200359 -11.72759098 47.72200359 -10 46 C-9.25 43.5 -9.25 43.5 -10 41 C-13.84071109 38.16278297 -17.70896674 37.15813151 -22.3125 36.0625 C-31.13273193 33.82912409 -37.56066888 31.58209792 -43 24 C-45.12900578 19.74198845 -44.5884634 14.61151603 -44 10 C-41.32794384 3.52026382 -37.30953292 -0.19576315 -31 -3 C-21.51569371 -6.19769042 -8.53649588 -5.03347167 0 0 Z " fill="#384955" transform="translate(582,145)"/>
<path d="M0 0 C1.1034375 -0.00515625 2.206875 -0.0103125 3.34375 -0.015625 C6.5 0.25 6.5 0.25 11.5 2.25 C11.5 6.87 11.5 11.49 11.5 16.25 C8.50520833 15.859375 5.51041667 15.46875 2.515625 15.078125 C-0.57201892 14.98323892 -0.57201892 14.98323892 -2.84375 16.9375 C-4.67139707 19.48930912 -5.06767589 20.90049005 -5.25 24 C-5.3325 25.4025 -5.415 26.805 -5.5 28.25 C-0.22 28.25 5.06 28.25 10.5 28.25 C10.5 32.87 10.5 37.49 10.5 42.25 C5.22 42.25 -0.06 42.25 -5.5 42.25 C-5.5 59.08 -5.5 75.91 -5.5 93.25 C-10.78 93.25 -16.06 93.25 -21.5 93.25 C-21.5 76.42 -21.5 59.59 -21.5 42.25 C-25.13 42.25 -28.76 42.25 -32.5 42.25 C-32.5 37.63 -32.5 33.01 -32.5 28.25 C-28.87 28.25 -25.24 28.25 -21.5 28.25 C-21.55800781 27.3321875 -21.61601563 26.414375 -21.67578125 25.46875 C-21.96233886 17.67438301 -21.92875941 12.13983213 -16.5 6.25 C-11.44506643 1.44781311 -6.91830285 -0.03232852 0 0 Z " fill="#374854" transform="translate(697.5,113.75)"/>
<path d="M0 0 C0 4.62 0 9.24 0 14 C-3.0628125 14.3403125 -3.0628125 14.3403125 -6.1875 14.6875 C-10.42938783 15.34683691 -12.64347512 15.74833538 -16.1875 18.25 C-19.92957122 23.9276253 -20.31892169 29.30734441 -20.4140625 35.8984375 C-20.43342865 36.73339752 -20.4527948 37.56835754 -20.4727478 38.42861938 C-20.53219614 41.07731126 -20.57878894 43.72604743 -20.625 46.375 C-20.66321182 48.17840364 -20.70226539 49.98178966 -20.7421875 51.78515625 C-20.83786881 56.18995984 -20.92202711 60.5948488 -21 65 C-25.95 64.67 -30.9 64.34 -36 64 C-36 43.54 -36 23.08 -36 2 C-31.71 2 -27.42 2 -23 2 C-22.67 4.64 -22.34 7.28 -22 10 C-21.01 10 -20.02 10 -19 10 C-18.835 9.278125 -18.67 8.55625 -18.5 7.8125 C-14.53690911 0.38170457 -7.76246549 -0.60644262 0 0 Z " fill="#354450" transform="translate(824,142)"/>
<path d="M0 0 C1.43307623 0.44113184 2.86318105 0.89192313 4.29199219 1.34667969 C5.48704376 1.72164581 5.48704376 1.72164581 6.70623779 2.10418701 C10.21483475 3.47444532 12.60291401 5.63020355 15.25 8.25 C15.76087158 8.73726562 16.27174316 9.22453125 16.7980957 9.7265625 C22.24384906 15.02257734 26.84908428 19.87514277 27.13803101 27.77268982 C27.14955257 29.38025164 27.15569752 30.98785714 27.15771484 32.59545898 C27.16533592 33.91319557 27.16533592 33.91319557 27.17311096 35.2575531 C27.18381775 37.16783588 27.19243672 39.07813123 27.19923019 40.98843193 C27.2110332 44.02067944 27.2304936 47.05278543 27.25234985 50.0849762 C27.31389128 58.70756244 27.36784338 67.33013664 27.40136719 75.95288086 C27.4224268 81.22790211 27.4578278 86.50266903 27.50212479 91.77754402 C27.51620476 93.77996875 27.52498896 95.78243852 27.52817917 97.7849102 C27.55973643 115.70954163 29.22879043 131.4659135 42.0234375 145.21875 C50.81192073 153.13880604 61.21034759 156.58039677 72.875 156.4375 C73.75341553 156.42920166 74.63183105 156.42090332 75.53686523 156.41235352 C82.33256268 156.23568676 87.95750184 155.26179439 94 152 C95.43085938 151.23623047 95.43085938 151.23623047 96.890625 150.45703125 C106.84726482 144.64011734 112.2949512 136.86551546 116 126 C117.2959666 120.72213216 118.17157505 115.36792427 119 110 C119.33 110 119.66 110 120 110 C120.66975576 122.82458251 117.97702332 132.78816859 110 143 C101.42360423 152.35312596 90.24381408 158.68896653 77.44921875 159.3359375 C63.95053626 159.5911588 53.83713037 157.51774453 43 149 C42.32195312 148.47148437 41.64390625 147.94296875 40.9453125 147.3984375 C36.26185739 143.26168921 33.42039374 138.568985 30.625 133.0625 C30.29105225 132.40652832 29.95710449 131.75055664 29.61303711 131.07470703 C25.79476613 123.11989397 24.70003226 115.32410642 24.76049805 106.56811523 C24.75848389 105.67256927 24.75646973 104.77702332 24.75439453 103.8543396 C24.7508719 101.92613978 24.75158762 99.99792835 24.75617027 98.06973076 C24.76180308 95.0128296 24.75254128 91.95630226 24.7389679 88.89942932 C24.70199691 80.21394055 24.68331099 71.52858302 24.69458008 62.84301758 C24.70044219 57.51563112 24.68212387 52.18877597 24.64869118 46.86149788 C24.64075966 44.839005 24.64198349 42.81645388 24.65271568 40.79397392 C24.66709935 37.96289383 24.65071598 35.13347921 24.62768555 32.30249023 C24.63945328 31.47577316 24.65122101 30.64905609 24.66334534 29.79728699 C24.54491281 22.34094469 21.45463409 17.70359856 16.53515625 12.28515625 C15.31119141 11.18494141 15.31119141 11.18494141 14.0625 10.0625 C13.24910156 9.31097656 12.43570313 8.55945313 11.59765625 7.78515625 C8.64945026 5.7590959 6.49995998 5.4790877 3 5 C2.92960559 19.73503989 2.87686393 34.47005721 2.84456348 49.20523167 C2.82916049 56.04858111 2.80819837 62.89182547 2.77368164 69.73510742 C2.7403396 76.34870588 2.72310792 82.9622245 2.71536827 89.57591057 C2.709858 92.08946378 2.69909849 94.60301155 2.68280983 97.11651802 C2.25098971 121.00284656 2.25098971 121.00284656 9.75 143.375 C10.10215576 144.04289551 10.45431152 144.71079102 10.81713867 145.39892578 C20.24508172 162.83796915 35.32355801 174.61683544 54.125 180.5 C74.63415562 185.34214062 95.07968329 181.75317385 113 171 C127.60938078 161.41687204 137.8094782 146.0359299 141.9375 129.125 C142.97742677 123.78537603 143.64469631 118.42757014 144 113 C142.2365625 112.9071875 142.2365625 112.9071875 140.4375 112.8125 C133.33292168 112.06105422 126.68866796 109.38818052 120 107 C120 106.34 120 105.68 120 105 C124.19024927 105.59771758 127.9552371 106.57664191 131.9375 108 C136.35138991 109.52070585 140.37736438 110.48637382 145 111 C146.62701195 112.62701195 146.24940591 114.37353705 146.3125 116.625 C146.10239323 132.86625303 138.72760791 149.01032057 128 161 C127.34515625 161.74765625 126.6903125 162.4953125 126.015625 163.265625 C112.86926436 177.37157401 94.67292796 184.64948032 75.62915039 185.3347168 C57.2649851 185.6540431 39.11150441 180.13420579 25.4375 167.5 C23.57851817 165.70419044 21.79016148 163.86692185 20 162 C19.31292969 161.29746094 18.62585938 160.59492188 17.91796875 159.87109375 C4.15297879 145.02649674 -0.35990211 126.47550229 -0.22705078 106.71386719 C-0.22734283 105.55143997 -0.22763489 104.38901276 -0.22793579 103.19136047 C-0.22655526 99.39311963 -0.21105459 95.59508108 -0.1953125 91.796875 C-0.19157782 89.14601307 -0.18863447 86.49516198 -0.18673706 83.84429932 C-0.18055458 77.60791296 -0.1641882 71.37159787 -0.14403808 65.1352427 C-0.12157761 58.02749184 -0.1106603 50.91973733 -0.10064721 43.81195974 C-0.07981858 29.20793663 -0.04470643 14.60396932 0 0 Z " fill="#232F37" transform="translate(137,127)"/>
<path d="M0 0 C5.00360304 2.86322501 7.26636282 5.96595381 9.70703125 11.12890625 C10.0834375 11.73863281 10.45984375 12.34835938 10.84765625 12.9765625 C12.64575143 17.47997361 10.89362788 22.58941352 9.70703125 27.12890625 C6.96139134 32.43083159 3.44643618 36.21577127 -2.29296875 38.12890625 C-8.26186156 38.66312729 -13.22890573 38.66197347 -18.29296875 35.12890625 C-23.27928674 30.14258826 -24.96204826 25.70284753 -25.60546875 18.75390625 C-25.04442778 12.24583103 -23.82479263 7.06499622 -18.79296875 2.62890625 C-13.4224007 -1.6110159 -6.41373178 -2.4365625 0 0 Z " fill="#000000" transform="translate(752.29296875,155.87109375)"/>
<path d="M0 0 C14.72077561 12.70807815 22.82626646 28.97793453 25.45703125 48.12109375 C25.71107524 52.27385855 25.71124126 56.40962164 25.68408203 60.5690918 C25.68437408 61.7606337 25.68466614 62.9521756 25.68496704 64.17982483 C25.68382192 67.41054671 25.67387169 70.64108967 25.65981913 73.87177634 C25.64721832 77.26166219 25.64613397 80.65155247 25.64376831 84.04145813 C25.63758077 90.44433187 25.62120733 96.84713638 25.60106933 103.24997979 C25.57862488 110.54633778 25.56769553 117.84269928 25.55767846 125.13908327 C25.53683831 140.13312517 25.50171604 155.1271025 25.45703125 170.12109375 C24.79703125 170.12109375 24.13703125 170.12109375 23.45703125 170.12109375 C23.4546429 169.50008978 23.45225454 168.87908581 23.44979382 168.23926353 C23.39044425 153.07100471 23.31476838 137.90292052 23.22131634 122.73483849 C23.1765085 115.39941223 23.13706005 108.0640329 23.1105957 100.72851562 C23.08749314 94.32871581 23.05396067 87.92906639 23.00832969 81.52938616 C22.98456108 78.1463731 22.96572601 74.76350746 22.95941734 71.38041306 C22.8995543 47.98679359 21.47255919 29.09948267 6.45703125 10.12109375 C5.69390625 9.06921875 4.93078125 8.01734375 4.14453125 6.93359375 C-8.44562275 -6.24214881 -26.67910314 -13.83053509 -44.77490234 -14.42407227 C-63.90784314 -14.54123966 -80.91349776 -9.6973789 -95.54296875 3.12109375 C-96.15785156 3.65347656 -96.77273437 4.18585937 -97.40625 4.734375 C-111.70118899 18.01503894 -117.67025046 37.19213507 -118.54296875 56.12109375 C-117.32609375 56.20359375 -116.10921875 56.28609375 -114.85546875 56.37109375 C-108.5066635 57.05059847 -102.57787045 59.11567819 -96.54296875 61.12109375 C-96.45660156 60.18910156 -96.37023437 59.25710937 -96.28125 58.296875 C-94.53345206 42.43841479 -89.59540454 28.51759262 -77.09765625 17.9765625 C-65.97777246 9.9001943 -53.93736396 6.4825684 -40.37109375 8.62109375 C-27.3335005 11.3143055 -17.00231786 16.79047397 -8.72265625 27.46875 C-0.83748818 39.65311775 0.03464593 51.92504159 -0.02654839 65.98163033 C-0.03934067 68.9393159 -0.02774213 71.89609016 -0.01051331 74.85374451 C0.01602302 80.06869022 0.02178865 85.28340717 0.02038574 90.49841309 C0.01814638 98.84580779 0.03256388 107.19291982 0.0759716 115.540205 C0.08571468 118.43382466 0.07714448 121.32698693 0.067276 124.22059631 C-0.1705496 141.31941882 -0.1705496 141.31941882 6.73046875 156.52734375 C10.5205276 160.02585961 15.0282083 162.52275954 19.45703125 165.12109375 C20.44703125 165.78109375 21.43703125 166.44109375 22.45703125 167.12109375 C22.12703125 167.78109375 21.79703125 168.44109375 21.45703125 169.12109375 C11.97432331 164.13839007 4.35414891 158.91532907 -0.54296875 149.12109375 C-1.78619477 144.9206734 -1.69519577 140.77401759 -1.70068359 136.42797852 C-1.70576431 135.55094772 -1.71084503 134.67391693 -1.71607971 133.77030945 C-1.72677407 131.86604877 -1.73539791 129.96177559 -1.74219894 128.05749702 C-1.75402041 125.03329628 -1.77348537 122.00923627 -1.7953186 118.98509216 C-1.8567989 110.38635014 -1.91080028 101.78762069 -1.94433594 93.1887207 C-1.9654124 87.92550983 -2.0008252 82.66255306 -2.04509354 77.39948845 C-2.0591589 75.40347241 -2.06795433 73.40741138 -2.07114792 71.41134834 C-2.1020407 53.93951983 -3.84122999 39.78372673 -13.73046875 24.80859375 C-24.6538063 14.37073787 -37.20567928 10.75613244 -51.9765625 10.91015625 C-62.09137644 11.50840373 -70.68049108 15.92168121 -78.29296875 22.49609375 C-89.95253198 36.09891752 -92.57393956 48.42356072 -93.54296875 66.12109375 C-94.455625 65.64929688 -94.455625 65.64929688 -95.38671875 65.16796875 C-103.5285599 61.19283454 -111.75504458 59.09479316 -120.54296875 57.12109375 C-121.81507389 38.46355165 -115.17808605 22.20629097 -103.79296875 7.74609375 C-76.52301954 -23.1764514 -31.78815799 -24.44876319 0 0 Z " fill="#1E272D" transform="translate(257.54296875,24.87890625)"/>
<path d="M0 0 C4.92502359 2.2866181 7.39629043 5.27474929 10 10 C11.9700276 16.4025897 11.30134312 22.78637357 9 29 C6.14668058 33.64985387 3.17067543 35.36261945 -2 37 C-7.33466125 37.75325004 -11.48516859 37.00988761 -16 34 C-20.85571664 29.31488962 -22.13337986 25.34916311 -22.3125 18.75 C-22.22638286 11.57357188 -20.01971511 7.42365813 -15.5 2 C-11.01577059 -1.37461142 -5.29108747 -0.77767357 0 0 Z " fill="#000000" transform="translate(867,155)"/>
<path d="M0 0 C0.33 0 0.66 0 1 0 C1.01213028 1.97958458 1.01213028 1.97958458 1.02450562 3.99916077 C1.10227956 16.48857847 1.19009552 28.97789141 1.28752708 41.46717167 C1.33729034 47.88670286 1.38362091 54.30621917 1.421875 60.72583008 C1.45898158 66.93102962 1.50540762 73.13609823 1.55806351 79.34118462 C1.57647354 81.698396 1.59162984 84.05563531 1.60334396 86.41288948 C1.7429109 113.54834083 3.79518477 137.79986488 23.36328125 158.5 C37.79300453 172.52355329 55.32742437 178.68342991 75.30004883 178.3984375 C94.71644502 177.7485754 111.71215178 170.59138699 125.32421875 156.61328125 C137.31265122 142.99653877 142.82488203 126.95093997 144 109 C142.2365625 108.9071875 142.2365625 108.9071875 140.4375 108.8125 C133.33292168 108.06105422 126.68866796 105.38818052 120 103 C120 102.34 120 101.68 120 101 C124.19024927 101.59771758 127.9552371 102.57664191 131.9375 104 C136.35138991 105.52070585 140.37736438 106.48637382 145 107 C146.62701195 108.62701195 146.24940591 110.37353705 146.3125 112.625 C146.10239323 128.86625303 138.72760791 145.01032057 128 157 C127.34515625 157.74765625 126.6903125 158.4953125 126.015625 159.265625 C112.86926436 173.37157401 94.67292796 180.64948032 75.62915039 181.3347168 C57.2649851 181.6540431 39.11150441 176.13420579 25.4375 163.5 C23.57851817 161.70419044 21.79016148 159.86692185 20 158 C19.31292969 157.29746094 18.62585938 156.59492188 17.91796875 155.87109375 C4.27305138 141.15598679 -0.36368783 122.69507407 -0.22705078 103.08105469 C-0.22748886 101.39593529 -0.22748886 101.39593529 -0.22793579 99.67677307 C-0.22655598 96.00839177 -0.21105882 92.34022029 -0.1953125 88.671875 C-0.19157757 86.11069856 -0.18873287 83.54952067 -0.18673706 80.98834229 C-0.17991269 74.96444467 -0.16419221 68.94063544 -0.14403808 62.91677308 C-0.12157233 56.05085596 -0.11065899 49.18493504 -0.10064721 42.31899023 C-0.07982235 28.2126195 -0.04471357 14.10631382 0 0 Z " fill="#1D262C" transform="translate(137,131)"/>
<path d="M0 0 C3.67106094 3.00142822 6.979687 6.28777699 10.26367188 9.70410156 C11.02421875 10.46851562 11.78476563 11.23292969 12.56835938 12.02050781 C17.61289424 17.34106439 21.0284696 23.14791514 24.26367188 29.70410156 C20.46473741 28.43779007 20.16768371 27.240299 18.20117188 23.82910156 C8.01836177 7.41755793 -6.7160665 -3.49868657 -25.17382812 -9.10839844 C-43.35397997 -13.25101116 -63.69102866 -10.32377503 -79.58007812 -0.54589844 C-95.40516862 10.47832191 -106.34105979 25.0438352 -110.34375 44.1184082 C-113.35408598 63.94581387 -110.73891168 82.80882997 -99.73632812 99.70410156 C-87.81479009 115.32619137 -71.60516729 125.0667134 -52.21289062 128.09863281 C-50.39194268 128.33823123 -48.5645395 128.52831201 -46.73632812 128.70410156 C-48.73632813 130.70410156 -48.73632813 130.70410156 -50.66210938 130.82128906 C-69.30680505 128.92935595 -85.67893338 120.11274493 -98.03320312 106.09863281 C-112.08158234 88.63244322 -115.20170501 69.65102493 -113.73632812 47.70410156 C-111.56605403 30.07750989 -101.47699768 13.5118769 -87.87695312 2.32128906 C-79.3630945 -4.11071362 -70.94374873 -8.1626854 -60.73632812 -11.29589844 C-59.99125 -11.54339844 -59.24617188 -11.79089844 -58.47851562 -12.04589844 C-39.32945674 -17.45269154 -15.74174082 -11.74875707 0 0 Z " fill="#20292F" transform="translate(167.736328125,101.2958984375)"/>
<path d="M0 0 C3.125 2.25 3.125 2.25 5 4 C3.5140084 8.59306496 1.14985318 11.43569245 -2 15 C-2.92941406 14.6390625 -3.85882812 14.278125 -4.81640625 13.90625 C-6.06487858 13.4368995 -7.31358949 12.96818327 -8.5625 12.5 C-10.38974609 11.80390625 -10.38974609 11.80390625 -12.25390625 11.09375 C-17.2839814 9.62511492 -21.19975313 9.080725 -25.9375 11.5 C-26.9584375 12.2425 -26.9584375 12.2425 -28 13 C-27.67 14.65 -27.34 16.3 -27 18 C-25.96101562 18.31453125 -24.92203125 18.6290625 -23.8515625 18.953125 C1.01622202 26.54688851 1.01622202 26.54688851 5.8125 35.3125 C7.68140679 41.11594741 7.88529016 45.58581967 5.4375 51.125 C2.61393981 56.2114134 -1.41810624 59.67756661 -6.5625 62.3125 C-12.20627966 63.90433529 -18.14284722 64.69114403 -24 64 C-24.66 63.34 -25.32 62.68 -26 62 C-24.62328125 61.94392578 -24.62328125 61.94392578 -23.21875 61.88671875 C-13.97677276 61.39161283 -5.87907394 60.87907394 1 54 C4.72059141 48.73985353 4.7882524 43.21328359 4 37 C1.79036921 31.57636079 -1.83107446 29.52906567 -6.94140625 27.15234375 C-11.68615364 25.36473139 -16.5486293 24.21019607 -21.484375 23.08984375 C-25.36240438 21.88765464 -27.76051491 20.38986553 -31 18 C-30.64128257 11.66265865 -30.64128257 11.66265865 -28.125 9.0625 C-20.14114304 6.34798863 -12.61428035 7.93842478 -5 11 C-4.01 11.33 -3.02 11.66 -2 12 C-1.34 10.88625 -0.68 9.7725 0 8.625 C0.37125 7.99851563 0.7425 7.37203125 1.125 6.7265625 C2.15068348 5.02527333 2.15068348 5.02527333 2 3 C-9.1351578 -1.60627031 -19.05243595 -3.84806476 -30.703125 0.0234375 C-35.27593239 1.96765833 -38.01543722 4.63431614 -40.9375 8.6875 C-42.39923357 13.24466937 -42.2060331 17.37432874 -41 22 C-40.03219 23.35687935 -39.03636919 24.69473502 -38 26 C-38 26.66 -38 27.32 -38 28 C-34.47453208 29.4448639 -30.92779625 30.73561914 -27.3125 31.9375 C-25.74435547 32.46150391 -25.74435547 32.46150391 -24.14453125 32.99609375 C-21.27853081 33.91107774 -18.40299123 34.71296682 -15.5 35.5 C-11.75863487 36.6326516 -9.05941263 37.46957834 -7 41 C-7 44.5625 -7 44.5625 -8 48 C-10.98611339 50.98611339 -13.86365508 51.90723715 -18.0625 52.25 C-25.74824328 51.7620163 -32.87359995 48.7713778 -40 46 C-41.41898766 48.64877696 -42.31911019 51.08014819 -43 54 C-35.22592086 58.03200346 -35.22592086 58.03200346 -27 61 C-28.485 61.99 -28.485 61.99 -30 63 C-36.30728038 61.59958835 -41.372998 58.38347558 -46 54 C-45.40716379 50.60807637 -44.23256811 48.7892243 -41.9375 46.25 C-41.11572266 45.32960938 -41.11572266 45.32960938 -40.27734375 44.390625 C-39.85582031 43.93171875 -39.43429687 43.4728125 -39 43 C-36.52969729 43.97063221 -34.08699612 44.95993792 -31.67578125 46.0703125 C-25.87428814 48.6594086 -20.36952886 50.24038194 -14 49 C-11.72759098 47.72200359 -11.72759098 47.72200359 -10 46 C-9.25 43.5 -9.25 43.5 -10 41 C-13.84071109 38.16278297 -17.70896674 37.15813151 -22.3125 36.0625 C-31.13273193 33.82912409 -37.56066888 31.58209792 -43 24 C-45.12900578 19.74198845 -44.5884634 14.61151603 -44 10 C-41.32794384 3.52026382 -37.30953292 -0.19576315 -31 -3 C-21.51569371 -6.19769042 -8.53649588 -5.03347167 0 0 Z " fill="#202A30" transform="translate(582,145)"/>
<path d="M0 0 C1.1034375 -0.00515625 2.206875 -0.0103125 3.34375 -0.015625 C6.5 0.25 6.5 0.25 11.5 2.25 C11.5 6.87 11.5 11.49 11.5 16.25 C8.50520833 15.859375 5.51041667 15.46875 2.515625 15.078125 C-0.57201892 14.98323892 -0.57201892 14.98323892 -2.84375 16.9375 C-4.67139707 19.48930912 -5.06767589 20.90049005 -5.25 24 C-5.3325 25.4025 -5.415 26.805 -5.5 28.25 C-0.22 28.25 5.06 28.25 10.5 28.25 C10.5 32.87 10.5 37.49 10.5 42.25 C5.22 42.25 -0.06 42.25 -5.5 42.25 C-5.5 59.08 -5.5 75.91 -5.5 93.25 C-10.78 93.25 -16.06 93.25 -21.5 93.25 C-21.5 76.42 -21.5 59.59 -21.5 42.25 C-25.13 42.25 -28.76 42.25 -32.5 42.25 C-32.5 37.63 -32.5 33.01 -32.5 28.25 C-28.87 28.25 -25.24 28.25 -21.5 28.25 C-21.55800781 27.3321875 -21.61601563 26.414375 -21.67578125 25.46875 C-21.96233886 17.67438301 -21.92875941 12.13983213 -16.5 6.25 C-11.44506643 1.44781311 -6.91830285 -0.03232852 0 0 Z M-16.5 8.25 C-19.89697021 12.70956927 -20.0291553 16.66520767 -20.1875 22.0625 C-20.22166016 22.85076172 -20.25582031 23.63902344 -20.29101562 24.45117188 C-20.37299875 26.38363119 -20.43818845 28.31679035 -20.5 30.25 C-23.8 30.25 -27.1 30.25 -30.5 30.25 C-30.5 33.55 -30.5 36.85 -30.5 40.25 C-27.2 40.58 -23.9 40.91 -20.5 41.25 C-20.17 58.08 -19.84 74.91 -19.5 92.25 C-15.54 92.25 -11.58 92.25 -7.5 92.25 C-7.5 75.09 -7.5 57.93 -7.5 40.25 C-1.89 40.25 3.72 40.25 9.5 40.25 C9.520625 38.620625 9.54125 36.99125 9.5625 35.3125 C9.57410156 34.39597656 9.58570313 33.47945312 9.59765625 32.53515625 C9.75949049 30.28406673 9.75949049 30.28406673 8.5 29.25 C5.97403741 29.01346477 3.46892793 28.82826308 0.9375 28.6875 C-0.12887695 28.62272461 -0.12887695 28.62272461 -1.21679688 28.55664062 C-2.97761912 28.45028223 -4.7387832 28.34961154 -6.5 28.25 C-7.12619962 19.1353167 -7.12619962 19.1353167 -4.6875 15.6875 C-1.3356204 13.48483626 1.2746145 13.13079151 5.1875 13.1875 C7.3221875 13.2184375 7.3221875 13.2184375 9.5 13.25 C9.5 9.95 9.5 6.65 9.5 3.25 C1.12900992 -0.93549504 -9.96385107 1.51578596 -16.5 8.25 Z " fill="#222C34" transform="translate(697.5,113.75)"/>
<path d="M0 0 C20.24333328 0 35.0893182 3.35691478 51 16 C52.26070313 16.96486328 52.26070313 16.96486328 53.546875 17.94921875 C66.60125645 28.86251534 75.26322636 46.90308236 76.87109375 63.734375 C78.04814479 84.42193872 73.97101448 101.67663585 61 118 C60.03513672 119.26070312 60.03513672 119.26070312 59.05078125 120.546875 C51.29131572 129.82867377 40.91738136 135.26956439 30 140 C29.34 140 28.68 140 28 140 C28 139.34 28 138.68 28 138 C29.09054687 137.61521484 29.09054687 137.61521484 30.203125 137.22265625 C46.61963486 130.97175442 60.44946991 118.99716704 68 103 C75.83157602 83.18742105 76.67745598 62.54687223 68.26953125 42.80078125 C64.41697487 34.32555115 59.77457456 27.47374976 53 21 C52.38769531 20.36835937 51.77539062 19.73671875 51.14453125 19.0859375 C37.69529124 6.06684375 18.95099265 2.62985939 1 2 C1 9.92 1 17.84 1 26 C4.0628125 25.8453125 4.0628125 25.8453125 7.1875 25.6875 C20.74462101 25.72854073 30.30833536 31.54091269 39.80859375 40.75390625 C43.73241522 44.97128045 48 51.038288 48 57 C47.34 57 46.68 57 46 57 C45.62488281 56.20335937 45.24976563 55.40671875 44.86328125 54.5859375 C39.18775186 42.83458949 33.17423464 35.7572738 20.875 30.6875 C13.99981011 28.33057146 7.2184006 28.26489543 0 28 C0 18.76 0 9.52 0 0 Z " fill="#1E272D" transform="translate(289,88)"/>
<path d="M0 0 C16.30355694 12.53931741 25.28901288 29.94330004 28.0625 50.125 C28.31654399 54.2777648 28.31671001 58.41352789 28.28955078 62.57299805 C28.28984283 63.76453995 28.29013489 64.95608185 28.29043579 66.18373108 C28.28929067 69.41445296 28.27934044 72.64499592 28.26528788 75.87568259 C28.25268707 79.26556844 28.25160272 82.65545872 28.24923706 86.04536438 C28.24304952 92.44823812 28.22667608 98.85104263 28.20653808 105.25388604 C28.18409363 112.55024403 28.17316428 119.84660553 28.16314721 127.14298952 C28.14230706 142.13703142 28.10718479 157.13100875 28.0625 172.125 C27.4025 172.125 26.7425 172.125 26.0625 172.125 C26.06011165 171.50399603 26.05772329 170.88299206 26.05526257 170.24316978 C25.995913 155.07491096 25.92023713 139.90682677 25.82678509 124.73874474 C25.78197725 117.40331848 25.7425288 110.06793915 25.71606445 102.73242188 C25.69296189 96.33262206 25.65942942 89.93297264 25.61379844 83.53329241 C25.59002983 80.15027935 25.57119476 76.76741371 25.56488609 73.38431931 C25.50502305 49.99069984 24.07802794 31.10338892 9.0625 12.125 C8.299375 11.073125 7.53625 10.02125 6.75 8.9375 C-5.03602121 -3.39670824 -22.56277795 -11.53892839 -39.64453125 -12.22265625 C-47.82340168 -12.33862531 -55.83741447 -12.02810436 -63.9375 -10.875 C-64.2675 -11.535 -64.5975 -12.195 -64.9375 -12.875 C-41.73362665 -18.88050619 -19.46724382 -13.38542706 0 0 Z " fill="#222C33" transform="translate(254.9375,22.875)"/>
<path d="M0 0 C2.88437779 1.29299694 4.87219421 2.65941363 7 5 C9.70356623 3.9662835 12.18887895 2.89206917 14.70703125 1.453125 C18.54911898 -0.24231585 21.37608187 -0.43327556 25.5625 -0.4375 C26.84253906 -0.45683594 28.12257813 -0.47617188 29.44140625 -0.49609375 C33.53841286 0.07505865 35.1073059 1.1073059 38 4 C40.20914 7.31371 40.22481553 8.3446021 40.125 12.1875 C40.10695313 13.08855469 40.08890625 13.98960937 40.0703125 14.91796875 C40.04710937 15.60503906 40.02390625 16.29210937 40 17 C38.51113281 16.85691406 38.51113281 16.85691406 36.9921875 16.7109375 C21.17784984 15.17980104 21.17784984 15.17980104 6.375 19.75 C1.63835218 24.23735057 -0.65694942 28.20882392 -1.09375 34.6953125 C-0.90845018 39.25059977 0.32843984 43.06295676 3.328125 46.5390625 C8.76428268 51.43160441 14.35026902 52.41986195 21.41015625 52.25 C28.77360975 51.53919906 33.59868526 48.87435721 39 44 C39.66 44 40.32 44 41 44 C41 46.31 41 48.62 41 51 C44.96 51 48.92 51 53 51 C52.88147313 44.84346268 52.75720604 38.68707759 52.62768555 32.53076172 C52.58445106 30.43769456 52.54276815 28.34459474 52.50268555 26.25146484 C52.44470399 23.23785574 52.38109058 20.22440929 52.31640625 17.2109375 C52.29969376 16.27945892 52.28298126 15.34798035 52.26576233 14.38827515 C52.16248153 9.82905748 51.91225355 5.48659929 51 1 C51.66 1 52.32 1 53 1 C54.85096303 7.27662205 55.26840733 12.88348126 55.1953125 19.40625 C55.1924826 20.3715564 55.18965271 21.33686279 55.18673706 22.3314209 C55.17562124 25.38774478 55.15053285 28.44376601 55.125 31.5 C55.11495908 33.58332907 55.10583518 35.66666278 55.09765625 37.75 C55.07571011 42.83344837 55.04124017 47.91667303 55 53 C50.05 53 45.1 53 40 53 C39.505 50.03 39.505 50.03 39 47 C38.195625 47.763125 37.39125 48.52625 36.5625 49.3125 C30.69298641 54.1036611 24.94062518 55.29355108 17.4375 54.9375 C10.58579775 54.19309777 5.64998322 52.57836205 0.6875 47.75 C-3.28986403 41.26836973 -4.69431734 36.50340537 -3 29 C-1.01716615 23.49212819 2.19055265 20.15982222 7 17 C14.12049402 13.95765824 20.98095357 13.61348945 28.625 13.8125 C29.62917969 13.82603516 30.63335937 13.83957031 31.66796875 13.85351562 C34.11256864 13.88843848 36.55597734 13.93747252 39 14 C38.57576756 12.53775201 38.13509755 11.08026588 37.6875 9.625 C37.44386719 8.81289062 37.20023437 8.00078125 36.94921875 7.1640625 C36.08631815 4.66815371 36.08631815 4.66815371 33 3 C24.97549284 1.07520268 18.31978149 2.34656409 11 6 C10.34 6.66 9.68 7.32 9 8 C6.37424814 7.79519136 5.29868104 7.32776314 3.515625 5.37109375 C3.09796875 4.73300781 2.6803125 4.09492188 2.25 3.4375 C1.82203125 2.79683594 1.3940625 2.15617188 0.953125 1.49609375 C0.48132813 0.75552734 0.48132813 0.75552734 0 0 Z " fill="#202A30" transform="translate(472,154)"/>
<path d="M0 0 C7.56276399 5.38560466 12.88317595 13.31073809 14.4453125 22.52734375 C15.32720972 34.71355988 13.82660221 43.84110475 5.75390625 53.26171875 C-1.43619845 60.31799747 -9.63078589 63.50504157 -19.5546875 63.77734375 C-28.86239797 63.54963218 -37.36150403 60.7737296 -44.2421875 54.33984375 C-50.44444004 47.75438567 -53.72454746 40.79558035 -53.6171875 31.77734375 C-53.60816406 30.7925 -53.59914063 29.80765625 -53.58984375 28.79296875 C-53.57824219 28.0453125 -53.56664062 27.29765625 -53.5546875 26.52734375 C-53.2246875 26.52734375 -52.8946875 26.52734375 -52.5546875 26.52734375 C-52.41933594 27.56632812 -52.28398438 28.6053125 -52.14453125 29.67578125 C-50.65852206 39.77240159 -48.49082305 47.59260846 -40.30859375 54.39453125 C-31.43930035 60.64641091 -22.86139311 61.51194492 -12.21484375 60.25 C-3.37670181 58.41236653 3.41124496 52.82540991 8.4453125 45.52734375 C12.56766028 38.21821648 12.6810077 28.68414949 11.4453125 20.52734375 C8.72038745 11.70377693 3.64974281 4.97567382 -4.4453125 0.4765625 C-13.3152684 -3.59204771 -23.0031995 -3.59756992 -32.171875 -0.5078125 C-39.20987469 2.54967917 -44.88249598 7.78927271 -48.5546875 14.52734375 C-49.82172862 18.1467782 -50.76854033 21.77590465 -51.5546875 25.52734375 C-53.5546875 22.52734375 -53.5546875 22.52734375 -53.0859375 20.109375 C-49.26817733 9.85637515 -44.5381512 2.55825717 -34.5546875 -2.47265625 C-22.42125053 -7.11242652 -11.38378725 -6.56221375 0 0 Z " fill="#1E272D" transform="translate(764.5546875,145.47265625)"/>
<path d="M0 0 C5.75592718 4.67232146 9.03167376 10.5791844 11.75 17.375 C11.75 22.985 11.75 28.595 11.75 34.375 C-3.43 34.375 -18.61 34.375 -34.25 34.375 C-30.50457785 43.4665512 -30.50457785 43.4665512 -23.48046875 47.81640625 C-15.70177091 49.76448644 -10.25550516 48.44238661 -3.37890625 44.46875 C-1.25 43.375 -1.25 43.375 1.75 43.375 C4.4375 45.25 4.4375 45.25 6.75 47.375 C6.75 48.035 6.75 48.695 6.75 49.375 C4.25638429 48.17118552 2.06856917 46.92071278 -0.25 45.375 C-0.78109375 45.72433594 -1.3121875 46.07367188 -1.859375 46.43359375 C-2.91898438 47.11615234 -2.91898438 47.11615234 -4 47.8125 C-4.69609375 48.26496094 -5.3921875 48.71742188 -6.109375 49.18359375 C-10.80511477 51.79709855 -15.98880728 52.12299705 -21.25 51.375 C-26.64733093 49.29711381 -31.29611782 46.45567735 -34.25 41.375 C-35.17862881 38.68605833 -35.73313151 36.1942827 -36.25 33.375 C-35.25 32.375 -35.25 32.375 -33.38340759 32.25474548 C-32.16096092 32.2580764 -32.16096092 32.2580764 -30.91381836 32.26147461 C-29.53249977 32.26158791 -29.53249977 32.26158791 -28.12327576 32.26170349 C-27.12224319 32.26686478 -26.12121063 32.27202606 -25.08984375 32.27734375 C-24.07024063 32.2787587 -23.05063751 32.28017365 -22.00013733 32.28163147 C-18.72922893 32.28724903 -15.45838787 32.2998045 -12.1875 32.3125 C-9.97591244 32.31751274 -7.76432382 32.32207604 -5.55273438 32.32617188 C-0.11846643 32.33722416 5.31576197 32.35397937 10.75 32.375 C10.48066978 30.01008003 10.19893665 27.64771573 9.91015625 25.28515625 C9.79927673 24.29449158 9.79927673 24.29449158 9.68615723 23.28381348 C8.73888507 15.70796367 6.27981898 8.66735843 0.6015625 3.37109375 C-7.03389467 -2.03626926 -15.02072786 -3.62845106 -24.25 -2.625 C-30.48596548 -1.09292349 -37.22887998 1.09947811 -41.25 6.375 C-42.95606867 9.40892453 -44.48859734 12.47541685 -45.953125 15.6328125 C-47.25 18.375 -47.25 18.375 -49.25 21.375 C-50.25 19.375 -50.25 19.375 -49.75390625 17.30859375 C-46.73575201 9.3061018 -42.1399225 2.52026659 -34.75 -2.0625 C-23.19265298 -7.22202992 -10.74150222 -7.36560152 0 0 Z " fill="#212C33" transform="translate(647.25,145.625)"/>
<path d="M0 0 C1.22847656 -0.00257813 2.45695312 -0.00515625 3.72265625 -0.0078125 C6.9375 0.125 6.9375 0.125 9.9375 1.125 C10.35601968 4.54291075 10.56370097 7.11313876 8.70703125 10.11328125 C5.36801145 14.09537153 3.32825354 15.90680867 -2.05859375 16.3984375 C-3.19425781 16.43195313 -4.32992188 16.46546875 -5.5 16.5 C-6.63308594 16.54898438 -7.76617187 16.59796875 -8.93359375 16.6484375 C-12.0625 16.125 -12.0625 16.125 -14.47265625 13.828125 C-16.0625 11.125 -16.0625 11.125 -16.0625 7.5 C-15.0625 4.125 -15.0625 4.125 -13.25 2.25 C-8.86961469 -0.00276959 -4.89630693 -0.01029718 0 0 Z " fill="#000000" transform="translate(501.0625,178.875)"/>
<path d="M0 0 C4.95 0 9.9 0 15 0 C15.09077477 8.54574641 15.16398679 17.09111091 15.20724869 25.6372118 C15.22802399 29.60655097 15.25615443 33.57554 15.30175781 37.54467773 C15.34557889 41.38320489 15.3692125 45.22139766 15.37950897 49.06015587 C15.38683596 50.51643822 15.40114185 51.97270461 15.42292023 53.42884254 C15.57845734 64.270597 14.79952133 75.1433639 6.96875 83.43359375 C-1.92263469 90.5078899 -11.87797393 92.82612023 -23 92 C-31.46105761 90.77496344 -39.31386296 88.54691694 -46 83 C-46.66 81.68 -47.32 80.36 -48 79 C-44.04 74.05 -44.04 74.05 -40 69 C-37.99529058 70.00235471 -35.99051816 71.00490759 -34 72.03515625 C-33.01 72.54369141 -33.01 72.54369141 -32 73.0625 C-31.01 73.57490234 -31.01 73.57490234 -30 74.09765625 C-23.65640038 76.95970998 -16.08276122 77.06495388 -9.5625 74.8125 C-2.67682351 69.94214346 -1.66660128 63.91635608 0 56 C0.33 56 0.66 56 1 56 C1.3762219 63.14821605 0.43984324 68.01796938 -4.25 73.75 C-9.07669406 77.69911332 -13.59253119 79.50338524 -19.890625 79.22265625 C-26.79023934 78.49436363 -31.20428155 76.90874035 -37 73 C-39.63983709 73.21697291 -40.69034497 73.66019434 -42.484375 75.62890625 C-42.90203125 76.26699219 -43.3196875 76.90507812 -43.75 77.5625 C-44.17796875 78.20316406 -44.6059375 78.84382813 -45.046875 79.50390625 C-45.51867187 80.24447266 -45.51867187 80.24447266 -46 81 C-33.57467288 87.2686335 -21.11471004 91.92265044 -6.984375 88.20703125 C-4.55414318 87.25749457 -2.29131001 86.24563944 0 85 C0.84949219 84.55269531 1.69898438 84.10539062 2.57421875 83.64453125 C5.25821962 81.8249429 6.51518998 80.26177741 8.1875 77.5 C8.67605469 76.7265625 9.16460938 75.953125 9.66796875 75.15625 C13.44966832 66.19550733 13.32597969 56.37565939 13.4140625 46.80078125 C13.43342865 45.48458298 13.4527948 44.1683847 13.4727478 42.81230164 C13.52356047 39.351926 13.56345434 35.89151197 13.60089111 32.43096924 C13.64125424 28.88422552 13.69219723 25.3376344 13.7421875 21.79101562 C13.83834239 14.86078327 13.921955 7.93045976 14 1 C10.04 1 6.08 1 2 1 C2 3.31 2 5.62 2 8 C1.34 8 0.68 8 0 8 C0 5.36 0 2.72 0 0 Z " fill="#1D252B" transform="translate(878,142)"/>
<path d="M0 0 C4.01910775 3.33011785 5.93185745 6.78992981 7.1875 11.8125 C-3.3725 11.8125 -13.9325 11.8125 -24.8125 11.8125 C-22.67201402 5.39104207 -21.4274783 2.35072253 -15.625 -1.0625 C-9.98329905 -2.72726421 -5.40321463 -2.28135729 0 0 Z " fill="#000000" transform="translate(943.8125,155.1875)"/>
<path d="M0 0 C4.82461641 3.75918029 5.06110265 5.26854678 6.9375 11.8359375 C-3.2925 11.8359375 -13.5225 11.8359375 -24.0625 11.8359375 C-22.97890351 5.33435856 -22.02953566 3.60202323 -17.0625 -0.1640625 C-11.60428593 -2.95381636 -5.38899453 -3.04151585 0 0 Z " fill="#000000" transform="translate(637.0625,155.1640625)"/>
<path d="M0 0 C1.28648437 -0.00515625 2.57296875 -0.0103125 3.8984375 -0.015625 C9.68757564 0.39701797 13.77288304 2.08034273 18.5 5.375 C19.67175781 6.18324219 19.67175781 6.18324219 20.8671875 7.0078125 C21.73730469 7.62269531 21.73730469 7.62269531 22.625 8.25 C26.38988042 6.52845212 28.77563897 4.25765886 31.625 1.25 C32.285 1.58 32.945 1.91 33.625 2.25 C32.55307816 3.5718362 31.46697305 4.88217927 30.375 6.1875 C29.77171875 6.91839844 29.1684375 7.64929688 28.546875 8.40234375 C26.46280111 10.40593511 25.50694338 11.14449533 22.625 11.25 C20.58203125 10.140625 20.58203125 10.140625 18.4375 8.5 C11.88375282 3.88014543 4.78982923 0.95539645 -3.375 2.25 C-10.92634791 4.08592829 -16.77528797 6.84549633 -21.375 13.25 C-26.40028029 22.20944468 -28.00545741 32.1412057 -25.69140625 42.23046875 C-23.10333188 50.01616966 -19.59798395 55.80418167 -12.1875 59.625 C-4.49769283 63.11347268 4.01139389 63.9655858 12.0390625 60.98046875 C14.9608591 59.49056999 17.78296508 57.88491129 20.625 56.25 C22.27947179 55.55361985 23.94286661 54.8766175 25.625 54.25 C26.285 55.24 26.945 56.23 27.625 57.25 C26.3875 57.3428125 26.3875 57.3428125 25.125 57.4375 C21.88894717 58.18872655 20.37458737 58.90658439 17.6875 60.6875 C10.46066714 65.39650974 3.0995747 66.12400966 -5.375 65.25 C-13.45781258 63.13427947 -19.54296432 57.77090923 -24.6875 51.375 C-30.02145708 41.49730171 -30.74572907 32.47289025 -27.8125 21.625 C-25.30332501 14.1946614 -21.58394636 7.86749207 -14.6875 3.8125 C-13.594375 3.296875 -12.50125 2.78125 -11.375 2.25 C-10.51068359 1.71439453 -10.51068359 1.71439453 -9.62890625 1.16796875 C-6.38473115 -0.15331573 -3.48887011 -0.01392763 0 0 Z " fill="#1F282E" transform="translate(428.375,129.75)"/>
<path d="M0 0 C0.33 0.66 0.66 1.32 1 2 C0.28714844 2.3403125 -0.42570313 2.680625 -1.16015625 3.03125 C-9.33882672 7.17011958 -14.43301295 11.44566813 -18.9375 19.4375 C-21.59470434 27.7557049 -21.41257481 39.96051777 -18.03515625 48.08203125 C-13.76648308 55.99115776 -8.59604634 60.72635599 -0.26953125 64.109375 C8.30801332 66.44591044 19.34308067 66.51255921 27.26171875 62.22265625 C29.87321764 60.38580422 31.91600829 58.42011941 34 56 C32.35 54.35 30.7 52.7 29 51 C28.41992188 51.28875 27.83984375 51.5775 27.2421875 51.875 C22.65550815 54.05480801 19.19777151 55.53310477 14 55 C16.60396573 53.26402284 19.17024468 51.76478888 21.9375 50.3125 C22.79214844 49.85488281 23.64679687 49.39726562 24.52734375 48.92578125 C27.32908633 47.87678758 28.28943912 47.81861501 31 49 C32.921875 50.41015625 32.921875 50.41015625 34.75 52.0625 C35.67039062 52.88427734 35.67039062 52.88427734 36.609375 53.72265625 C37.29773438 54.35494141 37.29773438 54.35494141 38 55 C35.60653836 60.80195151 30.31199495 63.34400252 24.8984375 66.05078125 C16.1466338 69.50889095 6.34525429 69.27787554 -2.375 65.9375 C-12.4985876 61.12508885 -18.0157515 54.51316083 -22.109375 44.20703125 C-24.49401933 35.62021987 -24.13701073 25.21582776 -20.25 17.171875 C-15.34504543 8.64951643 -9.53025393 3.17675131 0 0 Z " fill="#202930" transform="translate(926,141)"/>
<path d="M0 0 C0.33 0 0.66 0 1 0 C1.03738281 1.08796875 1.07476562 2.1759375 1.11328125 3.296875 C1.7863061 19.53475832 4.54524464 33.88095679 16.0234375 46.21875 C24.81192073 54.13880604 35.21034759 57.58039677 46.875 57.4375 C48.19262329 57.42505249 48.19262329 57.42505249 49.53686523 57.41235352 C56.33256268 57.23568676 61.95750184 56.26179439 68 53 C69.43085938 52.23623047 69.43085938 52.23623047 70.890625 51.45703125 C80.84726482 45.64011734 86.2949512 37.86551546 90 27 C91.2959666 21.72213216 92.17157505 16.36792427 93 11 C93.33 11 93.66 11 94 11 C94.66975576 23.82458251 91.97702332 33.78816859 84 44 C75.42360423 53.35312596 64.24381408 59.68896653 51.44921875 60.3359375 C37.95053626 60.5911588 27.83713037 58.51774453 17 50 C16.32195312 49.47148437 15.64390625 48.94296875 14.9453125 48.3984375 C7.44383811 41.7726216 1.56711213 30.92754289 0 21 C-0.07700286 19.30742755 -0.10805067 17.61226001 -0.09765625 15.91796875 C-0.09443359 14.98662109 -0.09121094 14.05527344 -0.08789062 13.09570312 C-0.07951172 12.13599609 -0.07113281 11.17628906 -0.0625 10.1875 C-0.05798828 9.20845703 -0.05347656 8.22941406 -0.04882812 7.22070312 C-0.03708684 4.81373889 -0.02066419 2.40690143 0 0 Z " fill="#1C2429" transform="translate(163,226)"/>
<path d="M0 0 C4.12340619 3.42892431 7.85574016 7.12438861 10.41015625 11.88330078 C10.41015625 12.54330078 10.41015625 13.20330078 10.41015625 13.88330078 C12.72015625 13.55330078 15.03015625 13.22330078 17.41015625 12.88330078 C17.08015625 13.54330078 16.75015625 14.20330078 16.41015625 14.88330078 C14.08859028 15.29059306 11.75327755 15.62768755 9.41015625 15.88330078 C9.08144531 15.32642578 8.75273437 14.76955078 8.4140625 14.19580078 C1.83899913 3.64718963 -7.36848927 -4.11955895 -19.48486328 -7.67236328 C-31.98249462 -10.31046222 -45.0661019 -8.57521291 -55.96484375 -2.11669922 C-56.83109375 -1.45669922 -57.69734375 -0.79669922 -58.58984375 -0.11669922 C-59.39421875 0.47755859 -60.19859375 1.07181641 -61.02734375 1.68408203 C-67.57456967 7.30311891 -71.55661742 15.59399345 -73.58984375 23.88330078 C-73.77675781 24.64255859 -73.96367188 25.40181641 -74.15625 26.18408203 C-74.69737067 29.5526801 -74.68421446 32.78563458 -74.65234375 36.19580078 C-74.64332031 37.45005859 -74.63429688 38.70431641 -74.625 39.99658203 C-74.61339844 40.94919922 -74.60179688 41.90181641 -74.58984375 42.88330078 C-75.57984375 43.37830078 -75.57984375 43.37830078 -76.58984375 43.88330078 C-79.28976577 30.72118091 -76.65465977 18.99123935 -69.51953125 7.63720703 C-63.02943351 -1.62497699 -53.86412833 -8.20724893 -42.6953125 -10.78466797 C-26.18481627 -12.54994115 -13.30653851 -10.50288545 0 0 Z " fill="#20292F" transform="translate(156.58984375,125.11669921875)"/>
<path d="M0 0 C9.30398112 0.25428887 17.31038058 2.79109081 24.0625 9.3125 C32.47325275 18.2722575 32.0625 28.2154893 32.0625 40.3125 C16.5525 40.3125 1.0425 40.3125 -14.9375 40.3125 C-9.9637867 49.80807426 -9.9637867 49.80807426 -1.890625 53.59375 C0.0625 54.3125 0.0625 54.3125 2.0625 56.3125 C-3.94910732 56.10156641 -7.09240374 55.1048124 -11.4609375 50.92578125 C-14.20950969 47.92271163 -15.81500186 45.65997952 -16.1875 41.5625 C-15.9375 39.3125 -15.9375 39.3125 -14.9375 38.3125 C-13.49460213 38.21954185 -12.04720215 38.19503487 -10.60131836 38.19897461 C-9.6804393 38.19905014 -8.75956024 38.19912567 -7.81077576 38.19920349 C-6.80974319 38.20436478 -5.80871063 38.20952606 -4.77734375 38.21484375 C-3.75774063 38.2162587 -2.73813751 38.21767365 -1.68763733 38.21913147 C1.58327107 38.22474903 4.85411213 38.2373045 8.125 38.25 C10.33658756 38.25501274 12.54817618 38.25957604 14.75976562 38.26367188 C20.19403357 38.27472416 25.62826197 38.29147937 31.0625 38.3125 C30.61280589 35.57803632 30.15460351 32.84546163 29.69140625 30.11328125 C29.56560181 29.34278442 29.43979736 28.5722876 29.31018066 27.77844238 C28.37253938 22.30373245 26.96987663 18.09560349 24.0625 13.3125 C23.73894531 12.60867187 23.41539062 11.90484375 23.08203125 11.1796875 C21.61782774 8.49811939 19.91136648 8.28370448 17.0625 7.3125 C16.19882812 6.82265625 15.33515625 6.3328125 14.4453125 5.828125 C10.32446473 3.98183293 6.6450431 3.5367561 2.1875 3.125 C1.40375 3.04314453 0.62 2.96128906 -0.1875 2.87695312 C-2.10311529 2.67838325 -4.02019042 2.49398253 -5.9375 2.3125 C-3.9375 0.3125 -3.9375 0.3125 0 0 Z " fill="#222D35" transform="translate(933.9375,139.6875)"/>
<path d="M0 0 C5.28 0 10.56 0 16 0 C16 4.62 16 9.24 16 14 C10.72 14 5.44 14 0 14 C0 30.83 0 47.66 0 65 C-5.28 65 -10.56 65 -16 65 C-16 50.81 -16 36.62 -16 22 C-15.67 22 -15.34 22 -15 22 C-14.67 35.53 -14.34 49.06 -14 63 C-10.04 63.33 -6.08 63.66 -2 64 C-2 46.84 -2 29.68 -2 12 C3.61 12 9.22 12 15 12 C14.505 7.05 14.505 7.05 14 2 C7.07 1.505 7.07 1.505 0 1 C0 0.67 0 0.34 0 0 Z " fill="#1C252B" transform="translate(692,142)"/>
<path d="M0 0 C4.41854291 3.11306432 8.02390999 6.75922996 9.75 11.9375 C9.92431213 14.55789714 10.02684435 17.12812084 10.0625 19.75 C10.09150391 20.44931641 10.12050781 21.14863281 10.15039062 21.86914062 C10.21306019 27.02250689 9.0830738 29.82161254 5.75 33.9375 C1.71059637 37.76430344 -1.96373567 39.7386672 -7.57421875 40.078125 C-13.70494342 39.89035395 -17.28259583 38.20768738 -21.62109375 33.88671875 C-25.86087204 28.81321907 -26.77634662 23.84187584 -26.5234375 17.421875 C-25.69593519 9.90342545 -22.91281389 6.04546145 -17.08984375 1.28515625 C-12.06692146 -2.39405435 -5.73331859 -1.87435416 0 0 Z M-19.9140625 5.1796875 C-24.57769109 11.3160409 -25.0400178 17.4981657 -24.25 24.9375 C-22.96982544 30.63427679 -19.8671768 33.66699976 -15.25 36.9375 C-9.85269529 38.73660157 -5.14951716 38.63218904 0 36.3125 C4.54293888 33.78666168 6.96588258 30.4858816 8.5 25.5 C9.15514311 18.78478309 8.83618966 13.01877409 5.75 6.9375 C2.8362144 3.65851994 -0.4076346 1.15836019 -4.82421875 0.62890625 C-11.1748318 0.3659574 -15.3881884 0.43303905 -19.9140625 5.1796875 Z " fill="#1F282F" transform="translate(869.25,154.0625)"/>
<path d="M0 0 C3.74600729 2.75459173 6.42638747 4.91211785 8.27734375 9.25 C7.8390625 8.88648438 7.40078125 8.52296875 6.94921875 8.1484375 C-6.4322329 -2.45881076 -18.18323245 -4.66442185 -34.72265625 -3.75 C-43.78787767 -2.60250362 -51.49277903 2.64354986 -57.609375 9.3046875 C-59.09735163 11.23118621 -60.4258971 13.19118434 -61.72265625 15.25 C-62.80546875 16.796875 -62.80546875 16.796875 -63.91015625 18.375 C-68.3834734 26.52016498 -69.11210668 37.11280984 -69.72265625 46.25 C-70.05265625 46.25 -70.38265625 46.25 -70.72265625 46.25 C-71.4537926 31.56634499 -69.36945407 19.89624096 -59.72265625 8.25 C-59.2225 7.61449219 -58.72234375 6.97898438 -58.20703125 6.32421875 C-43.92239631 -9.94439327 -17.4444264 -11.21248641 0 0 Z " fill="#202930" transform="translate(454.72265625,121.75)"/>
<path d="M0 0 C0.33 0 0.66 0 1 0 C1.21914063 0.90621094 1.43828125 1.81242188 1.6640625 2.74609375 C4.960708 15.41003685 10.18119429 24.22069186 21 32 C32.19130638 38.46173679 45.58307251 38.73394684 58 35.9375 C63.59720697 34.11797452 68.74288649 31.07316416 73 27 C73.95501062 24.97432736 73.95501062 24.97432736 74 23 C72.64555699 21.22809091 72.64555699 21.22809091 71 20 C71.33 19.34 71.66 18.68 72 18 C74.5625 20.25 74.5625 20.25 77 23 C76.75379458 26.52425473 75.20355912 28.15889572 72.625 30.4375 C61.82126637 39.48927683 49.57438347 40.96123172 36 40 C24.5832458 38.08210611 14.34646026 31.69708903 7.4375 22.5 C3.67859278 16.92442715 -1.71883098 8.56757185 -0.625 1.6171875 C-0.41875 1.08351562 -0.2125 0.54984375 0 0 Z " fill="#232B32" transform="translate(385,169)"/>
<path d="M0 0 C1.875 1.125 1.875 1.125 3 3 C3.50030235 6.93094707 3.5996142 9.1005787 1.375 12.4375 C-1.75683492 14.49791771 -3.31544773 14.6767545 -7 14 C-9.9375 11.9375 -9.9375 11.9375 -12 9 C-12.125 5.375 -12.125 5.375 -11 2 C-7.3487558 -1.33828041 -4.64215415 -1.41282953 0 0 Z " fill="#010203" transform="translate(214,92)"/>
<path d="M0 0 C1.47193312 2.94386623 0.84936173 5.37390036 0.5625 8.625 C0.46066406 9.81351563 0.35882812 11.00203125 0.25390625 12.2265625 C0.17011719 13.14179688 0.08632813 14.05703125 0 15 C-0.33 15 -0.66 15 -1 15 C-1 10.71 -1 6.42 -1 2 C-8.47915954 3.33067667 -8.47915954 3.33067667 -15 7 C-15.515625 7.86625 -16.03125 8.7325 -16.5625 9.625 C-18 12 -18 12 -22 13 C-22 10.03 -22 7.06 -22 4 C-26.29 4 -30.58 4 -35 4 C-35 24.46 -35 44.92 -35 66 C-31.04 66 -27.08 66 -23 66 C-23 66.33 -23 66.66 -23 67 C-27.29 67 -31.58 67 -36 67 C-36 45.55 -36 24.1 -36 2 C-30.72 2 -25.44 2 -20 2 C-19.67 4.31 -19.34 6.62 -19 9 C-18.319375 8.071875 -17.63875 7.14375 -16.9375 6.1875 C-12.343867 0.71395983 -6.958963 -0.42605896 0 0 Z " fill="#192127" transform="translate(823,140)"/>
<path d="M0 0 C1.421875 2.00390625 1.421875 2.00390625 2.75 4.5625 C9.0665293 15.6322176 19.02558613 22.79845127 31 27 C40.21367966 29.29980387 49.6607702 30.01929293 59 28 C59.495 28.99 59.495 28.99 60 30 C52.75074973 33.62462513 38.38343791 31.74543063 30.75 29.8125 C25.81187206 28.13789826 21.35900312 25.84861245 17 23 C16.27167969 22.53078125 15.54335938 22.0615625 14.79296875 21.578125 C7.81241017 16.63916586 2.72542549 10.05361008 -2 3 C-2 2.34 -2 1.68 -2 1 C-2.56509277 1.18175781 -3.13018555 1.36351562 -3.71240234 1.55078125 C-6.26565409 2.37017494 -8.82029847 3.1851383 -11.375 4 C-12.26445312 4.28617188 -13.15390625 4.57234375 -14.0703125 4.8671875 C-15.34648437 5.27324219 -15.34648437 5.27324219 -16.6484375 5.6875 C-17.43395996 5.93886719 -18.21948242 6.19023437 -19.02880859 6.44921875 C-21 7 -21 7 -23 7 C-23 8.32 -23 9.64 -23 11 C-23.66 11 -24.32 11 -25 11 C-25.33 9.35 -25.66 7.7 -26 6 C-22.42211911 4.79561349 -18.83698135 3.61447826 -15.25 2.4375 C-14.23421875 2.09525391 -13.2184375 1.75300781 -12.171875 1.40039062 C-11.1921875 1.08134766 -10.2125 0.76230469 -9.203125 0.43359375 C-8.30239258 0.13509521 -7.40166016 -0.16340332 -6.47363281 -0.47094727 C-3.84746143 -1.03262447 -2.47338846 -1.00250296 0 0 Z " fill="#1E272E" transform="translate(247,175)"/>
<path d="M0 0 C5.4549919 4.42803998 9.70234369 10.64427789 11.75 17.375 C11.97905832 20.31843554 11.93929014 23.23757157 11.875 26.1875 C11.86597656 26.97576172 11.85695313 27.76402344 11.84765625 28.57617188 C11.82422504 30.50924666 11.78835838 32.4421638 11.75 34.375 C10.76 34.045 9.77 33.715 8.75 33.375 C9.41 33.375 10.07 33.375 10.75 33.375 C9.95234019 22.53782885 9.04865393 11.2384742 0.6015625 3.375 C-7.02741907 -2.04079579 -15.02314839 -3.62818789 -24.25 -2.625 C-30.48596548 -1.09292349 -37.22887998 1.09947811 -41.25 6.375 C-42.95606867 9.40892453 -44.48859734 12.47541685 -45.953125 15.6328125 C-47.25 18.375 -47.25 18.375 -49.25 21.375 C-50.25 19.375 -50.25 19.375 -49.75390625 17.30859375 C-46.73575201 9.3061018 -42.1399225 2.52026659 -34.75 -2.0625 C-23.19265298 -7.22202992 -10.74150222 -7.36560152 0 0 Z " fill="#1D262C" transform="translate(647.25,145.625)"/>
<path d="M0 0 C2.375 1.625 2.375 1.625 4 4 C4.60605429 7.63632575 4.47161336 9.28314769 2.4375 12.375 C-0.92058549 14.61372366 -3.04745604 14.57491549 -7 14 C-9.62541413 11.79803976 -9.9445448 10.38026421 -10.4375 7 C-10 4 -10 4 -8.375 1.625 C-5.28813568 -0.48706506 -3.6717087 -0.61195145 0 0 Z " fill="#020304" transform="translate(210,214)"/>
<path d="M0 0 C2.40130082 2.40130082 3.04637589 4.45545652 4.25 7.625 C8.43054398 17.79684683 14.59306886 25.41073821 24.66015625 30.2890625 C30.77060037 32.79083491 36.14949667 34.10046477 42.75 34.5625 C43.92046875 34.64628906 45.0909375 34.73007813 46.296875 34.81640625 C47.63492188 34.90728516 47.63492188 34.90728516 49 35 C50.20484722 40.63526965 50.1129643 46.14536115 50.0625 51.875 C50.05798828 52.84953125 50.05347656 53.8240625 50.04882812 54.828125 C50.03710906 57.21881434 50.02070219 59.6093744 50 62 C49.01 61.505 49.01 61.505 48 61 C47.67 53.08 47.34 45.16 47 37 C44.03 37 41.06 37 38 37 C24.68765047 34.81968177 14.41523675 28.50916889 6 18 C2.61840216 12.27930076 -0.46348093 6.78936931 0 0 Z " fill="#222B32" transform="translate(81,170)"/>
<path d="M0 0 C0.33 0 0.66 0 1 0 C1.00586624 1.07582336 1.01173248 2.15164673 1.01777649 3.2600708 C1.07519677 13.44004836 1.14805798 23.61981625 1.23571491 33.79957962 C1.28028374 39.0320606 1.31956908 44.26446612 1.34643555 49.49707031 C1.37260371 54.55469063 1.41310013 59.61201849 1.46318626 64.66945648 C1.4797641 66.59093311 1.49133455 68.51246022 1.49761391 70.43399811 C1.08241947 88.91268452 1.08241947 88.91268452 8.2734375 105.40625 C12.06349635 108.90476586 16.57117705 111.40166579 21 114 C22.485 114.99 22.485 114.99 24 116 C23.67 116.66 23.34 117.32 23 118 C13.51729206 113.01729632 5.89711766 107.79423532 1 98 C0.19417468 95.27989938 -0.13271013 92.82658562 -0.16494751 89.99507141 C-0.17618149 89.20850159 -0.18741547 88.42193176 -0.19898987 87.61152649 C-0.20631638 86.75785995 -0.21364288 85.90419342 -0.22119141 85.0246582 C-0.2326973 84.11859833 -0.24420319 83.21253845 -0.25605774 82.27902222 C-0.29272116 79.28630955 -0.32237719 76.29357552 -0.3515625 73.30078125 C-0.3746765 71.22380778 -0.39806682 69.14683737 -0.42172241 67.06987 C-0.47015177 62.71970247 -0.51509162 58.36951623 -0.55761719 54.01928711 C-0.61255513 48.4300904 -0.67636712 42.8410361 -0.74279213 37.25196552 C-0.79273576 32.96536279 -0.83791357 28.67872011 -0.88163376 24.39204979 C-0.90326296 22.33024656 -0.92641961 20.2684588 -0.9510994 18.20668983 C-0.98479744 15.33353661 -1.01207656 12.46039407 -1.03759766 9.5871582 C-1.04897263 8.72741898 -1.0603476 7.86767975 -1.07206726 6.98188782 C-1.08640379 4.98783205 -1.04896869 2.99350596 -1 1 C-0.67 0.67 -0.34 0.34 0 0 Z " fill="#0D1519" transform="translate(256,76)"/>
<path d="M0 0 C4.56207302 1.69988071 7.26985618 3.92760126 10 7.9375 C11.05225118 11.16001924 11.07482759 13.63743506 11 17 C6.47934572 17.049377 1.95884783 17.08570823 -2.56201172 17.10986328 C-4.10045098 17.11993118 -5.63887107 17.13358646 -7.17724609 17.15087891 C-9.38644133 17.17509317 -11.59538395 17.18647491 -13.8046875 17.1953125 C-14.49432587 17.20563507 -15.18396423 17.21595764 -15.89450073 17.22659302 C-17.59800906 17.22699478 -19.30085943 17.12191026 -21 17 C-21.66 16.34 -22.32 15.68 -23 15 C-22.87657532 9.56931408 -20.72253447 6.80713752 -17 3 C-11.54509184 -0.88581444 -6.49721688 -0.89210491 0 0 Z M-18.62109375 6.9765625 C-21.16031286 10.7097122 -21.16031286 10.7097122 -22 15 C-11.44 15 -0.88 15 10 15 C7.68498701 7.70451353 7.68498701 7.70451353 3 3 C-4.79771173 -0.39030945 -12.97811811 0.09621148 -18.62109375 6.9765625 Z " fill="#1D252B" transform="translate(941,152)"/>
<path d="M0 0 C4.87650061 2.4699159 6.84256966 5.5094491 8.9296875 10.3515625 C8.9296875 12.3315625 8.9296875 14.3115625 8.9296875 16.3515625 C-1.9603125 16.3515625 -12.8503125 16.3515625 -24.0703125 16.3515625 C-25.2636527 11.57820171 -24.59392915 10.37671749 -22.3828125 6.25390625 C-17.46984675 -0.8669697 -7.88911548 -2.47093051 0 0 Z M-19.9453125 5.6640625 C-22.60522842 8.58354788 -22.60522842 8.58354788 -23.0703125 14.3515625 C-12.8403125 14.3515625 -2.6103125 14.3515625 7.9296875 14.3515625 C5.92959201 7.3512283 4.9964597 4.79362111 -1.0703125 1.3515625 C-8.42199867 -0.96934019 -13.99093872 0.87467489 -19.9453125 5.6640625 Z " fill="#1C252B" transform="translate(636.0703125,152.6484375)"/>
<path d="M0 0 C0.310487 4.50206145 0.40551164 7.12139144 -1.5 11.25 C-5.37000786 15.50700865 -9.03518054 17.63043567 -14.7890625 18.34765625 C-19.82747092 18.50383333 -24.13715481 18.61362937 -28 15 C-29.7299548 12.09053057 -30.00663338 10.3250358 -29.9375 6.9375 C-28.72260339 3.13082396 -27.3946799 2.06632689 -24 0 C-15.63742275 -3.15568953 -8.39255854 -2.17584851 0 0 Z M-26 3 C-28.35618542 5.88599388 -28.35618542 5.88599388 -27.8125 9.5 C-26.92282165 13.51114634 -26.92282165 13.51114634 -24 16 C-20.97304736 16.47774226 -20.97304736 16.47774226 -17.625 16.375 C-15.94277344 16.38660156 -15.94277344 16.38660156 -14.2265625 16.3984375 C-9.56194057 15.82241881 -7.0041908 13.9770505 -3.6875 10.75 C-1.57194989 7.30243685 -1.68832387 4.97387068 -2 1 C-9.5766754 -1.52555847 -19.13407104 -1.21318368 -26 3 Z " fill="#232E36" transform="translate(513,179)"/>
<path d="M0 0 C0.33 0 0.66 0 1 0 C1.03738281 1.08796875 1.07476562 2.1759375 1.11328125 3.296875 C1.78518054 19.50760215 4.51669653 33.94303291 16.04296875 46.22265625 C23.56132202 53.05070164 32.34008503 55.63373841 42 58 C41.34 58.66 40.68 59.32 40 60 C37.9375 59.8125 37.9375 59.8125 35 59 C34.33613281 58.8246875 33.67226562 58.649375 32.98828125 58.46875 C22.06831041 55.26708316 12.29490565 48.12803659 6.7578125 38.10546875 C2.89753171 30.70666779 -0.14990092 24.43384972 -0.09765625 15.91796875 C-0.09443359 14.98662109 -0.09121094 14.05527344 -0.08789062 13.09570312 C-0.07951172 12.13599609 -0.07113281 11.17628906 -0.0625 10.1875 C-0.05798828 9.20845703 -0.05347656 8.22941406 -0.04882812 7.22070312 C-0.03708684 4.81373889 -0.02066419 2.40690143 0 0 Z " fill="#202A31" transform="translate(163,226)"/>
<path d="M0 0 C4.59882744 6.89824116 3.81009367 16.08202978 2.50390625 24.01171875 C-0.78839858 37.05073394 -7.24369098 47.56173244 -18.7109375 54.8125 C-22.08668803 56.56374259 -25.26662293 57.32120417 -29 58 C-29 57.34 -29 56.68 -29 56 C-28.41992188 55.75765625 -27.83984375 55.5153125 -27.2421875 55.265625 C-22.47384257 53.21980044 -18.27180605 50.9803298 -14 48 C-12.88625 47.505 -12.88625 47.505 -11.75 47 C-9.43678298 45.6781617 -9.12984719 44.41115939 -8 42 C-7.525625 41.08605469 -7.05125 40.17210937 -6.5625 39.23046875 C-5.7890625 37.72419922 -5.7890625 37.72419922 -5 36.1875 C-4.484375 35.19105469 -3.96875 34.19460937 -3.4375 33.16796875 C-0.67077824 27.07065531 0.30785735 21.59516187 0.1875 14.9375 C0.18685547 14.25623047 0.18621094 13.57496094 0.18554688 12.87304688 C0.15808986 9.6971854 -0.0499234 6.70147847 -0.57421875 3.56640625 C-0.71472656 2.71949219 -0.85523438 1.87257812 -1 1 C-0.67 0.67 -0.34 0.34 0 0 Z " fill="#1F282E" transform="translate(337,146)"/>
<path d="M0 0 C4 2 4 2 5 4 C4.01 4.495 4.01 4.495 3 5 C2.67 40.31 2.34 75.62 2 112 C1.67 112 1.34 112 1 112 C0.67 75.04 0.34 38.08 0 0 Z " fill="#2A3842" transform="translate(137,127)"/>
<path d="M0 0 C0.33 0 0.66 0 1 0 C1.01417969 0.78761719 1.02835938 1.57523438 1.04296875 2.38671875 C1.51810097 13.23771132 3.86192573 24.26882944 12 32 C17.50360284 35.89279225 22.65429199 36.20707757 29.25 36.5625 C30.36761719 36.62727539 30.36761719 36.62727539 31.5078125 36.69335938 C33.338349 36.79896725 35.16915176 36.89994201 37 37 C36.505 37.99 36.505 37.99 36 39 C25.58451811 39.39496912 18.09696657 39.49949924 9.8125 32.875 C3.16332804 26.64385064 -0.28445557 19.06814959 -1 10 C-0.87079049 6.62670875 -0.52486489 3.33360135 0 0 Z " fill="#1D262C" transform="translate(829,167)"/>
<path d="M0 0 C1.9716656 1.55356687 3.38328281 3.05993937 5 5 C4.67 5.66 4.34 6.32 4 7 C3.56429687 6.59007812 3.12859375 6.18015625 2.6796875 5.7578125 C-3.58553525 0.08927763 -8.7379493 -1.48118192 -17.18359375 -1.3203125 C-23.62714777 -0.58748111 -29.37027836 2.50255612 -34 7 C-37.66165306 11.63091417 -39.36151667 16.41426136 -41 22 C-41.66 21.34 -42.32 20.68 -43 20 C-39.86908755 10.51002933 -35.11805681 2.74138954 -26 -2 C-16.62547285 -4.9929683 -8.75390324 -4.6283306 0 0 Z " fill="#1E272D" transform="translate(872,144)"/>
<path d="M0 0 C0.66 0 1.32 0 2 0 C3.19140625 1.80078125 3.19140625 1.80078125 4.5625 4.3125 C14.15328751 20.65833737 27.06995697 30.33452325 44 38 C43.34 38.66 42.68 39.32 42 40 C24.73029384 32.19188817 8.37435292 20.13125085 0.80859375 2.171875 C0.54175781 1.45515625 0.27492187 0.7384375 0 0 Z " fill="#1D272E" transform="translate(223,187)"/>
<path d="M0 0 C0.71285156 0.13277344 1.42570312 0.26554688 2.16015625 0.40234375 C3.11792969 0.57894531 4.07570313 0.75554687 5.0625 0.9375 C6.47208984 1.19853516 6.47208984 1.19853516 7.91015625 1.46484375 C21.58614532 3.83350431 34.39432271 3.1614693 48 1 C48 1.66 48 2.32 48 3 C31.8169006 7.13185517 16.01957641 7.21567604 0 2 C0 1.34 0 0.68 0 0 Z " fill="#1D252B" transform="translate(268,226)"/>
<path d="M0 0 C9.30398112 0.25428887 17.31038058 2.79109081 24.0625 9.3125 C28.47973085 14.01806184 31.24178285 19.88167524 32.0625 26.3125 C31.4025 27.3025 30.7425 28.2925 30.0625 29.3125 C29.82015625 28.43207031 29.5778125 27.55164063 29.328125 26.64453125 C28.99296875 25.48308594 28.6578125 24.32164062 28.3125 23.125 C27.98765625 21.97644531 27.6628125 20.82789063 27.328125 19.64453125 C26.02800492 16.22168424 24.40655806 14.08498884 22.0625 11.3125 C22.0625 10.6525 22.0625 9.9925 22.0625 9.3125 C21.36125 9.044375 20.66 8.77625 19.9375 8.5 C17.0625 7.3125 17.0625 7.3125 14.4375 5.8125 C10.32139536 3.98312016 6.6349534 3.53582408 2.1875 3.125 C1.40375 3.04314453 0.62 2.96128906 -0.1875 2.87695312 C-2.10311529 2.67838325 -4.02019042 2.49398253 -5.9375 2.3125 C-3.9375 0.3125 -3.9375 0.3125 0 0 Z " fill="#1D252B" transform="translate(933.9375,139.6875)"/>
<path d="M0 0 C3.13209447 0.16062023 4.59766085 0.6365969 6.9375 2.75 C8 5 8 5 7.5 7.6875 C6 10 6 10 3.625 11 C0.41588973 11 -0.68610139 10.14249871 -3 8 C-2.25 2.25 -2.25 2.25 0 0 Z " fill="#030507" transform="translate(233,143)"/>
<path d="M0 0 C0.99 0.495 0.99 0.495 2 1 C2.506845 2.85745509 2.93085328 4.7378389 3.3125 6.625 C5.40569957 15.25306653 8.15238672 19.00163551 15.625 23.8125 C17.41225483 24.8824046 19.20335886 25.94593345 21 27 C21.99 27.66 22.98 28.32 24 29 C23.67 29.66 23.34 30.32 23 31 C13.20243382 25.85185357 4.29220884 19.97875137 0.3125 9.125 C-0.13584203 6.07627422 -0.05914146 3.07535591 0 0 Z " fill="#1D262C" transform="translate(256,163)"/>
<path d="M0 0 C0.33 0 0.66 0 1 0 C1.21914063 0.90621094 1.43828125 1.81242188 1.6640625 2.74609375 C5.11357963 15.9972876 10.59049553 23.14443235 21 32 C21.66 32.66 22.32 33.32 23 34 C17.61891666 33.67387374 14.56649041 30.73414594 11 27 C5.29234667 20.2435044 1.23321864 12.58393416 -1 4 C-0.625 1.6171875 -0.625 1.6171875 0 0 Z " fill="#1D262B" transform="translate(385,169)"/>
<path d="M0 0 C2.97 0 5.94 0 9 0 C10.20484722 5.63526965 10.1129643 11.14536115 10.0625 16.875 C10.05798828 17.84953125 10.05347656 18.8240625 10.04882812 19.828125 C10.03710906 22.21881434 10.02070219 24.6093744 10 27 C9.34 26.67 8.68 26.34 8 26 C7.67 18.08 7.34 10.16 7 2 C4.69 2 2.38 2 0 2 C0 1.34 0 0.68 0 0 Z " fill="#161D21" transform="translate(121,205)"/>
<path d="M0 0 C1.32 0.66 2.64 1.32 4 2 C3.01 2.33 2.02 2.66 1 3 C-1.95402777 4.46445119 -4.88980363 5.95820063 -7.81835938 7.47265625 C-13.15759395 10.19060526 -16.79289728 11.13341789 -22.75 11.0625 C-23.73484375 11.05347656 -24.7196875 11.04445312 -25.734375 11.03515625 C-26.48203125 11.02355469 -27.2296875 11.01195312 -28 11 C-25.47462795 8.47462795 -24.61055589 8.81061836 -21.125 8.75 C-13.11455404 8.18990285 -6.58101306 4.38734204 0 0 Z " fill="#181F24" transform="translate(452,184)"/>
<path d="M0 0 C4.19024927 0.59771758 7.9552371 1.57664191 11.9375 3 C16.34228874 4.51397471 20.368977 5.57899791 25 6 C25.33 7.32 25.66 8.64 26 10 C22.79120387 9.0432117 19.58304864 8.08429132 16.375 7.125 C15.47136719 6.85558594 14.56773437 6.58617187 13.63671875 6.30859375 C9.066017 4.9407195 4.51487996 3.54495892 0 2 C0 1.34 0 0.68 0 0 Z " fill="#1B242A" transform="translate(257,232)"/>
<path d="M0 0 C2 2 2 2 2.1953125 4.8203125 C2.13020833 7.88020833 2.06510417 10.94010417 2 14 C-2.62 12.02 -7.24 10.04 -12 8 C-11.34 7.34 -10.68 6.68 -10 6 C-7.03 6.99 -4.06 7.98 -1 9 C-0.67 6.03 -0.34 3.06 0 0 Z " fill="#242E34" transform="translate(162,77)"/>
<path d="M0 0 C7.65263536 3.71036866 12.18857865 10.47382488 15.37109375 18.1171875 C16 20 16 20 16 22 C15.34 22 14.68 22 14 22 C13.62488281 21.20335937 13.24976563 20.40671875 12.86328125 19.5859375 C8.05307543 9.49087403 8.05307543 9.49087403 0 2 C0 1.34 0 0.68 0 0 Z " fill="#1D262C" transform="translate(321,123)"/>
<path d="M0 0 C0.66 0 1.32 0 2 0 C2.33 1.65 2.66 3.3 3 5 C0.39674384 5.36247871 -2.20720402 5.71527655 -4.8125 6.0625 C-5.55048828 6.16626953 -6.28847656 6.27003906 -7.04882812 6.37695312 C-10.43174779 6.82086566 -12.72055025 7.09314992 -16 6 C-12.47844036 3.65229357 -10.49228157 3.62330386 -6.3125 3.375 C-5.13300781 3.30023438 -3.95351562 3.22546875 -2.73828125 3.1484375 C-1.83464844 3.09945312 -0.93101562 3.05046875 0 3 C0 2.01 0 1.02 0 0 Z " fill="#1F2930" transform="translate(191,132)"/>
<path d="M0 0 C0.33 0 0.66 0 1 0 C1.33 7.59 1.66 15.18 2 23 C-1.63 23 -5.26 23 -9 23 C-7 21 -7 21 -1 20 C-0.67 13.4 -0.34 6.8 0 0 Z " fill="#2E3B45" transform="translate(128,209)"/>
<path d="M0 0 C0.33 0 0.66 0 1 0 C1.13277344 1.02480469 1.26554688 2.04960937 1.40234375 3.10546875 C1.58064088 4.4661574 1.75903123 5.82683385 1.9375 7.1875 C2.02451172 7.86103516 2.11152344 8.53457031 2.20117188 9.22851562 C2.67825477 12.85081166 3.23012035 16.42803585 4 20 C3.34 20.33 2.68 20.66 2 21 C-0.26626241 14.5033811 -0.87064582 7.86572212 -1 1 C-0.67 0.67 -0.34 0.34 0 0 Z " fill="#222C33" transform="translate(138,239)"/>
<path d="M0 0 C0 3 0 3 -1.875 5.5625 C-4.76102523 9.60498215 -5.27582694 14.17853202 -6 19 C-6.66 18.67 -7.32 18.34 -8 18 C-7.35034714 10.46402678 -5.82855229 5.2255986 0 0 Z " fill="#1B242B" transform="translate(476,173)"/>
<path d="M0 0 C0.66 0 1.32 0 2 0 C0.55038946 3.1804888 -1.24746578 5.71997367 -3.4375 8.4375 C-5.87637414 11.5165786 -8.10584357 14.54595003 -10 18 C-10.66 17.67 -11.32 17.34 -12 17 C-4.32952716 4.57692871 -4.32952716 4.57692871 0 0 Z " fill="#1B2328" transform="translate(73,110)"/>
<path d="M0 0 C0.66 0 1.32 0 2 0 C0.87823088 3.36530737 0.54511927 3.62117479 -2.4375 5.1875 C-7.26273302 7.49065115 -11.75396199 7.3870028 -17 7 C-13.88885298 3.88885298 -10.10002253 4.1923479 -5.84765625 3.66015625 C-2.81649641 2.95745939 -1.97991998 2.27783897 0 0 Z " fill="#1C252B" transform="translate(508,190)"/>
<path d="M0 0 C-3.15259465 1.01333399 -4.84507423 0.81126663 -8 0 C-13.11208591 -0.37178807 -15.78282045 0.10821973 -20 3 C-20.66 3 -21.32 3 -22 3 C-21 0 -21 0 -19.2734375 -1.171875 C-13.19031771 -3.38771932 -5.84436238 -2.52729184 0 0 Z " fill="#1E282F" transform="translate(574,155)"/>
<path d="M0 0 C6.6 0.33 13.2 0.66 20 1 C20 1.33 20 1.66 20 2 C9.605 2.495 9.605 2.495 -1 3 C-0.67 2.01 -0.34 1.02 0 0 Z " fill="#29353F" transform="translate(612,178)"/>
<path d="M0 0 C0.66 0.33 1.32 0.66 2 1 C0.88037801 2.64949657 -0.24586845 4.29449838 -1.375 5.9375 C-2.00148438 6.85402344 -2.62796875 7.77054687 -3.2734375 8.71484375 C-5 11 -5 11 -7 12 C-6.42341728 8.10806661 -4.5000475 5.95460159 -2 3 C-1.34 2.01 -0.68 1.02 0 0 Z " fill="#242E35" transform="translate(271,276)"/>
<path d="M0 0 C1.32 0.66 2.64 1.32 4 2 C3.67 2.66 3.34 3.32 3 4 C2.38125 4.144375 1.7625 4.28875 1.125 4.4375 C-1.36710392 5.09717457 -2.3329446 6.08288629 -4 8 C-4.66 7.67 -5.32 7.34 -6 7 C-4.02 4.69 -2.04 2.38 0 0 Z " fill="#192127" transform="translate(838,211)"/>
<path d="M0 0 C0.66 0.33 1.32 0.66 2 1 C0.51218185 4.78717347 -1.61988409 6.77407001 -5 9 C-5.99 8.67 -6.98 8.34 -8 8 C-7.50628906 7.59007812 -7.01257813 7.18015625 -6.50390625 6.7578125 C-5.86324219 6.21898437 -5.22257813 5.68015625 -4.5625 5.125 C-3.92441406 4.59132812 -3.28632812 4.05765625 -2.62890625 3.5078125 C-0.89194996 2.0777243 -0.89194996 2.0777243 0 0 Z " fill="#1D2429" transform="translate(962,195)"/>
<path d="M0 0 C1.12894876 0.93274109 2.25300876 1.87140122 3.375 2.8125 C4.00148438 3.33457031 4.62796875 3.85664063 5.2734375 4.39453125 C7 6 7 6 9 9 C8.01 9 7.02 9 6 9 C4 6.6875 4 6.6875 2 4 C1.01769502 2.9826127 0.02530403 1.97403883 -1 1 C-0.67 0.67 -0.34 0.34 0 0 Z " fill="#1C242A" transform="translate(257,25)"/>
<path d="M0 0 C0.556875 0.391875 1.11375 0.78375 1.6875 1.1875 C0.6975 1.5175 -0.2925 1.8475 -1.3125 2.1875 C-2.54625064 2.69737981 -3.77538115 3.21856163 -5 3.75 C-6.093125 4.224375 -7.18625 4.69875 -8.3125 5.1875 C-7.3125 2.1875 -7.3125 2.1875 -5 0.375 C-2.3125 -0.8125 -2.3125 -0.8125 0 0 Z " fill="#202A31" transform="translate(454.3125,184.8125)"/>
<path d="M0 0 C2.70608417 1.35304209 2.96183047 2.80966544 4.125 5.5625 C4.47820313 6.38878906 4.83140625 7.21507812 5.1953125 8.06640625 C5.46085938 8.70449219 5.72640625 9.34257812 6 10 C2.15625 8.3046875 2.15625 8.3046875 0.75 5.5625 C0 3 0 3 0 0 Z " fill="#1D272E" transform="translate(612,181)"/>
<path d="M0 0 C1.33333333 2.66666667 2.66666667 5.33333333 4 8 C2.35 7.01 0.7 6.02 -1 5 C-0.67 3.35 -0.34 1.7 0 0 Z " fill="#26323C" transform="translate(552,158)"/>
</svg>
