<?xml version="1.0" encoding="UTF-8"?>
<svg version="1.1" xmlns="http://www.w3.org/2000/svg" width="1024" height="320">
<path d="M0 0 C2.48661202 1.93234431 4.84569338 3.94176623 7.18359375 6.05078125 C7.8796875 6.6540625 8.57578125 7.25734375 9.29296875 7.87890625 C21.54781389 19.18376339 29.25164046 36.34431846 30.38011551 52.94107437 C30.46724162 56.15153548 30.4962665 59.35720774 30.50244141 62.56884766 C30.51750984 64.38520218 30.51750984 64.38520218 30.53288269 66.23825073 C30.55830304 69.52681812 30.57526184 72.81529269 30.58831072 76.10392809 C30.60404467 79.55260033 30.63080158 83.00118754 30.65634155 86.44979858 C30.70294902 92.96597128 30.73977979 99.48216031 30.77301443 105.99841344 C30.81136402 113.42298254 30.86074011 120.84746586 30.91099858 128.2719624 C31.0140499 143.53150649 31.10339657 158.79109889 31.18359375 174.05078125 C21.89721284 172.35122398 14.15291391 167.27500987 8.18359375 160.05078125 C7.50220589 159.24352852 7.50220589 159.24352852 6.80705261 158.41996765 C1.26205576 150.36163229 2.49436481 140.54843185 2.546875 131.1953125 C2.53882167 129.24630091 2.52829598 127.29729812 2.51542664 125.34831238 C2.48695471 120.22936707 2.48628558 115.11082708 2.49328613 109.99182129 C2.50062083 101.81874042 2.4689218 93.64579026 2.43083763 85.47281456 C2.42209109 82.64029167 2.42724739 79.80806164 2.43440247 76.97554016 C2.42877959 58.19539147 1.15850001 40.74961131 -12.3671875 26.40625 C-21.40762174 17.88364493 -34.04682972 14.50970017 -46.2421875 14.796875 C-59.12747393 16.06780613 -69.05080867 21.7125567 -77.81640625 31.05078125 C-86.87400942 42.8237665 -88.02883237 56.67661388 -87.81640625 71.05078125 C-92.44376715 70.42546221 -92.44376715 70.42546221 -94.2421875 68.6171875 C-96.52663223 66.34407996 -98.93116009 65.87804479 -102.00390625 64.98828125 C-103.09058594 64.66730469 -104.17726562 64.34632812 -105.296875 64.015625 C-109.1239951 62.96645889 -112.96297032 61.99834746 -116.81640625 61.05078125 C-115.17670121 38.09491065 -108.47240215 18.72041329 -90.81640625 3.05078125 C-64.55501451 -17.82251022 -27.63353719 -19.12501395 0 0 Z " fill="#384855" transform="translate(252.81640625,21.94921875)"/>
<path d="M0 0 C9.18013186 1.02894648 16.54565293 7.99656959 22.34375 14.69140625 C26.49844646 20.48250438 27.50196581 25.14245352 27.6875 32.0859375 C27.73765259 33.44505753 27.73765259 33.44505753 27.78881836 34.83163452 C28.1950715 47.42403097 28.06923069 60.02831075 28 72.625 C27.84371404 92.24972425 27.84371404 92.24972425 28.3984375 111.86328125 C28.43243652 112.60554962 28.46643555 113.34781799 28.50146484 114.11257935 C29.26021659 127.19473672 34.88583565 137.29729995 44.1875 146.3125 C55.05742417 155.55474189 68.31094453 157.0669893 82 156 C92.49294065 154.0581626 102.07907301 148.35494512 108.6953125 139.92578125 C116.05121781 129.06811264 118.24972965 116.9098243 119 104 C122.15093206 104 123.48753129 104.54482497 126.3125 105.8125 C132.67254724 108.46016411 139.25434 109.7169638 146 111 C147.28696889 115.51320597 146.71044763 119.47233095 145.875 124 C145.73666748 124.75112061 145.59833496 125.50224121 145.45581055 126.27612305 C143.08268923 138.3442975 138.3502215 148.15240595 131 158 C130.45601562 158.72960937 129.91203125 159.45921875 129.3515625 160.2109375 C118.68142158 173.37945288 101.75647769 182.7184181 85 185 C63.68738612 186.81400513 44.30206323 183.18210362 27.125 169.625 C12.26354719 156.67834638 1.61099312 139.23320699 -0.25030136 119.32246208 C-0.41546077 116.49676295 -0.52821071 113.67458837 -0.61669922 110.84545898 C-0.65429792 109.80479751 -0.69189663 108.76413603 -0.73063469 107.69193935 C-1.10023661 96.61956505 -1.14543548 85.55008197 -1.1328125 74.47265625 C-1.13348865 72.33458953 -1.13446125 70.19652288 -1.13571167 68.05845642 C-1.13716667 63.63946785 -1.13510124 59.22049982 -1.13037109 54.80151367 C-1.12459377 49.12776902 -1.12801623 43.45407086 -1.13394356 37.7803278 C-1.13754074 33.39421735 -1.13641589 29.00811814 -1.13381577 24.62200737 C-1.13314829 22.52672762 -1.13396868 20.43144685 -1.13629532 18.33616829 C-1.13881653 15.43640502 -1.13499258 12.53672026 -1.12939453 9.63696289 C-1.13141876 8.77124161 -1.13344299 7.90552032 -1.13552856 7.01356506 C-1.11427972 1.11427972 -1.11427972 1.11427972 0 0 Z " fill="#394956" transform="translate(137,128)"/>
<path d="M0 0 C21.89743132 -0.72991438 39.34789093 3.74020774 56 19 C68.99013894 31.25156917 77.52600214 49.03862687 78.203125 66.99609375 C78.59575541 88.79198928 73.20471701 106.98652145 58 123 C45.27112001 136.09707073 27.91385441 143.89068197 9.70776367 144.35791016 C-12.30967912 144.50359699 -32.95684759 137.82355386 -49.3671875 122.69140625 C-55.47102609 116.36853039 -60.43894314 109.70998103 -64.625 102 C-64.98005615 101.35297119 -65.3351123 100.70594238 -65.70092773 100.03930664 C-66.55287221 98.40128411 -67.2863192 96.70281734 -68 95 C-67.67 94.01 -67.34 93.02 -67 92 C-64.6640625 91.19140625 -64.6640625 91.19140625 -61.625 90.5625 C-56.2780341 89.3678971 -51.35037234 87.72790421 -46.27734375 85.671875 C-44 85 -44 85 -41 86 C-40.08767194 87.89223597 -39.17720439 89.78539716 -38.27734375 91.68359375 C-32.14206797 102.80964432 -20.90555828 110.27826245 -9 114 C3.41306915 117.26311587 17.78427484 116.17513192 29 110 C38.37245103 104.2877055 44.85258307 95.85910319 47.7578125 85.2265625 C50.59957628 70.93769391 48.49256208 58.46993463 41.1875 45.875 C33.7395912 36.08631986 25.1797539 30.94876062 13 29 C8.71 28.67 4.42 28.34 0 28 C0 18.76 0 9.52 0 0 Z " fill="#384955" transform="translate(288,89)"/>
<path d="M0 0 C0.86367187 0.42152344 1.72734375 0.84304687 2.6171875 1.27734375 C10.99472674 5.54647346 18.27774814 10.37464547 25 17 C25 17.66 25 18.32 25 19 C25.66 19 26.32 19 27 19 C34.06488627 26.04830203 38.79269675 35.04829095 43 44 C43 44.66 43 45.32 43 46 C42.40574219 46.0501123 41.81148437 46.10022461 41.19921875 46.15185547 C38.46552591 46.38621755 35.7328079 46.63054322 33 46.875 C32.06542969 46.95363281 31.13085938 47.03226563 30.16796875 47.11328125 C24.58635381 47.62070079 19.39776026 48.48506257 14 50 C13.74347656 49.443125 13.48695313 48.88625 13.22265625 48.3125 C7.37768663 36.66192083 -2.30935337 30.87110276 -14 26 C-26.14833647 22.63734047 -39.37697537 24.68832652 -50.1875 30.75 C-55.88489888 34.37480181 -60.78985025 38.10616364 -63.4375 44.4375 C-63.7159375 45.7059375 -63.7159375 45.7059375 -64 47 C-64.66 47 -65.32 47 -66 47 C-70.76691005 61.96030261 -71.56843552 76.21500864 -64.4375 90.625 C-63.63548029 92.0891232 -62.82385771 93.54805274 -62 95 C-61.65582031 95.73089844 -61.31164062 96.46179688 -60.95703125 97.21484375 C-59.69013918 99.57798528 -58.41260317 99.86071517 -56 101 C-55.175 101.763125 -54.35 102.52625 -53.5 103.3125 C-44.13619263 111.16601586 -32.65207626 111.96634807 -21 113 C-21 122.24 -21 131.48 -21 141 C-43.03984897 141 -60.31692572 135.375249 -77 121 C-77.94359375 120.20142578 -77.94359375 120.20142578 -78.90625 119.38671875 C-92.37894899 107.04695126 -97.90880018 88.73119758 -99.21875 71.046875 C-99.86234216 50.98825253 -92.14072951 32.69367968 -79.06640625 17.796875 C-60.5642241 -1.71045588 -25.49562621 -12.7478131 0 0 Z " fill="#384955" transform="translate(152,93)"/>
<path d="M0 0 C6.40508692 3.98727265 9.51084399 8.01212595 11.359375 15.40625 C11.60162507 22.18925202 9.5456304 26.35875051 5.21484375 31.328125 C3.484375 32.90625 3.484375 32.90625 0.90942383 34.12133789 C-1.79496246 35.69589939 -1.79496246 35.69589939 -2.09570312 38.69018555 C-2.07958984 39.796604 -2.06347656 40.90302246 -2.046875 42.04296875 C-2.05332031 43.26048828 -2.05976563 44.47800781 -2.06640625 45.73242188 C-2.0328089 48.28711277 -1.99895869 50.84180034 -1.96484375 53.39648438 C-2.00329001 60.69742833 -2.22487383 66.45421805 -7.515625 71.90625 C-13.4796742 75.46174087 -19.90247597 75.35156471 -26.70019531 75.52905273 C-31.07354023 75.49242418 -31.07354023 75.49242418 -34.515625 77.90625 C-34.74069884 80.78251829 -34.83992906 83.53078024 -34.828125 86.40625 C-34.84423828 87.19128906 -34.86035156 87.97632813 -34.87695312 88.78515625 C-34.91517177 91.32810612 -34.91517177 91.32810612 -34.515625 94.90625 C-29.79027679 98.05648214 -25.03098099 97.79968139 -19.515625 96.90625 C-16.20604725 95.11930784 -13.98671722 92.71113895 -11.515625 89.90625 C-10.7525 89.08769531 -9.989375 88.26914063 -9.203125 87.42578125 C-7.63494698 85.7209035 -6.08990584 83.99441481 -4.5703125 82.24609375 C-2.515625 79.90625 -2.515625 79.90625 -0.8359375 78.28515625 C1.25067943 76.20443372 2.43920589 74.57249444 2.640625 71.6015625 C2.5778255 69.87980955 2.50480997 68.15840058 2.421875 66.4375 C2.52497092 62.26211528 3.9372169 59.17686129 6.484375 55.90625 C9.9066807 52.76765876 13.38749969 51.65684627 17.984375 51.40625 C22.82425643 51.65360339 25.60121495 53.01291506 29.484375 55.90625 C32.31191943 59.403476 34.26830368 62.36875232 34.484375 66.90625 C33.78747798 72.15978138 32.41835032 76.184922 28.484375 79.90625 C24.07649608 82.42503795 21.15355916 82.94758559 16.109375 82.96875 C11.07444226 83.29981407 9.07744407 84.72633821 5.734375 88.46875 C5.01765625 89.39171875 4.3009375 90.3146875 3.5625 91.265625 C1.484375 93.90625 1.484375 93.90625 -0.59375 95.609375 C-4.6259236 98.98591062 -5.68080091 101.92402917 -6.16796875 107.07421875 C-6.49317363 112.35031063 -6.57222926 117.62127484 -6.515625 122.90625 C-5.74347656 123.03902344 -4.97132813 123.17179687 -4.17578125 123.30859375 C-0.07658324 124.22955894 2.32013003 126.20146272 4.6875 129.66796875 C7.31104106 134.37001945 8.51077185 138.5565452 7.484375 143.90625 C5.3818392 150.06769182 2.28599632 153.70194857 -3.375 156.984375 C-7.9148486 158.93949228 -13.06484035 158.57734874 -17.76953125 157.2890625 C-22.32231215 155.33663654 -25.27124542 152.65878795 -27.66796875 148.3203125 C-29.77561297 142.31789715 -29.59451095 136.18850874 -26.890625 130.46875 C-24.515625 127.90625 -24.515625 127.90625 -21.328125 125.84375 C-18.78259968 123.92017923 -18.51995866 122.92917643 -17.91015625 119.703125 C-17.66564112 116.42874844 -17.52523835 113.18920808 -17.515625 109.90625 C-18.5778125 109.95265625 -19.64 109.9990625 -20.734375 110.046875 C-35.07460111 110.48928623 -35.07460111 110.48928623 -41.515625 105.90625 C-47.3609911 99.90705848 -47.8788421 94.10023138 -47.890625 86.09375 C-47.91511719 85.22943359 -47.93960938 84.36511719 -47.96484375 83.47460938 C-47.99188035 77.50402685 -47.01154295 72.84044624 -43.515625 67.90625 C-38.97494537 64.2169478 -35.22499971 62.84410843 -29.4765625 62.6953125 C-28.73148438 62.66695312 -27.98640625 62.63859375 -27.21875 62.609375 C-25.65910397 62.55703788 -24.0991646 62.51284394 -22.5390625 62.4765625 C-20.52401875 62.39260234 -18.51652296 62.1589514 -16.515625 61.90625 C-13.49314283 57.37252675 -13.98944171 52.93314645 -13.890625 47.59375 C-13.80361328 46.04397461 -13.80361328 46.04397461 -13.71484375 44.46289062 C-13.5142015 38.7407559 -13.5142015 38.7407559 -16.25292969 33.97241211 C-18.34904041 32.39205633 -18.34904041 32.39205633 -20.54345703 31.18017578 C-23.98362119 28.95799497 -25.40132796 25.75372846 -26.515625 21.90625 C-27.3538565 16.23132639 -26.8503465 11.69991216 -23.515625 6.90625 C-16.82939021 0.17822624 -9.53587663 -4.14603332 0 0 Z M-13.453125 11.96875 C-15.17552292 15.10959326 -15.00710741 17.40443786 -14.515625 20.90625 C-12.52542383 23.56509601 -12.52542383 23.56509601 -9.515625 24.90625 C-5.97227539 24.90625 -4.25895717 24.55366834 -1.578125 22.21875 C-0.11453011 19.03327876 -0.52633532 17.22743677 -1.515625 13.90625 C-2.515625 11.90625 -2.515625 11.90625 -4.515625 10.90625 C-7.9249962 10.54096023 -10.39586324 10.2921871 -13.453125 11.96875 Z M13.484375 64.90625 C13.15104167 67.40625 13.15104167 67.40625 13.484375 69.90625 C15.31140727 72.1554408 15.31140727 72.1554408 17.984375 72.15625 C20.65734273 72.1554408 20.65734273 72.1554408 22.484375 69.90625 C22.29680438 66.08060335 22.29680438 66.08060335 20.484375 62.90625 C16.523207 62.51534667 16.523207 62.51534667 13.484375 64.90625 Z M-15.515625 134.90625 C-17.84858751 137.73342213 -17.84858751 137.73342213 -17.265625 140.96875 C-16.7563006 144.005709 -16.7563006 144.005709 -14.515625 145.90625 C-11.25775452 146.82695253 -9.32265906 147.22481608 -6.140625 145.96875 C-3.53294987 142.65900849 -4.12144464 140.04514383 -4.515625 135.90625 C-7.96701404 132.45486096 -11.5003334 132.13708338 -15.515625 134.90625 Z " fill="#3F74A8" transform="translate(217.515625,82.09375)"/>
<path d="M0 0 C0 0.66 0 1.32 0 2 C0.845625 2.061875 1.69125 2.12375 2.5625 2.1875 C7.01759223 3.2405218 9.40590917 5.19660915 13 8 C13.66 6.02 14.32 4.04 15 2 C17.47923801 1.97314905 19.9581884 1.95323453 22.4375 1.9375 C23.14455078 1.92912109 23.85160156 1.92074219 24.58007812 1.91210938 C26.38693559 1.90346412 28.19387603 1.94779989 30 2 C31.73155624 3.73155624 31.13651326 6.07221621 31.14526367 8.4309082 C31.15164352 9.59334549 31.15802338 10.75578278 31.16459656 11.95344543 C31.16570938 13.22306625 31.1668222 14.49268707 31.16796875 15.80078125 C31.17296135 17.75361275 31.17296135 17.75361275 31.17805481 19.74589539 C31.18405912 22.51428045 31.18589384 25.28263427 31.18530273 28.05102539 C31.18520209 31.5664852 31.19874588 35.08173856 31.21607494 38.59714985 C31.2300196 41.97752912 31.2292885 45.35787371 31.23046875 48.73828125 C31.23765427 49.98563553 31.24483978 51.23298981 31.25224304 52.5181427 C31.22067675 64.8005319 30.66247663 76.36843586 22.28125 85.96875 C14.55128545 93.44527309 5.59960339 95.61134955 -4.9375 95.47290039 C-15.05196943 95.0294309 -24.64992407 92.2343267 -32 85 C-32.66 84.01 -33.32 83.02 -34 82 C-33.34 82 -32.68 82 -32 82 C-31.7525 81.46375 -31.505 80.9275 -31.25 80.375 C-29.70303025 77.43575748 -27.86985631 74.74245592 -26 72 C-21.77093646 72.85948636 -18.31777751 74.83258816 -14.53515625 76.84375 C-8.51387959 79.58997171 -2.09636874 79.87986946 4.1875 77.8125 C7.88708306 76.299686 9.85459616 74.43264614 12 71 C13.1577506 67.52674819 13.06866652 64.63932552 13 61 C11.948125 61.763125 10.89625 62.52625 9.8125 63.3125 C4.32644932 66.79194116 -1.69017804 67.81690838 -8 69 C-8 68.34 -8 67.68 -8 67 C-8.556875 66.99742187 -9.11375 66.99484375 -9.6875 66.9921875 C-17.89974109 66.57602663 -22.21283155 62.91385793 -27.75 57.125 C-34.16201792 48.21941956 -35.91093225 39.93118702 -35 29 C-33.03219946 19.2397093 -29.67235198 10.98298021 -21.3125 5.1875 C-14.91769246 1.55436558 -7.3719882 -0.59772877 0 0 Z M-13.515625 20.6171875 C-17.86049642 26.43531992 -18.66784691 31.82368141 -18 39 C-16.3507951 44.20801547 -14.24406064 47.54553204 -10 51 C-5.06174314 53.46912843 -0.2382591 53.57329657 5 52 C10.34561611 48.7096113 13.283574 44.98510835 14.75 38.875 C15.15619944 32.57890864 14.09291841 27.22631529 11.3125 21.5625 C7.61417775 17.46435912 3.92079354 16.20579931 -1.5 15.625 C-6.23440808 16.13225801 -10.15503219 17.03140033 -13.515625 20.6171875 Z " fill="#384853" transform="translate(863,140)"/>
<path d="M0 0 C0.78503906 0.69416016 0.78503906 0.69416016 1.5859375 1.40234375 C1.5859375 2.06234375 1.5859375 2.72234375 1.5859375 3.40234375 C2.2459375 3.40234375 2.9059375 3.40234375 3.5859375 3.40234375 C4.0809375 4.88734375 4.0809375 4.88734375 4.5859375 6.40234375 C2.82113669 8.22107735 1.04962985 10.03229366 -0.7265625 11.83984375 C-1.47583008 12.61424805 -1.47583008 12.61424805 -2.24023438 13.40429688 C-4.61275885 15.80824551 -6.16376629 17.31891168 -9.4140625 18.40234375 C-9.9090625 17.28859375 -9.9090625 17.28859375 -10.4140625 16.15234375 C-14.27669876 10.84121889 -21.11421992 8.59714148 -27.4140625 7.40234375 C-34.94334618 7.17302547 -41.14544457 9.27913516 -47.4140625 13.40234375 C-53.91708253 19.62262378 -57.26623648 28.02738957 -57.51171875 36.953125 C-57.50011719 38.19449219 -57.48851562 39.43585938 -57.4765625 40.71484375 C-57.46753906 41.96910156 -57.45851563 43.22335938 -57.44921875 44.515625 C-57.43761719 45.46824219 -57.42601562 46.42085937 -57.4140625 47.40234375 C-56.7540625 47.73234375 -56.0940625 48.06234375 -55.4140625 48.40234375 C-55.1871875 49.24796875 -54.9603125 50.09359375 -54.7265625 50.96484375 C-52.3530336 57.18122895 -48.10732039 61.82435312 -42.1640625 64.83984375 C-35.34907848 67.87932662 -28.06014929 68.80519806 -20.80078125 66.61328125 C-18.59684779 65.64280971 -16.50864696 64.5888466 -14.4140625 63.40234375 C-13.4240625 62.86609375 -12.4340625 62.32984375 -11.4140625 61.77734375 C-9.28786265 60.55301581 -9.28786265 60.55301581 -8.4140625 58.40234375 C-4.64170821 58.9728804 -2.78690199 60.56877796 -0.1015625 63.21484375 C0.61644531 63.90191406 1.33445312 64.58898437 2.07421875 65.296875 C3.5859375 67.40234375 3.5859375 67.40234375 3.59765625 69.4140625 C0.50813061 75.48575575 -7.53892928 80.18437035 -13.74609375 82.65625 C-23.84272302 85.47975833 -34.06439245 85.85286569 -44.4140625 84.40234375 C-44.4140625 83.74234375 -44.4140625 83.08234375 -44.4140625 82.40234375 C-44.95933594 82.26699219 -45.50460937 82.13164062 -46.06640625 81.9921875 C-57.2026616 78.81311973 -65.13919991 70.97281763 -71.1015625 61.27734375 C-78.13050536 47.96770033 -77.64074389 33.45962117 -73.4140625 19.40234375 C-68.32599921 7.51518703 -60.45785455 -1.53592604 -48.53515625 -6.890625 C-30.85729062 -13.55289545 -15.53846912 -10.28354995 0 0 Z " fill="#384854" transform="translate(459.4140625,125.59765625)"/>
<path d="M0 0 C7.45196827 7.38999764 8.30294376 15.60559124 8.5546875 25.640625 C8.59796677 27.14662262 8.59796677 27.14662262 8.64212036 28.68304443 C8.69894125 30.79410369 8.7507618 32.90530283 8.79785156 35.01660156 C8.87510119 38.25424086 8.98386589 41.48988683 9.09375 44.7265625 C9.14516103 46.78120257 9.19470561 48.83589037 9.2421875 50.890625 C9.27843231 51.85937561 9.31467712 52.82812622 9.35202026 53.82623291 C9.36588776 54.72436707 9.37975525 55.62250122 9.39404297 56.54785156 C9.4146579 57.33726135 9.43527283 58.12667114 9.45651245 58.94000244 C9 61 9 61 7.10037231 62.77825928 C5 64 5 64 3 64 C3 63.34 3 62.68 3 62 C2.28972656 62.01160156 1.57945312 62.02320313 0.84765625 62.03515625 C-0.07144531 62.04417969 -0.99054687 62.05320312 -1.9375 62.0625 C-2.85402344 62.07410156 -3.77054688 62.08570313 -4.71484375 62.09765625 C-7 62 -7 62 -8 61 C-8.04063832 59.33382885 -8.042721 57.66611905 -8 56 C-9.01320313 56.63228516 -9.01320313 56.63228516 -10.046875 57.27734375 C-10.93890625 57.82519531 -11.8309375 58.37304688 -12.75 58.9375 C-13.63171875 59.48277344 -14.5134375 60.02804688 -15.421875 60.58984375 C-21.43466752 63.87865905 -28.60964907 63.89941217 -35.25 62.5390625 C-40.95546205 60.6446708 -45.91443009 57.33261172 -49.13671875 52.18359375 C-51.79605384 46.22716448 -51.45803453 40.06673415 -49.27734375 33.984375 C-46.29327954 28.04208263 -41.62804021 24.95565098 -35.5625 22.75 C-26.49161684 20.84034039 -17.11903651 19.92973225 -8 22 C-8.40011982 20.72386027 -8.82092088 19.45419633 -9.25 18.1875 C-9.59804688 17.12595703 -9.59804688 17.12595703 -9.953125 16.04296875 C-11.28782597 13.43830977 -12.44306713 12.42784052 -15 11 C-23.92979735 9.54800043 -30.39308826 11.52102687 -38 16 C-38.99 16.33 -39.98 16.66 -41 17 C-42.20276695 15.59627198 -43.38680519 14.17647903 -44.5625 12.75 C-45.22378906 11.96109375 -45.88507813 11.1721875 -46.56640625 10.359375 C-48 8 -48 8 -47.9765625 5.92578125 C-45.28434571 0.61672973 -39.06652994 -2.28279255 -33.6796875 -4.15234375 C-22.05263109 -6.97457109 -10.02735274 -7.34372127 0 0 Z M-31.9375 36.25 C-33.57804951 38.95208154 -34 40.83035335 -34 44 C-32.38300481 47.12083474 -32.38300481 47.12083474 -29 49 C-22.84759567 49.98961284 -17.21211882 49.64848317 -12 46 C-8.33442725 42.58722537 -8.39760364 38.77124363 -8 34 C-15.56462375 32.04783903 -25.17288058 31.88572941 -31.9375 36.25 Z " fill="#384854" transform="translate(519,147)"/>
<path d="M0 0 C7.45114066 5.90230805 10.89568171 13.9070874 12.4375 23.12890625 C13.45364307 32.04193261 13.45364307 32.04193261 11.7109375 35.52734375 C-3.65960985 35.65168545 -18.94345548 35.43097571 -34.2890625 34.52734375 C-33.67629863 35.81394055 -33.05642558 37.097153 -32.43359375 38.37890625 C-32.08917236 39.09385254 -31.74475098 39.80879883 -31.38989258 40.54541016 C-29.16631404 44.54873918 -26.23333183 46.13852697 -22.1015625 47.83984375 C-15.32638966 49.06159623 -9.6761657 48.72575178 -3.7890625 44.96484375 C-3.16 44.50980469 -2.5309375 44.05476563 -1.8828125 43.5859375 C-0.2890625 42.52734375 -0.2890625 42.52734375 1.7109375 42.52734375 C3.05517089 44.1852316 4.38712233 45.85310692 5.7109375 47.52734375 C7.83696935 49.2905788 7.83696935 49.2905788 9.7109375 50.52734375 C7.28333578 56.70669359 1.32822867 59.6183894 -4.2890625 62.52734375 C-13.10628308 64.86629232 -24.66828666 64.97145609 -32.98046875 60.9765625 C-42.87999348 54.76214004 -47.72326682 47.52496832 -51.6640625 36.77734375 C-53.639823 27.16972406 -51.89812758 17.69105827 -47.14453125 9.22265625 C-36.27004379 -6.57396764 -16.12677077 -10.37507266 0 0 Z M-30.2890625 11.52734375 C-33.28790591 15.23643955 -34.2890625 16.69782205 -34.2890625 21.52734375 C-24.3890625 21.52734375 -14.4890625 21.52734375 -4.2890625 21.52734375 C-5.24093361 15.81611709 -5.51027278 14.41409889 -9.2890625 10.52734375 C-15.47047566 6.67904532 -24.50630685 7.29605913 -30.2890625 11.52734375 Z " fill="#384753" transform="translate(954.2890625,146.47265625)"/>
<path d="M0 0 C7.95665136 6.7567464 12.00654801 13.72078878 13.29296875 24.078125 C13.43575572 27.75250975 13.41659822 31.40358241 13.29296875 35.078125 C10.42792967 35.90361091 7.95954811 36.18053227 4.98339844 36.09985352 C4.14282898 36.07975723 3.30225952 36.05966095 2.43621826 36.03895569 C1.53816467 36.01192062 0.64011108 35.98488556 -0.28515625 35.95703125 C-1.6750174 35.92161476 -1.6750174 35.92161476 -3.09295654 35.88548279 C-6.04781018 35.80900617 -9.00239112 35.72491293 -11.95703125 35.640625 C-13.96222631 35.5873883 -15.96743462 35.53464801 -17.97265625 35.48242188 C-22.88428675 35.35341264 -27.79568647 35.21757279 -32.70703125 35.078125 C-31.14135795 40.09382177 -29.61052608 44.33477389 -24.8984375 47.1640625 C-19.95467195 49.22616792 -14.28474905 49.83972344 -9.12890625 48.31640625 C-6.91713221 47.33136119 -4.81834856 46.26129886 -2.70703125 45.078125 C-1.37601269 44.40684874 -0.04334068 43.73880595 1.29296875 43.078125 C2.80427213 44.14563294 4.30175578 45.23272782 5.79296875 46.328125 C6.62828125 46.93140625 7.46359375 47.5346875 8.32421875 48.15625 C8.97390625 48.79046875 9.62359375 49.4246875 10.29296875 50.078125 C10.29296875 54.078125 10.29296875 54.078125 8.640625 55.89453125 C-1.67973023 63.78034115 -10.94577815 65.17845108 -23.70703125 64.078125 C-31.92778588 62.46242662 -38.35039806 58.51648606 -43.70703125 52.078125 C-49.97706296 41.90087353 -52.65075204 31.74035895 -49.98828125 19.875 C-46.57916533 8.93283762 -41.73788435 2.78799522 -31.70703125 -2.921875 C-21.91035609 -7.16334739 -8.67035185 -6.15557447 0 0 Z M-31.51953125 15.015625 C-33.05327907 17.42566039 -33.05327907 17.42566039 -33.70703125 22.078125 C-23.47703125 22.078125 -13.24703125 22.078125 -2.70703125 22.078125 C-5.24059834 14.36195427 -5.24059834 14.36195427 -10.70703125 10.078125 C-18.91929337 7.34070429 -25.5491655 8.63350989 -31.51953125 15.015625 Z " fill="#374753" transform="translate(646.70703125,145.921875)"/>
<path d="M0 0 C0.495 0.99 0.495 0.99 1 2 C1.969375 2.0825 2.93875 2.165 3.9375 2.25 C10.72542384 3.06008145 16.86408366 7.39586197 21.375 12.375 C27.59577315 20.45849053 30.42757014 29.40240759 29.84765625 39.70703125 C28.04791934 50.59115447 22.90312161 58.5749139 14 65 C5.36455736 70.24511921 -3.03822956 70.87177735 -13 70 C-22.08956787 67.51352343 -29.52633084 63.14800374 -34.828125 55.1953125 C-40.07046697 45.37465854 -41.45415888 35.16794417 -38.23828125 24.46484375 C-34.52812742 15.33817842 -28.77852843 8.53817301 -20 4 C-13.50844182 1.34953925 -6.96272991 0.42961525 0 0 Z M-19.375 22.1875 C-22.72661692 27.98837544 -23.58849728 34.18933006 -22.60546875 40.79296875 C-21.21697067 45.8542682 -18.60669188 49.78518419 -14.4375 52.9375 C-9.35451659 55.15315944 -4.41514006 56.01934789 1.0546875 54.38671875 C6.63492221 51.99669369 9.74374923 48.62610171 12 43 C13.71339688 36.39118347 13.46366021 29.98670981 10 24 C5.62752334 19.15482316 1.94885868 16.24990328 -4.6875 15.6875 C-10.62458883 15.77497092 -15.07123261 18.22350372 -19.375 22.1875 Z " fill="#384754" transform="translate(750,140)"/>
<path d="M0 0 C0.33 0.66 0.66 1.32 1 2 C2.86001353 2.31755209 2.86001353 2.31755209 5.0625 2.375 C12.41135467 3.04201388 16.82676041 5.82676041 22 11 C19.36 14.63 16.72 18.26 14 22 C12.329375 21.195625 10.65875 20.39125 8.9375 19.5625 C1.58180728 16.24725821 -3.40612261 15.36538948 -11 18 C-11.33 19.98 -11.66 21.96 -12 24 C-11.46375 24.15855469 -10.9275 24.31710938 -10.375 24.48046875 C-8.66866887 24.98843904 -6.96447875 25.50362204 -5.26171875 26.0234375 C-2.85249724 26.7447613 -0.44318839 27.43284795 1.98046875 28.1015625 C15.75284785 32.00325469 15.75284785 32.00325469 21 38 C23.56829936 43.26808163 23.54220771 48.24751512 23 54 C20.35154033 61.52720116 14.85163422 65.51189531 8 69 C-1.40957905 71.88587521 -10.35098239 71.78622519 -19.22265625 67.546875 C-23.3219769 65.26370907 -27.2192601 62.77827099 -31 60 C-30.67 58.68 -30.34 57.36 -30 56 C-29.34 56 -28.68 56 -28 56 C-27.7525 55.4225 -27.505 54.845 -27.25 54.25 C-25.83316683 51.6997003 -24.12372463 49.98214299 -22 48 C-21.56171875 48.33773437 -21.1234375 48.67546875 -20.671875 49.0234375 C-14.48895274 53.37159015 -7.30678712 55.75811245 0.32421875 54.66796875 C2.417972 54.11688347 2.417972 54.11688347 5 53 C5.33 51.02 5.66 49.04 6 47 C1.80834246 44.75174732 -2.14798858 43.30153233 -6.75 42.125 C-23.06644048 37.50746457 -23.06644048 37.50746457 -27.1875 30.3125 C-29.41706963 25.00738928 -29.55224312 20.51908666 -28 15 C-25.39806446 9.58797407 -21.37683568 5.63402789 -16 3 C-10.76911464 1.50451685 -5.3798705 0.74430247 0 0 Z " fill="#384854" transform="translate(566,140)"/>
<path d="M0 0 C-0.33 4.62 -0.66 9.24 -1 14 C-1.99 14 -2.98 14 -4 14 C-4 13.34 -4 12.68 -4 12 C-7.3 12 -10.6 12 -14 12 C-14.33 12.66 -14.66 13.32 -15 14 C-15.66 14.99 -16.32 15.98 -17 17 C-17.45139459 19.0492094 -17.45139459 19.0492094 -17.625 21.1875 C-17.74875 22.445625 -17.8725 23.70375 -18 25 C-17.15308594 24.7525 -17.15308594 24.7525 -16.2890625 24.5 C-13.89076612 23.97614004 -11.82407095 23.93447302 -9.375 24 C-6.05700369 24.12662242 -6.05700369 24.12662242 -3 23 C-3 23.66 -3 24.32 -3 25 C-2.34 25 -1.68 25 -1 25 C-1 29.62 -1 34.24 -1 39 C-6.06842075 41.53421037 -12.34588411 39.37694106 -18 39 C-18 56.16 -18 73.32 -18 91 C-23.28 91 -28.56 91 -34 91 C-35.5877636 87.8244728 -35.1418228 84.40041911 -35.1328125 80.9140625 C-35.13376923 80.10190277 -35.13472595 79.28974304 -35.13571167 78.45297241 C-35.13639342 76.72629723 -35.13453947 74.9996195 -35.13037109 73.27294922 C-35.12509166 70.67018607 -35.13027996 68.06760101 -35.13671875 65.46484375 C-35.13991759 56.58294228 -34.91210045 47.84592655 -34 39 C-37.96 39 -41.92 39 -46 39 C-46 34.38 -46 29.76 -46 25 C-42.37 24.67 -38.74 24.34 -35 24 C-34.98582031 23.0821875 -34.97164062 22.164375 -34.95703125 21.21875 C-34.66313925 13.65698822 -34.32603937 7.6849369 -29 2 C-20.15823176 -5.30406942 -9.63759887 -5.78255932 0 0 Z " fill="#3A4A56" transform="translate(710,118)"/>
<path d="M0 0 C-0.33 4.95 -0.66 9.9 -1 15 C-3.96223958 15.45572917 -6.92447917 15.91145833 -9.88671875 16.3671875 C-12.82675493 16.96478582 -15.30876417 17.68086115 -18 19 C-21.29336109 24.92804996 -21.13562224 31.77998389 -21.0625 38.390625 C-21.05871338 39.17644958 -21.05492676 39.96227417 -21.05102539 40.77191162 C-21.0388768 43.26466536 -21.02023452 45.7572996 -21 48.25 C-20.97346328 51.54687164 -20.95346457 54.84368718 -20.9375 58.140625 C-20.92920166 58.89893616 -20.92090332 59.65724731 -20.91235352 60.4385376 C-20.88721816 65.77443632 -20.88721816 65.77443632 -22 68 C-27.28 67.67 -32.56 67.34 -38 67 C-38.81351316 62.93243422 -39.09759911 59.9044856 -39.02172852 55.83276367 C-39.00163223 54.61187546 -38.98153595 53.39098724 -38.96083069 52.13310242 C-38.93379562 50.82460831 -38.90676056 49.5161142 -38.87890625 48.16796875 C-38.85458366 46.80748823 -38.83074119 45.44699906 -38.80735779 44.08650208 C-38.74472953 40.51736535 -38.67560355 36.94838327 -38.60510254 33.37939453 C-38.53422623 29.73281863 -38.46952502 26.08613366 -38.40429688 22.43945312 C-38.27555889 15.29285033 -38.13995296 8.14639269 -38 1 C-37.01257813 0.93941406 -36.02515625 0.87882813 -35.0078125 0.81640625 C-33.72648438 0.73261719 -32.44515625 0.64882812 -31.125 0.5625 C-29.84882812 0.48128906 -28.57265625 0.40007812 -27.2578125 0.31640625 C-24.11699848 0.20793973 -24.11699848 0.20793973 -22 -1 C-21.67 1.64 -21.34 4.28 -21 7 C-20.54109375 6.59007812 -20.0821875 6.18015625 -19.609375 5.7578125 C-18.99578125 5.21898437 -18.3821875 4.68015625 -17.75 4.125 C-17.14671875 3.59132812 -16.5434375 3.05765625 -15.921875 2.5078125 C-11.14298113 -1.24148229 -5.38502459 -3.59001639 0 0 Z " fill="#354551" transform="translate(825,142)"/>
<path d="M0 0 C1.87959824 3.75919647 2.25300103 4.96616024 2.2784729 8.92279053 C2.28963638 9.91274521 2.30079987 10.90269989 2.31230164 11.9226532 C2.31446182 13.0023085 2.31662201 14.08196381 2.31884766 15.19433594 C2.32889328 16.3360878 2.3389389 17.47783966 2.34928894 18.65419006 C2.38019829 22.43091322 2.39717786 26.20756524 2.4140625 29.984375 C2.43276788 32.60183325 2.45234082 35.21928542 2.4727478 37.83673096 C2.51952045 44.02373268 2.55627183 50.2107517 2.58942068 56.39783978 C2.6276528 63.44259525 2.67706009 70.48725848 2.72740483 77.53193617 C2.8307021 92.02121977 2.91996967 106.51056945 3 121 C-7.59100452 119.0616756 -15.7660552 112.8216741 -22 104.25 C-23 102 -23 102 -22 99 C-21.6596875 99.49628906 -21.319375 99.99257812 -20.96875 100.50390625 C-14.99682537 108.8741304 -9.28494036 113.35752982 0 118 C0 79.06 0 40.12 0 0 Z " fill="#242F38" transform="translate(281,75)"/>
<path d="M0 0 C0.99 0 1.98 0 3 0 C3.00634791 0.92295821 3.00634791 0.92295821 3.01282406 1.86456203 C3.11630958 16.86408799 3.22497336 31.86356684 3.33933926 46.86301327 C3.39452288 54.11674895 3.4479797 61.37048956 3.49731445 68.62426758 C3.54033915 74.94961267 3.58666181 81.27492374 3.63687855 87.60021597 C3.66333309 90.94671118 3.6876889 94.29318907 3.70907402 97.63972282 C3.73327768 101.38347915 3.76330976 105.12714739 3.79467773 108.87084961 C3.8004332 109.96993149 3.80618866 111.06901337 3.81211853 112.20140076 C3.86919204 118.20962037 4.2241412 124.04063551 5 130 C4.67 129.01 4.34 128.02 4 127 C3.34 127 2.68 127 2 127 C0.8734882 121.38565643 0.66451686 115.80302963 0.44360352 110.09765625 C0.40142228 109.03901871 0.35924105 107.98038116 0.31578159 106.8896637 C-0.09591966 95.7377747 -0.12708715 84.59545989 -0.09765625 73.4375 C-0.09578346 71.2970381 -0.09436365 69.15657577 -0.09336853 67.01611328 C-0.08961094 61.47290798 -0.07984136 55.92973029 -0.06866455 50.38653564 C-0.05830216 44.69389214 -0.05383967 39.00124403 -0.04882812 33.30859375 C-0.03821057 22.20571726 -0.02121915 11.10286095 0 0 Z " fill="#233039" transform="translate(136,129)"/>
<path d="M0 0 C7.94727492 0.83048446 12.97406754 5.60811542 18.1640625 11.42578125 C21.72596656 15.90381289 24.01917019 19.22818642 24.31201172 25.05615234 C24.35335236 25.87185699 24.39469299 26.68756165 24.43728638 27.52798462 C24.47602875 28.41335907 24.51477112 29.29873352 24.5546875 30.2109375 C24.59673309 31.14054291 24.63877869 32.07014832 24.68209839 33.02792358 C25.13333192 43.89251727 25.15187056 54.7528232 25.125 65.625 C25.12411377 66.66551514 25.12322754 67.70603027 25.12231445 68.77807617 C25.10625747 84.87087818 24.85940557 100.92728731 24 117 C21.39103993 113.08655989 21.73733763 109.8023836 21.77636719 105.26513672 C21.77575539 103.92554146 21.77575539 103.92554146 21.77513123 102.55888367 C21.77493354 100.61747739 21.77897886 98.67606715 21.78673553 96.73467636 C21.79695038 93.65697552 21.7915838 90.57968039 21.78131104 87.50198364 C21.75332482 78.75059975 21.74077875 69.99944128 21.77001953 61.24804688 C21.78678545 55.8951018 21.77437164 50.54287957 21.74356842 45.19000626 C21.7374781 43.15437242 21.74229663 41.11867444 21.75844574 39.08309555 C22.32272497 25.37139558 22.32272497 25.37139558 16.49076843 13.44798279 C15.99881485 12.97014847 15.50686127 12.49231415 15 12 C14.31035156 11.25105469 13.62070313 10.50210938 12.91015625 9.73046875 C8.80034512 6.29838546 4.75418745 3.4761393 0 1 C0 0.67 0 0.34 0 0 Z " fill="#25313A" transform="translate(140,130)"/>
<path d="M0 0 C11.31922393 0.25153831 20.34947829 9.507221 28 17 C28.62648438 17.59039062 29.25296875 18.18078125 29.8984375 18.7890625 C34.04320262 23.04635518 36.7427626 27.88007734 39.4375 33.125 C39.79215332 33.8063501 40.14680664 34.4877002 40.51220703 35.18969727 C42.52584883 39.29442863 43.41510856 42.32456671 43 47 C41.09704544 44.14556816 40.07620035 41.69200094 38.875 38.5 C32.60583006 23.32970539 21.39658356 12.28266466 7.1015625 4.69140625 C4.52050338 3.28385134 2.28235567 1.83825198 0 0 Z " fill="#333F48" transform="translate(236,15)"/>
<path d="M0 0 C7.94727492 0.83048446 12.97406754 5.60811542 18.1640625 11.42578125 C23.36010239 17.95825116 24.24035831 22.56899471 24.625 30.75 C24.67003662 31.68416748 24.71507324 32.61833496 24.76147461 33.58081055 C25.0859764 41.46397771 24.78367476 49.15119586 24 57 C23.67 57 23.34 57 23 57 C22.30735556 51.81347842 21.93508931 46.76553517 21.89453125 41.53125 C21.87970703 40.38269531 21.86488281 39.23414063 21.84960938 38.05078125 C21.82487108 35.68371729 21.81966169 33.31636865 21.83398438 30.94921875 C21.6601701 21.56324792 19.17673788 16.53585927 12.91015625 9.73046875 C8.80034512 6.29838546 4.75418745 3.4761393 0 1 C0 0.67 0 0.34 0 0 Z " fill="#2D3A44" transform="translate(140,130)"/>
<path d="M0 0 C4.58234216 0.31969829 9.19330085 1.35408804 13 4 C18.60944836 10.51500953 20.23861225 16.32447515 20.16796875 24.7734375 C19.94526363 27.72557518 19.11932381 30.27164823 18 33 C17.34 33 16.68 33 16 33 C15.566875 33.928125 15.566875 33.928125 15.125 34.875 C14 37 14 37 12 39 C9.875 38.625 9.875 38.625 8 38 C8.94875 37.2575 9.8975 36.515 10.875 35.75 C14.48810778 32.70648803 15.64153364 30.49360982 16.75 25.875 C17.13303359 19.93797932 16.03759888 14.65164157 13.875 9.125 C9.77498883 4.47832067 4.06140793 2.60614079 -2 2 C-1.34 1.34 -0.68 0.68 0 0 Z " fill="#313E46" transform="translate(860,153)"/>
<path d="M0 0 C0.79719955 0.00222061 1.59439911 0.00444122 2.41575623 0.00672913 C3.31661453 0.00680466 4.21747284 0.00688019 5.14562988 0.00695801 C6.12478867 0.01211929 7.10394745 0.01728058 8.11277771 0.02259827 C9.11018478 0.02401321 10.10759186 0.02542816 11.13522339 0.02688599 C14.3348027 0.03250337 17.53431315 0.04505881 20.73387146 0.05775452 C22.89728191 0.06276728 25.06069345 0.06733057 27.22410583 0.07142639 C32.53988471 0.08247845 37.85562317 0.09923348 43.17137146 0.12025452 C43.17137146 0.78025452 43.17137146 1.44025452 43.17137146 2.12025452 C28.40843448 3.01417944 13.92965472 3.11023224 -0.82862854 2.12025452 C-0.49862854 4.43025452 -0.16862854 6.74025452 0.17137146 9.12025452 C-0.48862854 9.12025452 -1.14862854 9.12025452 -1.82862854 9.12025452 C-2.70753479 2.96791077 -2.70753479 2.96791077 -2.82862854 1.12025452 C-1.82862854 0.12025452 -1.82862854 0.12025452 0 0 Z " fill="#27333B" transform="translate(920.8286285400391,178.87974548339844)"/>
<path d="M0 0 C15.51 0 31.02 0 47 0 C45 2 45 2 43.12704468 2.24050903 C41.98787094 2.2338472 41.98787094 2.2338472 40.82568359 2.22705078 C39.53457169 2.22682419 39.53457169 2.22682419 38.21737671 2.22659302 C37.28712677 2.21627045 36.35687683 2.20594788 35.3984375 2.1953125 C34.44683746 2.1924826 33.49523743 2.18965271 32.51480103 2.18673706 C29.46807408 2.17551989 26.42163846 2.15041263 23.375 2.125 C21.31250424 2.11497218 19.25000388 2.10584599 17.1875 2.09765625 C12.12488733 2.07557554 7.0624931 2.0410353 2 2 C1.67 3.32 1.34 4.64 1 6 C0.67 5.67 0.34 5.34 0 5 C0 3.35 0 1.7 0 0 Z " fill="#222E36" transform="translate(611,179)"/>
<path d="M0 0 C0 2.97 0 5.94 0 9 C-0.33 9 -0.66 9 -1 9 C-1 6.69 -1 4.38 -1 2 C-5.29 2 -9.58 2 -14 2 C-14 21.47 -14 40.94 -14 61 C-14.33 61 -14.66 61 -15 61 C-15 40.87 -15 20.74 -15 0 C-2 -1 -2 -1 0 0 Z " fill="#0F161D" transform="translate(802,143)"/>
<path d="M0 0 C0.33 0 0.66 0 1 0 C1 17.16 1 34.32 1 52 C-3.62 52 -8.24 52 -13 52 C-14.79217969 46.83430559 -15.12029814 43.48946087 -14 38 C-13.34 38 -12.68 38 -12 38 C-12 42.29 -12 46.58 -12 51 C-8.04 51 -4.08 51 0 51 C0 34.17 0 17.34 0 0 Z " fill="#131B21" transform="translate(690,156)"/>
<path d="M0 0 C11.51528871 0.52342221 21.44108906 7.75650844 29 16 C30.62783008 18.3025783 31.80005815 20.43648787 33 23 C32.01 23 31.02 23 30 23 C28.7109375 21.49609375 28.7109375 21.49609375 27.375 19.4375 C20.42235984 9.82898513 10.5686341 5.58113389 0 1 C0 0.67 0 0.34 0 0 Z " fill="#303C44" transform="translate(134,116)"/>
<path d="M0 0 C0.33 0 0.66 0 1 0 C2.16711095 8.66996704 2.09744014 17.27369392 2 26 C2.66 26.33 3.32 26.66 4 27 C3.67 29.31 3.34 31.62 3 34 C-2.28 33.67 -7.56 33.34 -13 33 C-13 32.67 -13 32.34 -13 32 C-6.565 31.505 -6.565 31.505 0 31 C0 20.77 0 10.54 0 0 Z " fill="#3D4C57" transform="translate(800,176)"/>
<path d="M0 0 C2.2226979 2.14949528 4.17069869 4.41918897 6.125 6.8125 C10.84692465 12.25624753 16.54948347 15.88394913 23 19 C23 17.35 23 15.7 23 14 C23.66 14 24.32 14 25 14 C25.33 16.64 25.66 19.28 26 22 C16.80333403 20.57235871 8.83830463 15.10243896 3 8 C0 3.74193548 0 3.74193548 0 0 Z " fill="#2E3A42" transform="translate(258,174)"/>
<path d="M0 0 C2 2 2 2 2.1953125 5.0390625 C2.13020833 8.359375 2.06510417 11.6796875 2 15 C-3.94 15 -9.88 15 -16 15 C-16 14.67 -16 14.34 -16 14 C-10.72 14 -5.44 14 0 14 C0 10.7 0 7.4 0 4 C-4.62 4 -9.24 4 -14 4 C-14 3.34 -14 2.68 -14 2 C-11.01049637 1.12435592 -8.42036138 0.91780862 -5.3125 1 C-3.87549262 1.03763031 -2.43674355 1.04662859 -1 1 C-0.67 0.67 -0.34 0.34 0 0 Z " fill="#29363E" transform="translate(706,141)"/>
<path d="M0 0 C1.24769691 3.5517772 0.72044302 5.75984764 -0.375 9.3125 C-2.78617571 17.65803052 -3.12778365 25.35330638 -3 34 C-3.99 33.67 -4.98 33.34 -6 33 C-6.47529292 21.10007368 -5.15149339 10.79360519 0 0 Z " fill="#36424C" transform="translate(168,59)"/>
<path d="M0 0 C0.66 0 1.32 0 2 0 C2 11.22 2 22.44 2 34 C1.01 34.495 1.01 34.495 0 35 C-0.20010711 31.22972796 -0.38270332 27.45879083 -0.5625 23.6875 C-0.61857422 22.63498047 -0.67464844 21.58246094 -0.73242188 20.49804688 C-1.05236514 13.56594279 -0.82306262 6.89089653 0 0 Z " fill="#212C36" transform="translate(676,158)"/>
<path d="M0 0 C0.33 0 0.66 0 1 0 C1.02187378 0.90709717 1.02187378 0.90709717 1.04418945 1.83251953 C1.11909188 4.59729265 1.21561073 7.36091357 1.3125 10.125 C1.33505859 11.07632813 1.35761719 12.02765625 1.38085938 13.0078125 C1.58856409 18.4458997 2.15227585 22.2207096 5 27 C5 27.66 5 28.32 5 29 C6.175625 29.433125 6.175625 29.433125 7.375 29.875 C10 31 10 31 12 33 C7.57135029 32.4938686 5.15110054 31.15110054 2 28 C-1.18938255 22.14008183 -1.40262149 17.21634044 -1.25 10.625 C-1.24484375 9.71105469 -1.2396875 8.79710937 -1.234375 7.85546875 C-1.15472274 1.15472274 -1.15472274 1.15472274 0 0 Z " fill="#3F6B97" transform="translate(171,157)"/>
<path d="M0 0 C2.19140625 0.33984375 2.19140625 0.33984375 4 1 C3.50628906 1.32613281 3.01257813 1.65226562 2.50390625 1.98828125 C1.86324219 2.42527344 1.22257813 2.86226563 0.5625 3.3125 C-0.07558594 3.74175781 -0.71367187 4.17101562 -1.37109375 4.61328125 C-3.2885684 6.0034052 -3.2885684 6.0034052 -4 9 C-4.66 9 -5.32 9 -6 9 C-6.60723657 17.53700231 -6.60723657 17.53700231 -4.25 25.5625 C-1.20702617 28.86267445 -1.20702617 28.86267445 2 32 C-1.43811794 31.71349017 -2.74171193 31.26566773 -5.1875 28.75 C-8.84386778 23.2024075 -9.73437759 18.57442798 -9 12 C-7.16197143 6.79225238 -4.17510601 3.49345605 0 0 Z " fill="#3B6B99" transform="translate(200,83)"/>
<path d="M0 0 C-1 3 -1 3 -3.14453125 4.3515625 C-4.02496094 4.77179688 -4.90539062 5.19203125 -5.8125 5.625 C-6.68519531 6.05039063 -7.55789063 6.47578125 -8.45703125 6.9140625 C-13.40985138 9.02909168 -17.91107749 9.12381271 -23.25 9.0625 C-23.99507812 9.05798828 -24.74015625 9.05347656 -25.5078125 9.04882812 C-27.3385764 9.03709246 -29.16929873 9.0191585 -31 9 C-31 8.34 -31 7.68 -31 7 C-29.96101562 6.97421875 -28.92203125 6.9484375 -27.8515625 6.921875 C-18.22378504 6.57179501 -8.1925586 0 0 0 Z " fill="#343F47" transform="translate(883,226)"/>
<path d="M0 0 C-0.51949219 0.30292969 -1.03898438 0.60585937 -1.57421875 0.91796875 C-4.98928728 2.96953487 -8.11676266 4.91345174 -10.875 7.8125 C-11.57625 8.534375 -12.2775 9.25625 -13 10 C-13.66 10 -14.32 10 -15 10 C-15.268125 10.70125 -15.53625 11.4025 -15.8125 12.125 C-17.0681449 15.1649824 -18.50235123 18.0727774 -20 21 C-20.33 21 -20.66 21 -21 21 C-20.85183456 14.03622431 -17.78793859 9.91230064 -13 5 C-4.8419551 -1.81436692 -4.8419551 -1.81436692 0 0 Z " fill="#37444F" transform="translate(734,145)"/>
<path d="M0 0 C0.99 0.33 1.98 0.66 3 1 C2.57589844 1.37769531 2.15179688 1.75539063 1.71484375 2.14453125 C-5.52226833 8.93628258 -10.21780625 17.39205125 -15 26 C-15.6796875 24.3515625 -15.6796875 24.3515625 -16 22 C-12.42053875 13.46436163 -6.39524697 6.5547656 0 0 Z " fill="#323D46" transform="translate(159,28)"/>
<path d="M0 0 C0.99 0 1.98 0 3 0 C8.94960477 6.38177946 15.67042626 17.05963436 16.16015625 25.88671875 C16.10730469 26.58410156 16.05445313 27.28148437 16 28 C14 27 14 27 13.17578125 24.8828125 C12.74845703 23.51769531 12.74845703 23.51769531 12.3125 22.125 C10.10561087 15.75322989 6.73667085 10.56599232 3 5 C1.9902076 3.33924804 0.98717415 1.67429537 0 0 Z " fill="#2B363E" transform="translate(346,113)"/>
<path d="M0 0 C0.99 0.33 1.98 0.66 3 1 C1.66536458 2.43229167 0.33072917 3.86458333 -1.00390625 5.296875 C-2.16316824 6.95897197 -2.16316824 6.95897197 -2.03125 9 C-0.4350737 12.09561465 1.95743961 12.81186677 5.0625 14.25 C6.16722656 14.77078125 7.27195312 15.2915625 8.41015625 15.828125 C9.26480469 16.21484375 10.11945312 16.6015625 11 17 C11 17.33 11 17.66 11 18 C4.06562361 17.7523437 0.05081873 15.76626557 -5 11 C-5.66 10.01 -6.32 9.02 -7 8 C-6.34 8 -5.68 8 -5 8 C-4.731875 7.4225 -4.46375 6.845 -4.1875 6.25 C-2.98280141 3.9674132 -1.59201885 2.0262058 0 0 Z " fill="#2E3941" transform="translate(836,214)"/>
<path d="M0 0 C0.33 0 0.66 0 1 0 C1 9.24 1 18.48 1 28 C-3.01503968 23.98496032 -2.05613489 16.88488315 -2.0625 11.5 C-2.04661673 9.6666171 -2.02749868 7.83324547 -2 6 C-1.34 6 -0.68 6 0 6 C0 4.02 0 2.04 0 0 Z " fill="#323D45" transform="translate(55,149)"/>
<path d="M0 0 C3.35124622 0.27927052 4.74111872 0.74851532 7.1875 3.125 C10.09978554 7.74448741 11.51492719 11.72052375 10.375 17.125 C9.25499633 20.77564487 7.85851919 23.37969074 5 26 C1.75 26.8125 1.75 26.8125 -1 27 C-0.2575 26.46375 0.485 25.9275 1.25 25.375 C5.33698337 21.84533255 7.7889452 18.96984477 8.375 13.5 C7.99449377 9.94860849 7.56996128 7.21468262 6 4 C3.50965614 2.70339566 3.50965614 2.70339566 1 2 C0.67 1.34 0.34 0.68 0 0 Z " fill="#3D6A95" transform="translate(241,136)"/>
<path d="M0 0 C0.66 0 1.32 0 2 0 C1.67 7.92 1.34 15.84 1 24 C-3.05886004 18.58818661 -2.5103925 14.5597987 -2 8 C-1.50567971 5.22842639 -0.82991463 2.69722256 0 0 Z " fill="#303B45" transform="translate(830,161)"/>
<path d="M0 0 C3.09879862 0.48418728 5.5403122 1.2357726 8.4375 2.5 C14.3487412 4.83488333 20.72086107 4.74424855 27 5 C24.36723647 7.63276353 23.10490842 7.29844863 19.4375 7.3125 C12.6125051 7.18960093 6.72925779 6.32985421 1.4375 1.8125 C0.963125 1.214375 0.48875 0.61625 0 0 Z " fill="#303B43" transform="translate(411,189)"/>
<path d="M0 0 C0.55816406 0.22816406 1.11632812 0.45632812 1.69140625 0.69140625 C1.02753906 1.13871094 0.36367188 1.58601563 -0.3203125 2.046875 C-5.07644056 5.30326049 -9.33309408 8.48873517 -13.30859375 12.69140625 C-14.9572392 14.04695918 -16.6186337 15.38772278 -18.30859375 16.69140625 C-17.6899049 11.32943624 -13.85001326 7.95347465 -9.89453125 4.71484375 C-2.98734842 -0.39932407 -2.98734842 -0.39932407 0 0 Z " fill="#313D46" transform="translate(410.30859375,120.30859375)"/>
<path d="M0 0 C-2.73746511 2.32269767 -5.1991746 4.09777662 -8.4375 5.6875 C-13.09772985 8.21179117 -15.39480925 12.53395872 -18 17 C-18.65234375 15.24609375 -18.65234375 15.24609375 -19 13 C-15.7335693 6.12546174 -8.12456001 -1.2694625 0 0 Z " fill="#2E3942" transform="translate(851,143)"/>
<path d="M0 0 C-3.2661953 2.17746353 -4.24945834 2.25606429 -8.03515625 2.265625 C-9.00904297 2.26820313 -9.98292969 2.27078125 -10.98632812 2.2734375 C-12.00146484 2.26570312 -13.01660156 2.25796875 -14.0625 2.25 C-15.08150391 2.25773438 -16.10050781 2.26546875 -17.15039062 2.2734375 C-18.12298828 2.27085937 -19.09558594 2.26828125 -20.09765625 2.265625 C-20.98976807 2.26336914 -21.88187988 2.26111328 -22.80102539 2.25878906 C-25 2 -25 2 -27 0 C-17.86533168 -0.6888091 -9.11348853 -1.30192693 0 0 Z " fill="#323E47" transform="translate(307,205)"/>
<path d="M0 0 C0.57234375 0.28875 1.1446875 0.5775 1.734375 0.875 C11.07767027 5.51442938 19.71301559 7.0300114 30 8 C30 8.33 30 8.66 30 9 C19.22732927 9.68924671 10.07681443 9.85766678 1 3 C0.67 2.01 0.34 1.02 0 0 Z " fill="#2B353D" transform="translate(538,200)"/>
<path d="M0 0 C1.32 0 2.64 0 4 0 C4.125 7.75 4.125 7.75 3 10 C2.34 10 1.68 10 1 10 C1 9.01 1 8.02 1 7 C-4.61 7 -10.22 7 -16 7 C-16 6.67 -16 6.34 -16 6 C-10.72 6 -5.44 6 0 6 C0 4.02 0 2.04 0 0 Z " fill="#3D4D59" transform="translate(963,172)"/>
<path d="M0 0 C0.66 0 1.32 0 2 0 C1.09677683 3.61289268 0.06263701 4.94961806 -2.875 7.3125 C-7.83958467 9.90499982 -13.55319229 9.71081254 -19 9 C-19.66 8.34 -20.32 7.68 -21 7 C-20.13117188 6.96261719 -19.26234375 6.92523438 -18.3671875 6.88671875 C-9.72309717 6.55070973 -9.72309717 6.55070973 -2 3 C-1.34 2.01 -0.68 1.02 0 0 Z " fill="#313E47" transform="translate(509,189)"/>
<path d="M0 0 C4.24234863 0.48922093 5.98261025 1.53624028 8.6875 4.8125 C9.26886719 5.49957031 9.85023438 6.18664062 10.44921875 6.89453125 C13.52888669 11.07574289 14.23757122 13.77343323 14 19 C12 18 12 18 10.75 14.375 C8.63763162 8.37199393 4.43785898 4.39823524 0 0 Z " fill="#2F3A42" transform="translate(950,146)"/>
<path d="M0 0 C0.66 0.33 1.32 0.66 2 1 C-13.17832548 13.45125045 -13.17832548 13.45125045 -21 13 C-18.19394232 10.76805527 -15.42926279 9.1463312 -12.1875 7.625 C-7.74557478 5.45997274 -3.92830395 2.98892692 0 0 Z " fill="#2F3941" transform="translate(339,215)"/>
<path d="M0 0 C0.66 0 1.32 0 2 0 C0.22212459 7.11150164 -4.46392122 13.25478962 -10 18 C-10.66 18 -11.32 18 -12 18 C-10.69174889 15.14053687 -9.25124967 12.99552749 -7.125 10.6875 C-4.17318028 7.34499825 -2.0873475 3.93384721 0 0 Z " fill="#303C45" transform="translate(251,259)"/>
<path d="M0 0 C0.226875 0.53625 0.45375 1.0725 0.6875 1.625 C4.29882033 8.15977013 8.24143392 11.14899198 15 14 C15 14.66 15 15.32 15 16 C8.08731409 14.1475809 3.72849924 12.09274887 -0.375 5.9375 C-1.13426962 3.58376417 -0.8212254 2.29943113 0 0 Z " fill="#2F3B43" transform="translate(539,164)"/>
<path d="M0 0 C0.66 0 1.32 0 2 0 C1.6803125 0.66515625 1.360625 1.3303125 1.03125 2.015625 C-0.42757721 6.23738252 -0.42503916 10.40857597 -0.56640625 14.82421875 C-0.64517606 16.55372969 -0.81526231 18.27858059 -1 20 C-1.66 20.33 -2.32 20.66 -3 21 C-4.36687806 13.61885845 -4.27807533 6.41711299 0 0 Z " fill="#2E3941" transform="translate(679,123)"/>
<path d="M0 0 C0.8971875 0.309375 0.8971875 0.309375 1.8125 0.625 C0.69176138 1.46405565 -0.43424547 2.29607831 -1.5625 3.125 C-2.50222656 3.82109375 -2.50222656 3.82109375 -3.4609375 4.53125 C-5.1875 5.625 -5.1875 5.625 -7.1875 5.625 C-7.1875 6.285 -7.1875 6.945 -7.1875 7.625 C-8.9375 9.1328125 -8.9375 9.1328125 -11.1875 10.75 C-11.93 11.28882812 -12.6725 11.82765625 -13.4375 12.3828125 C-14.015 12.79273437 -14.5925 13.20265625 -15.1875 13.625 C-14.66698372 9.62240929 -12.81967964 8.05950889 -9.8125 5.5 C-9.02101563 4.81679687 -8.22953125 4.13359375 -7.4140625 3.4296875 C-2.62700995 -0.45034456 -2.62700995 -0.45034456 0 0 Z " fill="#2E3840" transform="translate(89.1875,99.375)"/>
<path d="M0 0 C-3.11216739 2.07477826 -3.84060508 2.25522588 -7.37890625 2.265625 C-8.21744141 2.26820313 -9.05597656 2.27078125 -9.91992188 2.2734375 C-11.22799805 2.26183594 -11.22799805 2.26183594 -12.5625 2.25 C-13.87637695 2.26160156 -13.87637695 2.26160156 -15.21679688 2.2734375 C-16.05404297 2.27085937 -16.89128906 2.26828125 -17.75390625 2.265625 C-18.52033447 2.26336914 -19.2867627 2.26111328 -20.07641602 2.25878906 C-22 2 -22 2 -24 0 C-15.84997076 -1.06162705 -8.16617194 -0.84388104 0 0 Z " fill="#303B43" transform="translate(222,285)"/>
<path d="M0 0 C0.33 0 0.66 0 1 0 C1.33 2.64 1.66 5.28 2 8 C2.45890625 7.55527344 2.9178125 7.11054688 3.390625 6.65234375 C4.31101562 5.80349609 4.31101562 5.80349609 5.25 4.9375 C5.85328125 4.36902344 6.4565625 3.80054688 7.078125 3.21484375 C9 2 9 2 11.234375 2.31640625 C11.81703125 2.54199219 12.3996875 2.76757812 13 3 C12.113125 3.53625 11.22625 4.0725 10.3125 4.625 C7.84048277 6.24580375 6.12438511 7.91885513 4.3125 10.25 C3.549375 11.1575 2.78625 12.065 2 13 C1.01 13 0.02 13 -1 13 C-0.67 8.71 -0.34 4.42 0 0 Z " fill="#333E48" transform="translate(802,141)"/>
<path d="M0 0 C0.33 0 0.66 0 1 0 C1.23074219 0.90621094 1.46148437 1.81242188 1.69921875 2.74609375 C3.67071502 10.10998297 5.85532253 16.57914719 10 23 C6.40049073 21.57247607 5.10176836 20.02291657 3.3125 16.625 C2.68794922 15.46871094 2.68794922 15.46871094 2.05078125 14.2890625 C-0.17826611 9.43321955 -0.08784189 5.27051313 0 0 Z " fill="#2F3A42" transform="translate(385,170)"/>
<path d="M0 0 C4.14851505 1.37304834 6.62395666 3.21774909 9.6875 6.3125 C10.45449219 7.07175781 11.22148437 7.83101562 12.01171875 8.61328125 C14.01476595 11.01772495 15.02276149 13.04738098 16 16 C12.60459566 14.86819855 11.84642148 13.89642801 9.625 11.1875 C6.97035419 8.03792022 4.22837803 5.56371196 1 3 C0.67 2.01 0.34 1.02 0 0 Z " fill="#323E46" transform="translate(317,121)"/>
<path d="M0 0 C0.33 0.99 0.66 1.98 1 3 C-0.29296875 5.5234375 -0.29296875 5.5234375 -2.1875 8.375 C-3.10595703 9.77878906 -3.10595703 9.77878906 -4.04296875 11.2109375 C-5.93002468 13.9002747 -7.91734439 16.46017609 -10 19 C-10.99 18.67 -11.98 18.34 -13 18 C-12.48050781 17.3709375 -11.96101563 16.741875 -11.42578125 16.09375 C-7.2048762 10.91319371 -3.40670998 5.7488231 0 0 Z " fill="#303B43" transform="translate(274,272)"/>
<path d="M0 0 C0.66 0.33 1.32 0.66 2 1 C-5.09238061 6.06598615 -10.46898419 7.34124063 -19 7 C-19 6.67 -19 6.34 -19 6 C-14.55719258 4.45735854 -10.13606591 2.98272606 -5.5625 1.875 C-2.18492902 1.18453218 -2.18492902 1.18453218 0 0 Z " fill="#2F3B42" transform="translate(241,304)"/>
<path d="M0 0 C-1.08667969 0.56267578 -1.08667969 0.56267578 -2.1953125 1.13671875 C-7.63368018 4.01542804 -12.46482671 6.83254346 -17 11 C-16.17157756 5.96406356 -12.96425815 3.87008923 -9 1 C-5.41221365 -0.91904851 -3.8269663 -1.10377765 0 0 Z " fill="#2E3942" transform="translate(927,144)"/>
<path d="M0 0 C0 2.97 0 5.94 0 9 C-0.33 9 -0.66 9 -1 9 C-1 6.69 -1 4.38 -1 2 C-5.29 2 -9.58 2 -14 2 C-14.33 2.99 -14.66 3.98 -15 5 C-15 3.35 -15 1.7 -15 0 C-12.87562788 -0.19448477 -10.75046809 -0.38038289 -8.625 -0.5625 C-7.44164062 -0.66691406 -6.25828125 -0.77132812 -5.0390625 -0.87890625 C-2 -1 -2 -1 0 0 Z " fill="#202A32" transform="translate(802,143)"/>
<path d="M0 0 C0.66 0 1.32 0 2 0 C2 4.29 2 8.58 2 13 C5.96 13 9.92 13 14 13 C14 13.33 14 13.66 14 14 C9.71 14 5.42 14 1 14 C-0.79217969 8.83430559 -1.12029814 5.48946087 0 0 Z " fill="#212D35" transform="translate(676,194)"/>
<path d="M0 0 C3.59417175 1.19805725 4.0888167 2.5047343 5.75195312 5.77148438 C6.06068359 6.40376953 6.36941406 7.03605469 6.6875 7.6875 C7.00783203 8.30044922 7.32816406 8.91339844 7.65820312 9.54492188 C9.63964333 13.52892638 10.36081254 16.56813271 10 21 C7.4582334 17.1873501 5.99634909 13.160043 4.31640625 8.91015625 C3.1156952 6.25576535 1.75956649 4.29307936 0 2 C0 1.34 0 0.68 0 0 Z " fill="#2D3840" transform="translate(269,41)"/>
<path d="M0 0 C-0.33 4.95 -0.66 9.9 -1 15 C-2.98 15 -4.96 15 -7 15 C-7 14.67 -7 14.34 -7 14 C-5.35 14 -3.7 14 -2 14 C-2.33 11.36 -2.66 8.72 -3 6 C-3.33 6 -3.66 6 -4 6 C-4 4.35 -4 2.7 -4 1 C-6.97 0.505 -6.97 0.505 -10 0 C-10 -0.33 -10 -0.66 -10 -1 C-3.375 -2.25 -3.375 -2.25 0 0 Z " fill="#4D5B65" transform="translate(825,142)"/>
<path d="M0 0 C0.66 0.33 1.32 0.66 2 1 C1.16855469 2.33804688 1.16855469 2.33804688 0.3203125 3.703125 C-0.41154799 4.88536117 -1.14331384 6.06765593 -1.875 7.25 C-2.42220703 8.12978516 -2.42220703 8.12978516 -2.98046875 9.02734375 C-4.79285294 11.9601109 -6.53200267 14.87857411 -8 18 C-8.70703125 16.3828125 -8.70703125 16.3828125 -9 14 C-7.63671875 11.0546875 -7.63671875 11.0546875 -5.6875 7.875 C-5.05199219 6.82054688 -4.41648437 5.76609375 -3.76171875 4.6796875 C-2 2 -2 2 0 0 Z " fill="#2E3941" transform="translate(69,116)"/>
<path d="M0 0 C9.57 0.33 19.14 0.66 29 1 C29 1.33 29 1.66 29 2 C20.09 2 11.18 2 2 2 C1.67 3.32 1.34 4.64 1 6 C0.67 5.67 0.34 5.34 0 5 C0 3.35 0 1.7 0 0 Z " fill="#2B3843" transform="translate(611,179)"/>
<path d="M0 0 C0.8125 1.6875 0.8125 1.6875 1 4 C-1.125 6.5 -1.125 6.5 -4 9 C-4.78375 9.763125 -5.5675 10.52625 -6.375 11.3125 C-9.74368312 13.47808201 -12.07277261 13.30801783 -16 13 C-15.13375 12.57460937 -15.13375 12.57460937 -14.25 12.140625 C-7.99230148 8.9683195 -3.47390233 6.22407501 0 0 Z " fill="#2C373F" transform="translate(586,195)"/>
<path d="M0 0 C6.43155314 -0.59307355 11.12041381 -0.29207863 16.50390625 3.48828125 C18.75897508 5.76690171 19 7.87393048 19 11 C18.484375 10.2575 17.96875 9.515 17.4375 8.75 C12.32557206 2.98269668 7.40962351 1.51997358 0 1 C0 0.67 0 0.34 0 0 Z " fill="#29353D" transform="translate(931,153)"/>
<path d="M0 0 C4.6252945 0.72493578 6.59234095 3.26843386 9.515625 6.72265625 C11.77669943 10.19162044 11.92684029 12.903056 12 17 C9.71753103 13.57629654 7.68652485 10.03708371 5.6328125 6.47265625 C3.98130448 3.97168836 2.1861278 2.03943957 0 0 Z " fill="#28343B" transform="translate(645,147)"/>
<path d="M0 0 C5.169545 1.40987591 8.75341352 4.86322045 12 9 C12.703125 11.2265625 12.703125 11.2265625 13 13 C12.34 13 11.68 13 11 13 C9.4140625 11.35546875 9.4140625 11.35546875 7.625 9.1875 C5.76433718 6.93749143 4.13127297 5.09649715 1.7734375 3.36328125 C1.18820313 2.91339844 0.60296875 2.46351562 0 2 C0 1.34 0 0.68 0 0 Z " fill="#313D47" transform="translate(235,42)"/>
<path d="M0 0 C1.72451677 2.58677516 3.1550208 5.11045877 4.5625 7.875 C5.21412109 9.13957031 5.21412109 9.13957031 5.87890625 10.4296875 C6.98601382 12.96793413 7.56512331 15.27346972 8 18 C4.08811566 14.64695628 1.76375669 10.79521351 0 6 C-0.25 2.5 -0.25 2.5 0 0 Z " fill="#334049" transform="translate(166,252)"/>
<path d="M0 0 C6.30367803 0.58367389 11.98660063 2.04071619 18 4 C17.67 4.66 17.34 5.32 17 6 C15.10307857 5.54619105 13.20750405 5.08675008 11.3125 4.625 C10.25675781 4.36976563 9.20101563 4.11453125 8.11328125 3.8515625 C5.29593234 3.08094511 2.68331675 2.14501457 0 1 C0 0.67 0 0.34 0 0 Z " fill="#2F3A43" transform="translate(261,235)"/>
<path d="M0 0 C0.99 0.33 1.98 0.66 3 1 C2.45730469 1.36351562 1.91460938 1.72703125 1.35546875 2.1015625 C-3.21540904 5.31353068 -5.79168931 7.72459113 -8 13 C-8.99 13.495 -8.99 13.495 -10 14 C-8.47731379 8.20636468 -7.35099509 4.29292005 -2 1 C-1.34 0.67 -0.68 0.34 0 0 Z " fill="#2E3A43" transform="translate(621,154)"/>
<path d="M0 0 C0.33 0 0.66 0 1 0 C1.33 5.94 1.66 11.88 2 18 C1.01 17.67 0.02 17.34 -1 17 C-1.02699725 14.72923158 -1.04639453 12.45837179 -1.0625 10.1875 C-1.07990234 8.29064453 -1.07990234 8.29064453 -1.09765625 6.35546875 C-1 3 -1 3 0 0 Z " fill="#2C373F" transform="translate(163,75)"/>
<path d="M0 0 C0.33 0 0.66 0 1 0 C1.33 8.58 1.66 17.16 2 26 C-0.67629556 23.32370444 -0.62191673 21.76384016 -1 18 C-0.97255369 14.86549042 -0.77940902 11.75148176 -0.5625 8.625 C-0.51029297 7.79355469 -0.45808594 6.96210938 -0.40429688 6.10546875 C-0.27561269 4.06991892 -0.13864593 2.03489559 0 0 Z " fill="#465663" transform="translate(164,229)"/>
<path d="M0 0 C0.33 0 0.66 0 1 0 C1 4.29 1 8.58 1 13 C1.99 13.33 2.98 13.66 4 14 C2.02 14 0.04 14 -2 14 C-1.85970581 11.8537974 -1.71261836 9.70803782 -1.5625 7.5625 C-1.48128906 6.36753906 -1.40007812 5.17257813 -1.31640625 3.94140625 C-1 1 -1 1 0 0 Z " fill="#2E3B43" transform="translate(138,69)"/>
<path d="M0 0 C4.95 2.64 9.9 5.28 15 8 C15 8.33 15 8.66 15 9 C9.15260862 8.63453804 4.4337826 6.98464618 0 3 C0 2.01 0 1.02 0 0 Z " fill="#323C43" transform="translate(400,198)"/>
<path d="M0 0 C1.5253228 2.2879842 2.95704564 4.58477956 4.375 6.9375 C6.29181576 10.02601916 8.26465453 12.5685818 11 15 C6.64286631 14.27381105 5.03563306 12.23105152 2.328125 8.921875 C0.60126892 6.42301267 -0.28323322 3.9387438 -1 1 C-0.67 0.67 -0.34 0.34 0 0 Z " fill="#2B363E" transform="translate(832,187)"/>
<path d="M0 0 C3.86328884 0.56853364 6.50025759 1.65872776 9.75 3.8125 C10.52859375 4.31394531 11.3071875 4.81539063 12.109375 5.33203125 C14.22678745 7.20007901 14.6414456 8.245107 15 11 C12.80017677 9.53345118 10.60056332 8.06660866 8.40234375 6.59765625 C6.96193257 5.63972426 5.51780095 4.68730122 4.06640625 3.74609375 C2.69497261 2.85482632 1.34477767 1.93099993 0 1 C0 0.67 0 0.34 0 0 Z " fill="#2F3B44" transform="translate(447,120)"/>
<path d="M0 0 C3.34249629 0.59687434 5.46436342 1.73603877 8 4 C8 4.66 8 5.32 8 6 C8.66 6 9.32 6 10 6 C11.6875 7.8125 11.6875 7.8125 13 10 C12.67 10.99 12.34 11.98 12 13 C11.46890625 12.39671875 10.9378125 11.7934375 10.390625 11.171875 C9.68421875 10.37265625 8.9778125 9.5734375 8.25 8.75 C7.55390625 7.96109375 6.8578125 7.1721875 6.140625 6.359375 C4.15413084 4.16988144 2.10898692 2.07098715 0 0 Z " fill="#2D3A44" transform="translate(169,106)"/>
<path d="M0 0 C3.34708051 1.54841575 6.24667512 3.49105864 9.25 5.625 C10.14203125 6.25664062 11.0340625 6.88828125 11.953125 7.5390625 C12.96632812 8.26222656 12.96632812 8.26222656 14 9 C12.29296875 9.703125 12.29296875 9.703125 10 10 C7.67578125 8.671875 7.67578125 8.671875 5.3125 6.75 C4.52488281 6.12609375 3.73726562 5.5021875 2.92578125 4.859375 C1 3 1 3 0 0 Z " fill="#303A42" transform="translate(163,294)"/>
<path d="M0 0 C0 3 0 3 -1.42578125 4.53515625 C-2.04839844 5.03917969 -2.67101562 5.54320312 -3.3125 6.0625 C-3.92738281 6.56910156 -4.54226562 7.07570313 -5.17578125 7.59765625 C-6.73585456 8.79694173 -8.36271732 9.90847821 -10 11 C-12.1875 10.625 -12.1875 10.625 -14 10 C-13.07316406 9.36191406 -12.14632812 8.72382813 -11.19140625 8.06640625 C-9.98173309 7.23182554 -8.77209973 6.39718714 -7.5625 5.5625 C-6.64500977 4.93118164 -6.64500977 4.93118164 -5.70898438 4.28710938 C-2.71897291 2.31239178 -2.71897291 2.31239178 0 0 Z " fill="#2E3840" transform="translate(259,292)"/>
<path d="M0 0 C0.33 0 0.66 0 1 0 C1.54298306 6.5157967 0.88377017 11.58350448 -3 17 C-3.99 17.66 -4.98 18.32 -6 19 C-5.38022648 16.08835566 -4.43921238 13.78548999 -3 11.1875 C-1.03597682 7.39465813 -0.35330198 4.23962376 0 0 Z " fill="#263139" transform="translate(878,199)"/>
<path d="M0 0 C3.87511727 0.54984772 5.59576506 2.27555331 8.25 5.0625 C8.95640625 5.79597656 9.6628125 6.52945313 10.390625 7.28515625 C10.92171875 7.85105469 11.4528125 8.41695312 12 9 C11.67 9.99 11.34 10.98 11 12 C10.236875 11.21625 9.47375 10.4325 8.6875 9.625 C6.09108195 6.92742283 6.09108195 6.92742283 3 5 C3 4.01 3 3.02 3 2 C2.01 2 1.02 2 0 2 C0 1.34 0 0.68 0 0 Z " fill="#43515B" transform="translate(451,184)"/>
<path d="M0 0 C6.05537521 0.30276876 9.51483458 3.27754038 14 7 C13.67 7.99 13.34 8.98 13 10 C12.56429687 9.60167969 12.12859375 9.20335937 11.6796875 8.79296875 C7.99005314 5.51063169 4.56922802 3.00600254 0 1 C0 0.67 0 0.34 0 0 Z " fill="#2E3A42" transform="translate(756,144)"/>
<path d="M0 0 C0 0.33 0 0.66 0 1 C-6.56492112 1.78441153 -12.46837378 2.10914408 -19 1 C-19 0.67 -19 0.34 -19 0 C-12.60624381 -1.59843905 -6.40654045 -1.28130809 0 0 Z " fill="#414D56" transform="translate(438,209)"/>
<path d="M0 0 C0.99 0.33 1.98 0.66 3 1 C2.2575 1.515625 1.515 2.03125 0.75 2.5625 C-2.53628545 5.47534392 -3.98763759 8.12433906 -6 12 C-6.33 12 -6.66 12 -7 12 C-7.3841073 9.38807037 -7.40150173 7.62856826 -5.95703125 5.3671875 C-4.14567494 3.16806283 -2.57347501 1.2867375 0 0 Z " fill="#2E3A43" transform="translate(477,173)"/>
<path d="M0 0 C0.33 0 0.66 0 1 0 C1.054348 2.0622048 1.09294961 4.12482816 1.125 6.1875 C1.14820313 7.33605469 1.17140625 8.48460937 1.1953125 9.66796875 C1.00484152 12.91740372 0.39360127 15.08660521 -1 18 C-1.33 18 -1.66 18 -2 18 C-2.20190089 11.64012196 -1.6277833 6.14778871 0 0 Z " fill="#2A363E" transform="translate(339,157)"/>
<path d="M0 0 C8.77578475 -0.92017937 8.77578475 -0.92017937 11.77734375 1.3359375 C13.125 3 13.125 3 15 6 C4.44191344 2.92482916 4.44191344 2.92482916 0 1 C0 0.67 0 0.34 0 0 Z " fill="#303B44" transform="translate(142,92)"/>
<path d="M0 0 C3.25326479 3.16289633 6.36725392 6.29465367 9 10 C9 10.99 9 11.98 9 13 C8.34 13 7.68 13 7 13 C5.2734375 10.91796875 5.2734375 10.91796875 3.375 8.1875 C2.42753906 6.84751953 2.42753906 6.84751953 1.4609375 5.48046875 C0 3 0 3 0 0 Z " fill="#2C3842" transform="translate(245,176)"/>
<path d="M0 0 C2.17503665 1.00983845 4.03589517 2.02778981 5.9375 3.5 C8.19232577 5.13987329 10.38678522 6.05633911 13 7 C13 7.33 13 7.66 13 8 C9.85655034 8.46001702 7.7555072 8.48859148 5.04296875 6.734375 C3.24291022 5.22393893 1.54859947 3.76851892 0 2 C0 1.34 0 0.68 0 0 Z " fill="#303B43" transform="translate(472,200)"/>
<path d="M0 0 C0.86882813 0.00386719 1.73765625 0.00773438 2.6328125 0.01171875 C4.875 0.3125 4.875 0.3125 6.875 2.3125 C-1.045 2.8075 -1.045 2.8075 -9.125 3.3125 C-4.58959748 -0.08905189 -4.58959748 -0.08905189 0 0 Z " fill="#2C3840" transform="translate(745.125,153.6875)"/>
<path d="M0 0 C0.33 0.66 0.66 1.32 1 2 C-1.90971331 8.51775781 -1.90971331 8.51775781 -6.25 10.4375 C-7.61125 10.7159375 -7.61125 10.7159375 -9 11 C-7.75596862 7.26790586 -5.82756102 5.69291525 -3 3 C-2.401875 2.401875 -1.80375 1.80375 -1.1875 1.1875 C-0.795625 0.795625 -0.40375 0.40375 0 0 Z " fill="#303C46" transform="translate(762,184)"/>
<path d="M0 0 C4.40875955 0.50385823 6.82550966 1.9113067 10 5 C11.3125 7.75 11.3125 7.75 12 10 C11.34 10 10.68 10 10 10 C8.43041807 8.32278959 7.0519475 6.53205886 5.6328125 4.7265625 C3.88597642 2.87942961 2.32113778 1.99477333 0 1 C0 0.67 0 0.34 0 0 Z " fill="#2E3A43" transform="translate(512,145)"/>
<path d="M0 0 C0.33 0.99 0.66 1.98 1 3 C-0.21478851 4.18163051 -1.44752408 5.34482835 -2.6875 6.5 C-3.37199219 7.1496875 -4.05648437 7.799375 -4.76171875 8.46875 C-7.40656372 10.27813784 -8.86162389 10.3077917 -12 10 C-10.09329491 8.55090413 -8.17826377 7.12377266 -6.2109375 5.7578125 C-5.58445312 5.32210937 -4.95796875 4.88640625 -4.3125 4.4375 C-3.71050781 4.02371094 -3.10851562 3.60992187 -2.48828125 3.18359375 C-0.85004921 2.0514968 -0.85004921 2.0514968 0 0 Z " fill="#2C363C" transform="translate(655,197)"/>
<path d="M0 0 C2.50719458 2.32649587 4.32183601 4.82681521 6.1875 7.6875 C6.71730469 8.49574219 7.24710938 9.30398437 7.79296875 10.13671875 C8.39044922 11.05904297 8.39044922 11.05904297 9 12 C6.37417256 11.629691 5.26426684 11.31016581 3.515625 9.2578125 C3.09796875 8.55398437 2.6803125 7.85015625 2.25 7.125 C1.60804688 6.07699219 1.60804688 6.07699219 0.953125 5.0078125 C0 3 0 3 0 0 Z " fill="#2B3842" transform="translate(226,192)"/>
<path d="M0 0 C4.51707932 0.5314211 7.38687577 2.29015683 11 5 C11.33 5.66 11.66 6.32 12 7 C7.76570244 5.68938409 3.92592596 4.05643741 0 2 C0 1.34 0 0.68 0 0 Z " fill="#303B44" transform="translate(324,96)"/>
<path d="M0 0 C3.68954546 1.22984849 3.35620309 1.71240619 5 5 C6.62746694 6.70496537 8.28891311 8.37897032 10 10 C6.4628562 9.43867066 5.00738321 8.30442253 2.75 5.5625 C1.96882812 4.63630859 1.96882812 4.63630859 1.171875 3.69140625 C0 2 0 2 0 0 Z " fill="#2D3840" transform="translate(908,193)"/>
<path d="M0 0 C4.72065967 1.54269924 9.41664092 3.07794619 14 5 C14 5.33 14 5.66 14 6 C8.34388537 6.56561146 4.77357872 4.71391278 0 2 C0 1.34 0 0.68 0 0 Z " fill="#2C3840" transform="translate(546,191)"/>
<path d="M0 0 C0.33 0 0.66 0 1 0 C0.95875 1.2375 0.9175 2.475 0.875 3.75 C0.86341709 7.01637962 1.1431298 9.2146947 3 12 C2.01 12 1.02 12 0 12 C-2.03188359 7.93623282 -2.09890389 5.39561557 -1 1 C-0.67 0.67 -0.34 0.34 0 0 Z " fill="#2F3C46" transform="translate(485,183)"/>
<path d="M0 0 C0.763125 0.639375 1.52625 1.27875 2.3125 1.9375 C6.73944307 4.95635515 11.79735295 4.81485242 17 5 C17 5.33 17 5.66 17 6 C14.91781638 6.10832169 12.83400871 6.18573541 10.75 6.25 C9.00976562 6.31960937 9.00976562 6.31960937 7.234375 6.390625 C4 6 4 6 1.578125 4.109375 C0 2 0 2 0 0 Z " fill="#36699C" transform="translate(181,176)"/>
<path d="M0 0 C-3.61186839 2.74501997 -7.30395263 5.37012014 -11 8 C-11 5 -11 5 -8.3125 2.3125 C-5.49953474 0.08083635 -3.65006012 -0.53677355 0 0 Z " fill="#2A353D" transform="translate(618,144)"/>
<path d="M0 0 C2.97851562 0.53710938 2.97851562 0.53710938 5.95703125 1.07421875 C5.95703125 1.73421875 5.95703125 2.39421875 5.95703125 3.07421875 C2.32703125 3.07421875 -1.30296875 3.07421875 -5.04296875 3.07421875 C-2.04296875 0.07421875 -2.04296875 0.07421875 0 0 Z " fill="#323E46" transform="translate(696.04296875,113.92578125)"/>
<path d="M0 0 C3.5786304 1.65167557 6.74820188 3.78286492 10 6 C9.67 6.99 9.34 7.98 9 9 C7.49428343 7.88266271 5.99555708 6.75589965 4.5 5.625 C3.6646875 4.99851563 2.829375 4.37203125 1.96875 3.7265625 C1.3190625 3.15679687 0.669375 2.58703125 0 2 C0 1.34 0 0.68 0 0 Z " fill="#2D3A42" transform="translate(255,190)"/>
<path d="M0 0 C0.66 0.33 1.32 0.66 2 1 C1.8125 4.3125 1.8125 4.3125 1 8 C-1.5625 9.9375 -1.5625 9.9375 -4 11 C-4 10.01 -4 9.02 -4 8 C-3.525625 7.54625 -3.05125 7.0925 -2.5625 6.625 C-0.55416651 4.53633317 -0.38130476 2.8216552 0 0 Z " fill="#2B3740" transform="translate(573,186)"/>
<path d="M0 0 C0.2475 0.53625 0.495 1.0725 0.75 1.625 C2.74875251 5.42262977 4.95946005 8.95946005 8 12 C5.75 12 5.75 12 3 11 C1.20720876 8.51681711 -0.12052606 5.93538704 -1 3 C-0.67 2.01 -0.34 1.02 0 0 Z " fill="#34414B" transform="translate(845,179)"/>
<path d="M0 0 C0 3.2002215 -0.63242392 5.61483471 -1.5 8.6875 C-1.7784375 9.68136719 -2.056875 10.67523438 -2.34375 11.69921875 C-2.5603125 12.45847656 -2.776875 13.21773437 -3 14 C-3.33 14 -3.66 14 -4 14 C-4.29787234 5.21276596 -4.29787234 5.21276596 -2 1 C-1.34 0.67 -0.68 0.34 0 0 Z " fill="#29353D" transform="translate(908,157)"/>
<path d="M0 0 C0.66 0 1.32 0 2 0 C6.59225513 8.261959 6.59225513 8.261959 6 13 C0 4 0 4 0 0 Z " fill="#2B363E" transform="translate(771,154)"/>
<path d="M0 0 C0.66 0.33 1.32 0.66 2 1 C0.02 4.63 -1.96 8.26 -4 12 C-4.33 12 -4.66 12 -5 12 C-4.58525633 6.71201818 -3.64775386 3.88309282 0 0 Z " fill="#2A353E" transform="translate(718,154)"/>
<path d="M0 0 C3.37503669 1.1858237 5.64722731 2.27573689 8 5 C7.01 6.485 7.01 6.485 6 8 C5.34 8 4.68 8 4 8 C3.896875 7.38125 3.79375 6.7625 3.6875 6.125 C3.12474627 3.63473516 3.12474627 3.63473516 0 2 C0 1.34 0 0.68 0 0 Z " fill="#34414B" transform="translate(580,146)"/>
<path d="M0 0 C3.6607519 1.22025063 3.92339441 2.126491 5.6875 5.4375 C6.34298828 6.64212891 6.34298828 6.64212891 7.01171875 7.87109375 C8 10 8 10 8 12 C7.34 12 6.68 12 6 12 C4.4921875 9.8828125 4.4921875 9.8828125 2.875 7.125 C2.33617187 6.22007812 1.79734375 5.31515625 1.2421875 4.3828125 C0 2 0 2 0 0 Z " fill="#303F4A" transform="translate(185,123)"/>
<path d="M0 0 C-1.62170379 1.00533667 -3.24747237 2.00411907 -4.875 3 C-6.23238281 3.8353125 -6.23238281 3.8353125 -7.6171875 4.6875 C-10 6 -10 6 -12 6 C-12 5.34 -12 4.68 -12 4 C-10.390625 2.67578125 -10.390625 2.67578125 -8.25 1.3125 C-7.55390625 0.85488281 -6.8578125 0.39726562 -6.140625 -0.07421875 C-3.60909275 -1.16906025 -2.53899138 -0.9435441 0 0 Z " fill="#2A363E" transform="translate(454,187)"/>
<path d="M0 0 C1.76923828 0.01353516 1.76923828 0.01353516 3.57421875 0.02734375 C4.47785156 0.03894531 5.38148438 0.05054688 6.3125 0.0625 C6.3125 0.3925 6.3125 0.7225 6.3125 1.0625 C5.67183594 1.12308594 5.03117187 1.18367187 4.37109375 1.24609375 C-0.67173313 1.73459412 -5.6787102 2.30029286 -10.6875 3.0625 C-8.63221196 -1.04807609 -4.03316787 -0.03993236 0 0 Z " fill="#222C32" transform="translate(496.6875,154.9375)"/>
<path d="M0 0 C0.33 0 0.66 0 1 0 C1 1.98 1 3.96 1 6 C1.66 6 2.32 6 3 6 C3 7.65 3 9.3 3 11 C1.35 11.66 -0.3 12.32 -2 13 C-1.67 12.34 -1.34 11.68 -1 11 C0.28687011 7.13938967 0.13757618 4.05849717 0 0 Z " fill="#4C7BAA" transform="translate(220,146)"/>
<path d="M0 0 C3.63 1.98 7.26 3.96 11 6 C7 7 7 7 5.078125 6.07421875 C4.47484375 5.61660156 3.8715625 5.15898437 3.25 4.6875 C2.63640625 4.23761719 2.0228125 3.78773438 1.390625 3.32421875 C0.93171875 2.88722656 0.4728125 2.45023438 0 2 C0 1.34 0 0.68 0 0 Z " fill="#2C3740" transform="translate(249,217)"/>
<path d="M0 0 C2 0 2 0 4.4375 2.25 C6.47004286 4.4312655 8.28819148 6.56743 10 9 C5.74257863 8.52695318 3.74294902 6.1136178 1 3 C0.67 2.01 0.34 1.02 0 0 Z " fill="#2B3741" transform="translate(235,205)"/>
<path d="M0 0 C7.42857143 -0.14285714 7.42857143 -0.14285714 11 1 C11 1.66 11 2.32 11 3 C9.02 3.33 7.04 3.66 5 4 C5 3.34 5 2.68 5 2 C3.35 1.67 1.7 1.34 0 1 C0 0.67 0 0.34 0 0 Z " fill="#354048" transform="translate(850,205)"/>
<path d="M0 0 C1.32 0 2.64 0 4 0 C4 0.66 4 1.32 4 2 C6.64 2.66 9.28 3.32 12 4 C12 4.33 12 4.66 12 5 C7.12335991 5.34833144 4.22949995 4.41685712 0 2 C0 1.34 0 0.68 0 0 Z " fill="#2E3840" transform="translate(725,203)"/>
<path d="M0 0 C3.60513403 2.06007659 6.80331012 4.3513141 10 7 C9.01 7.33 8.02 7.66 7 8 C5.17578125 6.85546875 5.17578125 6.85546875 3.3125 5.1875 C2.37857422 4.37345703 2.37857422 4.37345703 1.42578125 3.54296875 C0 2 0 2 0 0 Z " fill="#333F49" transform="translate(614,188)"/>
<path d="M0 0 C3.9795702 0.35373957 7.35688886 1.39274509 11 3 C11 3.33 11 3.66 11 4 C6.18061476 4.23509196 2.53701494 3.45184478 -2 2 C-1.34 1.34 -0.68 0.68 0 0 Z " fill="#2A3740" transform="translate(860,153)"/>
<path d="M0 0 C0.66 0.33 1.32 0.66 2 1 C2 1.99 2 2.98 2 4 C-0.8125 6.75 -0.8125 6.75 -4 9 C-4.99 8.67 -5.98 8.34 -7 8 C-6.21625 7.4225 -5.4325 6.845 -4.625 6.25 C-2.19952756 4.17102363 -1.14305583 2.90959667 0 0 Z " fill="#2C3740" transform="translate(460,193)"/>
<path d="M0 0 C2 2 2 2 2.25 5.5 C2 9 2 9 0 11 C-1.89885096 9.10114904 -1.12367506 6.42752097 -1.1328125 3.91015625 C-1 2 -1 2 0 0 Z " fill="#2D3B46" transform="translate(163,194)"/>
<path d="M0 0 C0.66 0.33 1.32 0.66 2 1 C2 1.99 2 2.98 2 4 C1.01 4 0.02 4 -1 4 C-1.28875 4.639375 -1.5775 5.27875 -1.875 5.9375 C-3 8 -3 8 -5 9 C-4.42647107 5.12867972 -2.51295648 2.91827204 0 0 Z " fill="#313E46" transform="translate(543,188)"/>
<path d="M0 0 C0.556875 0.268125 1.11375 0.53625 1.6875 0.8125 C0.32625 1.67875 0.32625 1.67875 -1.0625 2.5625 C-3.83272946 4.48035116 -6.03195499 6.35652845 -8.3125 8.8125 C-7.82204356 4.398392 -4.79279276 -0.38860482 0 0 Z " fill="#36638E" transform="translate(180.3125,147.1875)"/>
<path d="M0 0 C0.86625 0.3403125 0.86625 0.3403125 1.75 0.6875 C0.5434375 1.0896875 0.5434375 1.0896875 -0.6875 1.5 C-1.533125 1.891875 -2.37875 2.28375 -3.25 2.6875 C-3.58 3.6775 -3.91 4.6675 -4.25 5.6875 C-5.24 6.0175 -6.23 6.3475 -7.25 6.6875 C-6.87492618 3.96821483 -6.40781339 2.84531339 -4.4375 0.875 C-2.25 -0.3125 -2.25 -0.3125 0 0 Z " fill="#313E47" transform="translate(479.25,147.3125)"/>
<path d="M0 0 C0.80824219 0.19464844 1.61648438 0.38929688 2.44921875 0.58984375 C3.06410156 0.74582031 3.67898438 0.90179688 4.3125 1.0625 C4.3125 1.3925 4.3125 1.7225 4.3125 2.0625 C0.3525 2.0625 -3.6075 2.0625 -7.6875 2.0625 C-7.6875 1.4025 -7.6875 0.7425 -7.6875 0.0625 C-4.39053895 -1.03648702 -3.28255097 -0.80874444 0 0 Z " fill="#2B3741" transform="translate(699.6875,142.9375)"/>
<path d="M0 0 C-1 2 -1 2 -3.28515625 2.8515625 C-4.20167969 3.10679688 -5.11820312 3.36203125 -6.0625 3.625 C-7.44115234 4.01558594 -7.44115234 4.01558594 -8.84765625 4.4140625 C-9.55792969 4.60742188 -10.26820312 4.80078125 -11 5 C-11 4.34 -11 3.68 -11 3 C-7.14243493 0.84694043 -4.44870215 -0.39253254 0 0 Z " fill="#2F3B43" transform="translate(104,93)"/>
<path d="M0 0 C0.58265625 0.21527344 1.1653125 0.43054688 1.765625 0.65234375 C0.31298462 1.51615665 -1.1466913 2.36814829 -2.609375 3.21484375 C-3.82753906 3.92833984 -3.82753906 3.92833984 -5.0703125 4.65625 C-5.78445312 4.98496094 -6.49859375 5.31367188 -7.234375 5.65234375 C-7.894375 5.32234375 -8.554375 4.99234375 -9.234375 4.65234375 C-8.16330383 3.78285058 -7.07691556 2.9322017 -5.984375 2.08984375 C-5.38109375 1.61417969 -4.7778125 1.13851563 -4.15625 0.6484375 C-2.234375 -0.34765625 -2.234375 -0.34765625 0 0 Z " fill="#2C373F" transform="translate(236.234375,278.34765625)"/>
<path d="M0 0 C2.37948772 0.17625835 3.70225849 0.69719773 5.37890625 2.40234375 C6.62115486 3.90649092 7.81376056 5.45129851 9 7 C6.62051228 6.82374165 5.29774151 6.30280227 3.62109375 4.59765625 C2.37884514 3.09350908 1.18623944 1.54870149 0 0 Z " fill="#354047" transform="translate(603,197)"/>
<path d="M0 0 C2.33524782 2.25740623 4.18705073 4.2805761 6 7 C5.625 9.1875 5.625 9.1875 5 11 C4.16151196 9.54462432 3.32936066 8.08559627 2.5 6.625 C1.80390625 5.40683594 1.80390625 5.40683594 1.09375 4.1640625 C0 2 0 2 0 0 Z " fill="#2D3842" transform="translate(83,179)"/>
<path d="M0 0 C2.31 0.66 4.62 1.32 7 2 C5.625 4 5.625 4 4 6 C3.34 6 2.68 6 2 6 C0 3 0 3 0 0 Z " fill="#354049" transform="translate(476,158)"/>
<path d="M0 0 C0.33 0.99 0.66 1.98 1 3 C-2.21311475 8.73770492 -2.21311475 8.73770492 -6 10 C-4.6302836 6.00499382 -2.74277578 3.19990508 0 0 Z " fill="#2E3941" transform="translate(91,129)"/>
<path d="M0 0 C2.0625 0.4375 2.0625 0.4375 4 1 C-1.75 5 -1.75 5 -4 5 C-4 5.66 -4 6.32 -4 7 C-4.66 6.67 -5.32 6.34 -6 6 C-4 4 -2 2 0 0 Z " fill="#2D3940" transform="translate(169,20)"/>
<path d="M0 0 C2.95929119 2.75520215 5.03681826 5.46627288 7 9 C5.1875 8.8125 5.1875 8.8125 3 8 C0.85802506 5.09303401 0 3.64478912 0 0 Z " fill="#313B42" transform="translate(65,199)"/>
<path d="M0 0 C0.33 0.99 0.66 1.98 1 3 C0.07421875 4.82421875 0.07421875 4.82421875 -1.3125 6.6875 C-1.76238281 7.31011719 -2.21226562 7.93273437 -2.67578125 8.57421875 C-3.11277344 9.04472656 -3.54976563 9.51523438 -4 10 C-4.66 10 -5.32 10 -6 10 C-4.34832443 6.4213696 -2.21713508 3.25179812 0 0 Z " fill="#2D373E" transform="translate(353,199)"/>
<path d="M0 0 C2.625 1.3125 2.625 1.3125 5 3 C5 3.66 5 4.32 5 5 C3.6078125 4.7215625 3.6078125 4.7215625 2.1875 4.4375 C-1.01343771 3.75876119 -1.01343771 3.75876119 -4 5 C-2.25 1.125 -2.25 1.125 0 0 Z " fill="#303B42" transform="translate(647,189)"/>
<path d="M0 0 C0 4.38968456 -2.12805101 5.76905739 -5 9 C-5.33 8.01 -5.66 7.02 -6 6 C-2.83636364 1.41818182 -2.83636364 1.41818182 0 0 Z " fill="#2D3941" transform="translate(332,186)"/>
<path d="M0 0 C0.66 0.33 1.32 0.66 2 1 C0.76302083 2.46484375 -0.47395833 3.9296875 -1.7109375 5.39453125 C-2.89201099 6.8655046 -3.95358529 8.43037794 -5 10 C-5.33 9.01 -5.66 8.02 -6 7 C-2.73239437 1.36619718 -2.73239437 1.36619718 0 0 Z " fill="#2F3C45" transform="translate(733,158)"/>
<path d="M0 0 C0 0.66 0 1.32 0 2 C-2.8125 4.1875 -2.8125 4.1875 -6 6 C-6.99 5.67 -7.98 5.34 -9 5 C-3.375 0 -3.375 0 0 0 Z " fill="#2F3942" transform="translate(417,134)"/>
<path d="M0 0 C0.8353125 0.37125 0.8353125 0.37125 1.6875 0.75 C-0.5625 2.8125 -0.5625 2.8125 -3.3125 4.75 C-5.625 4.5 -5.625 4.5 -7.3125 3.75 C-2.88173077 -0.31153846 -2.88173077 -0.31153846 0 0 Z " fill="#35404A" transform="translate(89.3125,99.25)"/>
<path d="M0 0 C2.96404505 2.80804268 5.44499019 5.18315774 7 9 C3.64564078 7.61198929 1.88709697 6.11371 0 3 C0 2.01 0 1.02 0 0 Z " fill="#2B363E" transform="translate(150,279)"/>
<path d="M0 0 C0.66 0.66 1.32 1.32 2 2 C1 3 1 3 -1.50390625 3.09765625 C-3.01791016 3.08025391 -3.01791016 3.08025391 -4.5625 3.0625 C-5.57441406 3.05347656 -6.58632813 3.04445312 -7.62890625 3.03515625 C-8.41136719 3.02355469 -9.19382812 3.01195312 -10 3 C-10 2.67 -10 2.34 -10 2 C-8.37828761 1.61102839 -6.75245075 1.23921702 -5.125 0.875 C-4.22007812 0.66617188 -3.31515625 0.45734375 -2.3828125 0.2421875 C-1.20332031 0.12230469 -1.20332031 0.12230469 0 0 Z " fill="#283137" transform="translate(442,206)"/>
<path d="M0 0 C4.95 0.99 4.95 0.99 10 2 C10 2.66 10 3.32 10 4 C6.28111761 3.49287967 3.26545761 2.88391785 0 1 C0 0.67 0 0.34 0 0 Z " fill="#313D47" transform="translate(554,165)"/>
<path d="M0 0 C0.66 0 1.32 0 2 0 C3.32 2.31 4.64 4.62 6 7 C5.01 8.485 5.01 8.485 4 10 C3.32845067 8.71086513 2.66291141 7.41859796 2 6.125 C1.62875 5.40570313 1.2575 4.68640625 0.875 3.9453125 C0 2 0 2 0 0 Z " fill="#313E47" transform="translate(639,157)"/>
<path d="M0 0 C-3.41139003 1.09651823 -6.20655581 0.94215473 -9.75 0.5625 C-11.22726562 0.40974609 -11.22726562 0.40974609 -12.734375 0.25390625 C-13.48203125 0.17011719 -14.2296875 0.08632812 -15 0 C-15 -0.33 -15 -0.66 -15 -1 C-4.44191344 -2.51708428 -4.44191344 -2.51708428 0 0 Z " fill="#46545E" transform="translate(508,157)"/>
<path d="M0 0 C-1.28524261 0.86380259 -2.57842419 1.71580369 -3.875 2.5625 C-4.59429688 3.03816406 -5.31359375 3.51382813 -6.0546875 4.00390625 C-6.69664062 4.33261719 -7.33859375 4.66132813 -8 5 C-8.66 4.67 -9.32 4.34 -10 4 C-4.75 -1.425 -4.75 -1.425 0 0 Z " fill="#2C3740" transform="translate(734,145)"/>
<path d="M0 0 C4.43090471 1.20842856 6.98112756 2.51668565 10 6 C5.16743695 5.58578031 3.17320782 3.53586014 0 0 Z " fill="#2B363D" transform="translate(440,133)"/>
<path d="M0 0 C0.5625 1.9375 0.5625 1.9375 1 4 C0.67 4.33 0.34 4.66 0 5 C-0.23075082 6.34747084 -0.41153063 7.70377565 -0.5625 9.0625 C-0.706875 10.361875 -0.85125 11.66125 -1 13 C-1.33 13 -1.66 13 -2 13 C-2.05391993 11.20866022 -2.09275571 9.41686101 -2.125 7.625 C-2.14820313 6.62726563 -2.17140625 5.62953125 -2.1953125 4.6015625 C-2 2 -2 2 0 0 Z " fill="#28333B" transform="translate(692,131)"/>
<path d="M0 0 C0.99 0.33 1.98 0.66 3 1 C1.02 3.31 -0.96 5.62 -3 8 C-3.33 7.01 -3.66 6.02 -4 5 C-2.0625 2.3125 -2.0625 2.3125 0 0 Z " fill="#2B363E" transform="translate(396,129)"/>
<path d="M0 0 C0.33 0.66 0.66 1.32 1 2 C0.22265625 3.7265625 0.22265625 3.7265625 -0.9375 5.625 C-1.618125 6.73875 -2.29875 7.8525 -3 9 C-3.89674777 6.48910624 -4.13172674 5.35464891 -3.1875 2.8125 C-2 1 -2 1 0 0 Z " fill="#2B363E" transform="translate(147,45)"/>
<path d="M0 0 C4.455 1.98 4.455 1.98 9 4 C4.70600835 5.07349791 3.80504787 4.79682816 0 3 C0 2.01 0 1.02 0 0 Z " fill="#2F3B44" transform="translate(224,36)"/>
<path d="M0 0 C3.73487777 0.4979837 5.81237635 0.87491756 9 3 C9 3.66 9 4.32 9 5 C5.9168649 3.80100302 2.93720508 2.52299523 0 1 C0 0.67 0 0.34 0 0 Z " fill="#33414B" transform="translate(184,279)"/>
<path d="M0 0 C0.99 0 1.98 0 3 0 C3 2.64 3 5.28 3 8 C2.34 8 1.68 8 1 8 C-0.35439668 5.29120665 -0.06501451 2.99066732 0 0 Z " fill="#313C45" transform="translate(141,260)"/>
<path d="M0 0 C0.66 0.33 1.32 0.66 2 1 C-2.30769231 4.93846154 -2.30769231 4.93846154 -5.8125 5.25 C-6.534375 5.1675 -7.25625 5.085 -8 5 C-5.45378681 2.99940392 -3.01962385 1.20784954 0 0 Z " fill="#2D3840" transform="translate(764,202)"/>
<path d="M0 0 C2.64752004 2.57784846 4.94432065 4.91648098 7 8 C4.24542282 7.62005832 3.17979426 7.1926367 1.25 5.125 C0 3 0 3 0 0 Z " fill="#2C373E" transform="translate(717,194)"/>
<path d="M0 0 C-1.15173355 2.46800047 -2.04783565 4.04783565 -4 6 C-4.99 6 -5.98 6 -7 6 C-7 5.34 -7 4.68 -7 4 C-2.52941176 0 -2.52941176 0 0 0 Z " fill="#303C44" transform="translate(458,136)"/>
<path d="M0 0 C3.36720387 1.39332574 4.9859524 2.9789286 7 6 C3.75728494 5.4409112 2.06942576 4.5867822 0 2 C0 1.34 0 0.68 0 0 Z " fill="#313B44" transform="translate(73,210)"/>
<path d="M0 0 C0.66 0 1.32 0 2 0 C3.38938077 1.96147874 4.7260411 3.96166576 6 6 C5.67 6.66 5.34 7.32 5 8 C2.5 5.6875 2.5 5.6875 0 3 C0 2.01 0 1.02 0 0 Z " fill="#2E3A42" transform="translate(728,185)"/>
<path d="M0 0 C2.5 2.3125 2.5 2.3125 5 5 C5 5.99 5 6.98 5 8 C2.5 5.6875 2.5 5.6875 0 3 C0 2.01 0 1.02 0 0 Z " fill="#2D3840" transform="translate(327,129)"/>
<path d="M0 0 C0.99 0 1.98 0 3 0 C5.1875 2.5 5.1875 2.5 7 5 C6.67 5.66 6.34 6.32 6 7 C1.125 2.25 1.125 2.25 0 0 Z " fill="#303D46" transform="translate(346,113)"/>
<path d="M0 0 C5.75 -0.125 5.75 -0.125 8 1 C7.67 2.32 7.34 3.64 7 5 C6.401875 4.54625 5.80375 4.0925 5.1875 3.625 C3.49409348 2.36704087 1.75522914 1.17015276 0 0 Z " fill="#42505A" transform="translate(154,87)"/>
<path d="M0 0 C6.15234375 0.5859375 6.15234375 0.5859375 8 1 C8.33 1.66 8.66 2.32 9 3 C3.46153846 3.36923077 3.46153846 3.36923077 1.125 1.5 C0.75375 1.005 0.3825 0.51 0 0 Z " fill="#2E3941" transform="translate(148,84)"/>
<path d="M0 0 C4.42857143 5.14285714 4.42857143 5.14285714 5 9 C4.01 8.67 3.02 8.34 2 8 C0.5522078 5.10441559 0 3.25811062 0 0 Z " fill="#2A3740" transform="translate(249,56)"/>
<path d="M0 0 C0.33 0 0.66 0 1 0 C1 1.65 1 3.3 1 5 C0.67 5 0.34 5 0 5 C0 3.35 0 1.7 0 0 Z " fill="#527496" transform="translate(168,165)"/>
<path d="M0 0 C0.99 0.33 1.98 0.66 3 1 C2.01 1 1.02 1 0 1 C0 0.67 0 0.34 0 0 Z " fill="#4E5D69" transform="translate(275,194)"/>
<path d="M0 0 C0.99 0.495 0.99 0.495 2 1 C1.01 1.495 1.01 1.495 0 2 C0 1.34 0 0.68 0 0 Z " fill="#525E6A" transform="translate(693,140)"/>
<path d="" fill="#51606A" transform="translate(0,0)"/>
<path d="M0 0 C2 1 2 1 2 1 Z " fill="#517AA1" transform="translate(209,241)"/>
<path d="M0 0 C2 1 2 1 2 1 Z " fill="#53606B" transform="translate(296,234)"/>
<path d="M0 0 C2 1 2 1 2 1 Z " fill="#515E6A" transform="translate(842,233)"/>
<path d="M0 0 C2 1 2 1 2 1 Z " fill="#54616D" transform="translate(128,204)"/>
<path d="" fill="#4F5F68" transform="translate(0,0)"/>
<path d="" fill="#505D69" transform="translate(0,0)"/>
<path d="" fill="#4D5A67" transform="translate(0,0)"/>
<path d="" fill="#505F69" transform="translate(0,0)"/>
<path d="M0 0 C2 1 2 1 2 1 Z " fill="#505F6A" transform="translate(576,161)"/>
<path d="" fill="#515D68" transform="translate(0,0)"/>
<path d="M0 0 C2 1 2 1 2 1 Z " fill="#54616B" transform="translate(752,140)"/>
<path d="" fill="#53626D" transform="translate(0,0)"/>
<path d="" fill="#515F6D" transform="translate(0,0)"/>
<path d="M0 0 C2 1 2 1 2 1 Z " fill="#54799C" transform="translate(198,135)"/>
<path d="" fill="#515F6A" transform="translate(0,0)"/>
<path d="M0 0 C2 1 2 1 2 1 Z " fill="#505E6A" transform="translate(295,87)"/>
<path d="" fill="#505B65" transform="translate(0,0)"/>
<path d="" fill="#515E6A" transform="translate(0,0)"/>
<path d="" fill="#525F6B" transform="translate(0,0)"/>
<path d="" fill="#4F5D67" transform="translate(0,0)"/>
<path d="" fill="#4F5F6B" transform="translate(0,0)"/>
<path d="" fill="#515E6A" transform="translate(0,0)"/>
<path d="" fill="#525F68" transform="translate(0,0)"/>
<path d="" fill="#506270" transform="translate(0,0)"/>
<path d="" fill="#51616B" transform="translate(0,0)"/>
<path d="" fill="#5278A0" transform="translate(0,0)"/>
<path d="" fill="#547BA1" transform="translate(0,0)"/>
<path d="" fill="#547BA1" transform="translate(0,0)"/>
<path d="" fill="#4F5E6A" transform="translate(0,0)"/>
<path d="" fill="#50626C" transform="translate(0,0)"/>
<path d="" fill="#4E5C68" transform="translate(0,0)"/>
<path d="" fill="#567CA1" transform="translate(0,0)"/>
<path d="" fill="#55626C" transform="translate(0,0)"/>
<path d="" fill="#547EA7" transform="translate(0,0)"/>
<path d="" fill="#535F68" transform="translate(0,0)"/>
<path d="" fill="#545F6A" transform="translate(0,0)"/>
<path d="" fill="#51616A" transform="translate(0,0)"/>
<path d="" fill="#515E67" transform="translate(0,0)"/>
<path d="" fill="#525E69" transform="translate(0,0)"/>
<path d="" fill="#52626E" transform="translate(0,0)"/>
<path d="" fill="#4F5E69" transform="translate(0,0)"/>
<path d="" fill="#515C67" transform="translate(0,0)"/>
<path d="" fill="#515E67" transform="translate(0,0)"/>
<path d="" fill="#505E6A" transform="translate(0,0)"/>
<path d="" fill="#525E63" transform="translate(0,0)"/>
<path d="" fill="#52616B" transform="translate(0,0)"/>
<path d="" fill="#515D66" transform="translate(0,0)"/>
<path d="" fill="#507DA9" transform="translate(0,0)"/>
<path d="" fill="#546B82" transform="translate(0,0)"/>
<path d="" fill="#54606B" transform="translate(0,0)"/>
<path d="" fill="#515D64" transform="translate(0,0)"/>
<path d="" fill="#4F5963" transform="translate(0,0)"/>
<path d="" fill="#4F5F67" transform="translate(0,0)"/>
<path d="" fill="#51606C" transform="translate(0,0)"/>
<path d="" fill="#556E83" transform="translate(0,0)"/>
<path d="" fill="#557086" transform="translate(0,0)"/>
<path d="" fill="#4E616D" transform="translate(0,0)"/>
<path d="" fill="#515F6A" transform="translate(0,0)"/>
<path d="" fill="#50606B" transform="translate(0,0)"/>
<path d="" fill="#537DA8" transform="translate(0,0)"/>
<path d="" fill="#537DA9" transform="translate(0,0)"/>
<path d="" fill="#517DA7" transform="translate(0,0)"/>
<path d="" fill="#537CA3" transform="translate(0,0)"/>
<path d="" fill="#4E5C6B" transform="translate(0,0)"/>
<path d="" fill="#4E5C68" transform="translate(0,0)"/>
<path d="" fill="#53616C" transform="translate(0,0)"/>
<path d="" fill="#505E67" transform="translate(0,0)"/>
<path d="" fill="#4F5B67" transform="translate(0,0)"/>
<path d="" fill="#4A5A66" transform="translate(0,0)"/>
<path d="" fill="#505F67" transform="translate(0,0)"/>
<path d="" fill="#51616B" transform="translate(0,0)"/>
<path d="" fill="#50606B" transform="translate(0,0)"/>
<path d="" fill="#515E6B" transform="translate(0,0)"/>
<path d="" fill="#527697" transform="translate(0,0)"/>
<path d="" fill="#50606A" transform="translate(0,0)"/>
<path d="" fill="#4F5E6A" transform="translate(0,0)"/>
<path d="" fill="#4F5C67" transform="translate(0,0)"/>
<path d="" fill="#505E69" transform="translate(0,0)"/>
<path d="" fill="#4D5C68" transform="translate(0,0)"/>
<path d="" fill="#4E5C67" transform="translate(0,0)"/>
<path d="" fill="#515F69" transform="translate(0,0)"/>
<path d="" fill="#4F5D69" transform="translate(0,0)"/>
<path d="" fill="#4E5C6A" transform="translate(0,0)"/>
<path d="" fill="#4E5C69" transform="translate(0,0)"/>
<path d="" fill="#4F5E6A" transform="translate(0,0)"/>
<path d="" fill="#52626D" transform="translate(0,0)"/>
<path d="" fill="#505F6A" transform="translate(0,0)"/>
<path d="" fill="#546169" transform="translate(0,0)"/>
<path d="" fill="#505E68" transform="translate(0,0)"/>
<path d="" fill="#515E6A" transform="translate(0,0)"/>
<path d="" fill="#515E6B" transform="translate(0,0)"/>
<path d="" fill="#53606B" transform="translate(0,0)"/>
<path d="" fill="#52606C" transform="translate(0,0)"/>
<path d="" fill="#4D5967" transform="translate(0,0)"/>
<path d="" fill="#525E6A" transform="translate(0,0)"/>
<path d="" fill="#547795" transform="translate(0,0)"/>
<path d="" fill="#4D5D68" transform="translate(0,0)"/>
<path d="" fill="#4D5C66" transform="translate(0,0)"/>
<path d="" fill="#515F69" transform="translate(0,0)"/>
<path d="" fill="#525E68" transform="translate(0,0)"/>
<path d="" fill="#51606B" transform="translate(0,0)"/>
<path d="" fill="#50616A" transform="translate(0,0)"/>
<path d="" fill="#505E69" transform="translate(0,0)"/>
<path d="" fill="#4F5F69" transform="translate(0,0)"/>
<path d="" fill="#566370" transform="translate(0,0)"/>
<path d="" fill="#4E5C68" transform="translate(0,0)"/>
<path d="" fill="#5481A8" transform="translate(0,0)"/>
<path d="" fill="#4F5D67" transform="translate(0,0)"/>
<path d="" fill="#505E6A" transform="translate(0,0)"/>
<path d="" fill="#557592" transform="translate(0,0)"/>
<path d="" fill="#507EA8" transform="translate(0,0)"/>
<path d="" fill="#51616A" transform="translate(0,0)"/>
<path d="" fill="#50677B" transform="translate(0,0)"/>
<path d="" fill="#4E5D65" transform="translate(0,0)"/>
<path d="" fill="#4D5968" transform="translate(0,0)"/>
<path d="" fill="#537493" transform="translate(0,0)"/>
<path d="" fill="#567CA5" transform="translate(0,0)"/>
<path d="" fill="#505C67" transform="translate(0,0)"/>
<path d="" fill="#4F5E68" transform="translate(0,0)"/>
<path d="" fill="#53606B" transform="translate(0,0)"/>
<path d="" fill="#4F5D66" transform="translate(0,0)"/>
<path d="" fill="#515D69" transform="translate(0,0)"/>
<path d="" fill="#53616D" transform="translate(0,0)"/>
<path d="" fill="#505E67" transform="translate(0,0)"/>
<path d="" fill="#51606A" transform="translate(0,0)"/>
<path d="" fill="#515C66" transform="translate(0,0)"/>
<path d="" fill="#525F6B" transform="translate(0,0)"/>
<path d="" fill="#516069" transform="translate(0,0)"/>
<path d="" fill="#4F5D67" transform="translate(0,0)"/>
<path d="" fill="#4F5C66" transform="translate(0,0)"/>
<path d="" fill="#53636C" transform="translate(0,0)"/>
<path d="" fill="#55606B" transform="translate(0,0)"/>
<path d="" fill="#526571" transform="translate(0,0)"/>
<path d="" fill="#52616B" transform="translate(0,0)"/>
<path d="" fill="#54616E" transform="translate(0,0)"/>
<path d="" fill="#58799B" transform="translate(0,0)"/>
<path d="" fill="#53626C" transform="translate(0,0)"/>
<path d="" fill="#5179A0" transform="translate(0,0)"/>
<path d="" fill="#557493" transform="translate(0,0)"/>
<path d="" fill="#4E5D67" transform="translate(0,0)"/>
<path d="" fill="#53626F" transform="translate(0,0)"/>
<path d="" fill="#51606C" transform="translate(0,0)"/>
<path d="" fill="#51606D" transform="translate(0,0)"/>
<path d="" fill="#50626A" transform="translate(0,0)"/>
<path d="" fill="#52616F" transform="translate(0,0)"/>
<path d="" fill="#516270" transform="translate(0,0)"/>
<path d="" fill="#525F6C" transform="translate(0,0)"/>
<path d="" fill="#526068" transform="translate(0,0)"/>
<path d="" fill="#526069" transform="translate(0,0)"/>
<path d="" fill="#546169" transform="translate(0,0)"/>
<path d="" fill="#4D5D6B" transform="translate(0,0)"/>
<path d="" fill="#53616A" transform="translate(0,0)"/>
<path d="" fill="#52616A" transform="translate(0,0)"/>
<path d="" fill="#505F6A" transform="translate(0,0)"/>
<path d="" fill="#53616A" transform="translate(0,0)"/>
<path d="" fill="#52616A" transform="translate(0,0)"/>
<path d="" fill="#52606C" transform="translate(0,0)"/>
<path d="" fill="#52606A" transform="translate(0,0)"/>
<path d="" fill="#57799E" transform="translate(0,0)"/>
<path d="" fill="#546370" transform="translate(0,0)"/>
<path d="" fill="#537DA8" transform="translate(0,0)"/>
<path d="" fill="#535F6A" transform="translate(0,0)"/>
<path d="" fill="#51606B" transform="translate(0,0)"/>
<path d="" fill="#505E6A" transform="translate(0,0)"/>
<path d="" fill="#517B9F" transform="translate(0,0)"/>
<path d="" fill="#546777" transform="translate(0,0)"/>
<path d="" fill="#51616C" transform="translate(0,0)"/>
<path d="" fill="#536574" transform="translate(0,0)"/>
<path d="" fill="#516473" transform="translate(0,0)"/>
<path d="" fill="#556674" transform="translate(0,0)"/>
<path d="" fill="#526574" transform="translate(0,0)"/>
<path d="" fill="#546374" transform="translate(0,0)"/>
<path d="" fill="#536473" transform="translate(0,0)"/>
<path d="" fill="#516170" transform="translate(0,0)"/>
<path d="" fill="#52616F" transform="translate(0,0)"/>
<path d="" fill="#526372" transform="translate(0,0)"/>
<path d="" fill="#515F6A" transform="translate(0,0)"/>
<path d="" fill="#52616C" transform="translate(0,0)"/>
<path d="" fill="#505C69" transform="translate(0,0)"/>
<path d="" fill="#51616D" transform="translate(0,0)"/>
</svg>
